%TF.GenerationSoftware,KiCad,Pcbnew,(6.0.7)*%
%TF.CreationDate,2022-10-18T17:16:55-04:00*%
%TF.ProjectId,PCB,5043422e-6b69-4636-9164-5f7063625858,rev?*%
%TF.SameCoordinates,Original*%
%TF.FileFunction,Plated,1,4,PTH,Drill*%
%TF.FilePolarity,Positive*%
%FSLAX46Y46*%
G04 Gerber Fmt 4.6, Leading zero omitted, Abs format (unit mm)*
G04 Created by KiCad (PCBNEW (6.0.7)) date 2022-10-18 17:16:55*
%MOMM*%
%LPD*%
G01*
G04 APERTURE LIST*
%TA.AperFunction,ViaDrill*%
%ADD10C,0.250000*%
%TD*%
%TA.AperFunction,ViaDrill*%
%ADD11C,0.300000*%
%TD*%
%TA.AperFunction,ViaDrill*%
%ADD12C,0.400000*%
%TD*%
%TA.AperFunction,ComponentDrill*%
%ADD13C,0.400000*%
%TD*%
%TA.AperFunction,ViaDrill*%
%ADD14C,0.600000*%
%TD*%
%TA.AperFunction,ComponentDrill*%
%ADD15C,0.900000*%
%TD*%
%TA.AperFunction,ComponentDrill*%
%ADD16C,0.990000*%
%TD*%
%TA.AperFunction,ComponentDrill*%
%ADD17C,1.000000*%
%TD*%
%TA.AperFunction,ComponentDrill*%
%ADD18C,1.300000*%
%TD*%
%TA.AperFunction,ComponentDrill*%
%ADD19C,2.200000*%
%TD*%
G04 APERTURE END LIST*
D10*
X202190000Y-97080000D03*
X202200000Y-98490000D03*
X202700000Y-97090000D03*
X202710000Y-98490000D03*
X203210000Y-97080000D03*
X203210000Y-98470000D03*
X205740000Y-98360000D03*
X205740000Y-98880000D03*
X205740000Y-99400000D03*
X205760000Y-96130000D03*
X205760000Y-97160000D03*
X205770000Y-96650000D03*
D11*
X193310000Y-96320000D03*
X193830000Y-95780000D03*
X193840000Y-96800000D03*
X198624500Y-96360000D03*
X199370000Y-95624500D03*
X200171110Y-100472067D03*
X200950000Y-104250000D03*
X201110000Y-100350000D03*
X201110000Y-100970000D03*
X201110000Y-101590000D03*
X201290000Y-93210000D03*
X201290000Y-93830000D03*
X201290000Y-94450000D03*
X201290000Y-95080000D03*
X205530000Y-100950000D03*
X205530000Y-101560000D03*
X205530000Y-102170000D03*
X205530000Y-102790000D03*
X205530000Y-103410000D03*
X205980000Y-94340000D03*
X205980000Y-94940000D03*
D12*
X192610000Y-110080000D03*
X192610000Y-118060000D03*
X193570000Y-118910000D03*
X195770962Y-112920273D03*
X195801203Y-115047273D03*
X196300000Y-117980000D03*
X196870000Y-109200000D03*
X197050000Y-110200000D03*
X197390464Y-116950273D03*
X197930000Y-108154500D03*
X197935000Y-98865000D03*
X198430000Y-111720000D03*
X198455000Y-119450000D03*
X198460000Y-93340000D03*
X198520964Y-117160273D03*
X199450000Y-112040000D03*
X199510000Y-108169500D03*
X200470464Y-116750273D03*
X200990000Y-108164500D03*
X202120000Y-111360000D03*
X202130000Y-112870000D03*
X202150000Y-113860000D03*
X202150000Y-115360000D03*
X202155000Y-107255000D03*
X202970000Y-110400000D03*
X202970000Y-112276889D03*
X205000000Y-109600000D03*
X205350000Y-107200000D03*
X206254754Y-112226389D03*
X206520000Y-103960000D03*
X206630000Y-110200000D03*
X206750000Y-108750000D03*
X206820000Y-105660000D03*
X206840000Y-111260000D03*
X206890000Y-116480000D03*
X208180000Y-103045500D03*
X208480000Y-93440000D03*
X208550496Y-92442987D03*
X209630000Y-109930000D03*
X209750000Y-112520000D03*
X210290000Y-104840000D03*
X210398907Y-110604500D03*
X210965656Y-98661093D03*
X211250743Y-104768426D03*
X211495649Y-92292141D03*
X211840000Y-98084500D03*
X212200000Y-104790000D03*
X213175188Y-105009119D03*
X213800000Y-92190000D03*
X215037823Y-105205997D03*
X216026464Y-105059047D03*
X216477844Y-97105812D03*
X217020000Y-104950000D03*
X217076892Y-112100982D03*
X217150000Y-99020000D03*
X217315937Y-96561197D03*
X218030000Y-111800000D03*
X218162933Y-106465234D03*
X218770381Y-105671502D03*
X218790998Y-111012682D03*
X219490498Y-104972002D03*
X219490498Y-112772998D03*
X220720000Y-99050000D03*
X220980000Y-102970000D03*
X221210000Y-96800000D03*
X221510000Y-92264500D03*
X222310000Y-107280000D03*
X222800000Y-109205500D03*
X222948453Y-98895317D03*
X223300000Y-114740000D03*
X223320000Y-119660000D03*
X223960000Y-100220000D03*
X224721622Y-104847739D03*
X224850000Y-92814500D03*
X224967457Y-102491185D03*
X227331435Y-113238972D03*
X227372362Y-114237637D03*
X227892345Y-92417655D03*
X228099500Y-111004500D03*
X229340000Y-91660000D03*
X231070000Y-108950500D03*
X231100000Y-103260000D03*
X231769500Y-104890000D03*
X232022286Y-111167214D03*
X232700000Y-98500000D03*
X233230000Y-109650000D03*
X234010000Y-110674500D03*
X234050000Y-112074000D03*
X234100000Y-101970000D03*
X234851018Y-104158075D03*
X234882691Y-111161752D03*
X235850500Y-104164500D03*
X236050000Y-110840000D03*
X236090000Y-93910000D03*
X236630000Y-98500000D03*
X237080000Y-101650000D03*
X237910000Y-102940000D03*
X238511191Y-106525500D03*
X238682748Y-108485445D03*
X239510000Y-107924500D03*
X239510378Y-106500378D03*
X239897372Y-99801872D03*
X241180000Y-113880000D03*
X241780000Y-109930000D03*
X241810000Y-112650000D03*
X242900000Y-91940000D03*
X243600000Y-108940000D03*
X244880000Y-98050000D03*
D13*
%TO.C,H2*%
X192850000Y-105700000D03*
X193333274Y-104533274D03*
X193333274Y-106866726D03*
X194500000Y-104050000D03*
X194500000Y-107350000D03*
X195666726Y-104533274D03*
X195666726Y-106866726D03*
X196150000Y-105700000D03*
%TO.C,H3*%
X217000000Y-94100000D03*
X217483274Y-92933274D03*
X217483274Y-95266726D03*
X218650000Y-92450000D03*
X218650000Y-95750000D03*
X219816726Y-92933274D03*
X219816726Y-95266726D03*
X220300000Y-94100000D03*
%TO.C,H1*%
X241150000Y-105700000D03*
X241633274Y-104533274D03*
X241633274Y-106866726D03*
X242800000Y-104050000D03*
X242800000Y-107350000D03*
X243966726Y-104533274D03*
X243966726Y-106866726D03*
X244450000Y-105700000D03*
%TD*%
D14*
X210570000Y-101670000D03*
X210579898Y-100520540D03*
X211729357Y-100510547D03*
X211740000Y-101660000D03*
D15*
%TO.C,D6*%
X230600000Y-117070000D03*
X231870000Y-117070000D03*
X233140000Y-117070000D03*
X234410000Y-117070000D03*
D16*
%TO.C,SW3*%
X238370000Y-117400000D03*
X242870000Y-117400000D03*
D17*
%TO.C,J2*%
X226870000Y-93910000D03*
X228870000Y-93910000D03*
D18*
%TO.C,SW3*%
X237110000Y-114910000D03*
X244120000Y-114910000D03*
D19*
%TO.C,H2*%
X194500000Y-105700000D03*
%TO.C,H3*%
X218650000Y-94100000D03*
%TO.C,H1*%
X242800000Y-105700000D03*
M02*
