%TF.GenerationSoftware,KiCad,Pcbnew,(6.0.7)*%
%TF.CreationDate,2022-10-18T17:17:19-04:00*%
%TF.ProjectId,PCB,5043422e-6b69-4636-9164-5f7063625858,rev?*%
%TF.SameCoordinates,Original*%
%TF.FileFunction,Drillmap*%
%TF.FilePolarity,Positive*%
%FSLAX45Y45*%
G04 Gerber Fmt 4.5, Leading zero omitted, Abs format (unit mm)*
G04 Created by KiCad (PCBNEW (6.0.7)) date 2022-10-18 17:17:19*
%MOMM*%
%LPD*%
G01*
G04 APERTURE LIST*
%ADD10C,0.200000*%
%ADD11C,0.025000*%
%ADD12C,0.030000*%
%ADD13C,0.040000*%
%ADD14C,0.060000*%
%ADD15C,0.090000*%
%ADD16C,0.099000*%
%ADD17C,0.100000*%
%ADD18C,0.130000*%
%ADD19C,0.220000*%
G04 APERTURE END LIST*
D10*
X24565000Y-11920000D02*
X24565000Y-9216000D01*
X24465000Y-12020000D02*
G75*
G03*
X24565000Y-11920000I0J100000D01*
G01*
X19265000Y-9120000D02*
G75*
G03*
X19165000Y-9220000I0J-100000D01*
G01*
X19265000Y-12020000D02*
X24465000Y-12020000D01*
X24564997Y-9216000D02*
G75*
G03*
X24465000Y-9120000I-99997J-4080D01*
G01*
X19165000Y-11920000D02*
G75*
G03*
X19265000Y-12020000I100000J0D01*
G01*
X24465000Y-9120000D02*
X19265000Y-9120000D01*
X19165000Y-9220000D02*
X19165000Y-11920000D01*
D11*
X20206500Y-9695500D02*
X20231500Y-9720500D01*
X20231500Y-9695500D02*
X20206500Y-9720500D01*
X20207500Y-9836500D02*
X20232500Y-9861500D01*
X20232500Y-9836500D02*
X20207500Y-9861500D01*
X20257500Y-9696500D02*
X20282500Y-9721500D01*
X20282500Y-9696500D02*
X20257500Y-9721500D01*
X20258500Y-9836500D02*
X20283500Y-9861500D01*
X20283500Y-9836500D02*
X20258500Y-9861500D01*
X20308500Y-9695500D02*
X20333500Y-9720500D01*
X20333500Y-9695500D02*
X20308500Y-9720500D01*
X20308500Y-9834500D02*
X20333500Y-9859500D01*
X20333500Y-9834500D02*
X20308500Y-9859500D01*
X20561500Y-9823500D02*
X20586500Y-9848500D01*
X20586500Y-9823500D02*
X20561500Y-9848500D01*
X20561500Y-9875500D02*
X20586500Y-9900500D01*
X20586500Y-9875500D02*
X20561500Y-9900500D01*
X20561500Y-9927500D02*
X20586500Y-9952500D01*
X20586500Y-9927500D02*
X20561500Y-9952500D01*
X20563500Y-9600500D02*
X20588500Y-9625500D01*
X20588500Y-9600500D02*
X20563500Y-9625500D01*
X20563500Y-9703500D02*
X20588500Y-9728500D01*
X20588500Y-9703500D02*
X20563500Y-9728500D01*
X20564500Y-9652500D02*
X20589500Y-9677500D01*
X20589500Y-9652500D02*
X20564500Y-9677500D01*
D12*
X19346000Y-9632000D02*
G75*
G03*
X19346000Y-9632000I-15000J0D01*
G01*
X19398000Y-9578000D02*
G75*
G03*
X19398000Y-9578000I-15000J0D01*
G01*
X19399000Y-9680000D02*
G75*
G03*
X19399000Y-9680000I-15000J0D01*
G01*
X19877450Y-9636000D02*
G75*
G03*
X19877450Y-9636000I-15000J0D01*
G01*
X19952000Y-9562450D02*
G75*
G03*
X19952000Y-9562450I-15000J0D01*
G01*
X20032111Y-10047207D02*
G75*
G03*
X20032111Y-10047207I-15000J0D01*
G01*
X20110000Y-10425000D02*
G75*
G03*
X20110000Y-10425000I-15000J0D01*
G01*
X20126000Y-10035000D02*
G75*
G03*
X20126000Y-10035000I-15000J0D01*
G01*
X20126000Y-10097000D02*
G75*
G03*
X20126000Y-10097000I-15000J0D01*
G01*
X20126000Y-10159000D02*
G75*
G03*
X20126000Y-10159000I-15000J0D01*
G01*
X20144000Y-9321000D02*
G75*
G03*
X20144000Y-9321000I-15000J0D01*
G01*
X20144000Y-9383000D02*
G75*
G03*
X20144000Y-9383000I-15000J0D01*
G01*
X20144000Y-9445000D02*
G75*
G03*
X20144000Y-9445000I-15000J0D01*
G01*
X20144000Y-9508000D02*
G75*
G03*
X20144000Y-9508000I-15000J0D01*
G01*
X20568000Y-10095000D02*
G75*
G03*
X20568000Y-10095000I-15000J0D01*
G01*
X20568000Y-10156000D02*
G75*
G03*
X20568000Y-10156000I-15000J0D01*
G01*
X20568000Y-10217000D02*
G75*
G03*
X20568000Y-10217000I-15000J0D01*
G01*
X20568000Y-10279000D02*
G75*
G03*
X20568000Y-10279000I-15000J0D01*
G01*
X20568000Y-10341000D02*
G75*
G03*
X20568000Y-10341000I-15000J0D01*
G01*
X20613000Y-9434000D02*
G75*
G03*
X20613000Y-9434000I-15000J0D01*
G01*
X20613000Y-9494000D02*
G75*
G03*
X20613000Y-9494000I-15000J0D01*
G01*
D13*
X19261000Y-10988000D02*
X19261000Y-11028000D01*
X19241000Y-11008000D02*
X19281000Y-11008000D01*
X19261000Y-11786000D02*
X19261000Y-11826000D01*
X19241000Y-11806000D02*
X19281000Y-11806000D01*
X19357000Y-11871000D02*
X19357000Y-11911000D01*
X19337000Y-11891000D02*
X19377000Y-11891000D01*
X19577096Y-11272027D02*
X19577096Y-11312027D01*
X19557096Y-11292027D02*
X19597096Y-11292027D01*
X19580120Y-11484727D02*
X19580120Y-11524727D01*
X19560120Y-11504727D02*
X19600120Y-11504727D01*
X19630000Y-11778000D02*
X19630000Y-11818000D01*
X19610000Y-11798000D02*
X19650000Y-11798000D01*
X19687000Y-10900000D02*
X19687000Y-10940000D01*
X19667000Y-10920000D02*
X19707000Y-10920000D01*
X19705000Y-11000000D02*
X19705000Y-11040000D01*
X19685000Y-11020000D02*
X19725000Y-11020000D01*
X19739046Y-11675027D02*
X19739046Y-11715027D01*
X19719046Y-11695027D02*
X19759046Y-11695027D01*
X19793000Y-10795450D02*
X19793000Y-10835450D01*
X19773000Y-10815450D02*
X19813000Y-10815450D01*
X19793500Y-9866500D02*
X19793500Y-9906500D01*
X19773500Y-9886500D02*
X19813500Y-9886500D01*
X19843000Y-11152000D02*
X19843000Y-11192000D01*
X19823000Y-11172000D02*
X19863000Y-11172000D01*
X19845500Y-11925000D02*
X19845500Y-11965000D01*
X19825500Y-11945000D02*
X19865500Y-11945000D01*
X19846000Y-9314000D02*
X19846000Y-9354000D01*
X19826000Y-9334000D02*
X19866000Y-9334000D01*
X19852096Y-11696027D02*
X19852096Y-11736027D01*
X19832096Y-11716027D02*
X19872096Y-11716027D01*
X19945000Y-11184000D02*
X19945000Y-11224000D01*
X19925000Y-11204000D02*
X19965000Y-11204000D01*
X19951000Y-10796950D02*
X19951000Y-10836950D01*
X19931000Y-10816950D02*
X19971000Y-10816950D01*
X20047046Y-11655027D02*
X20047046Y-11695027D01*
X20027046Y-11675027D02*
X20067046Y-11675027D01*
X20099000Y-10796450D02*
X20099000Y-10836450D01*
X20079000Y-10816450D02*
X20119000Y-10816450D01*
X20212000Y-11116000D02*
X20212000Y-11156000D01*
X20192000Y-11136000D02*
X20232000Y-11136000D01*
X20213000Y-11267000D02*
X20213000Y-11307000D01*
X20193000Y-11287000D02*
X20233000Y-11287000D01*
X20215000Y-11366000D02*
X20215000Y-11406000D01*
X20195000Y-11386000D02*
X20235000Y-11386000D01*
X20215000Y-11516000D02*
X20215000Y-11556000D01*
X20195000Y-11536000D02*
X20235000Y-11536000D01*
X20215500Y-10705500D02*
X20215500Y-10745500D01*
X20195500Y-10725500D02*
X20235500Y-10725500D01*
X20297000Y-11020000D02*
X20297000Y-11060000D01*
X20277000Y-11040000D02*
X20317000Y-11040000D01*
X20297000Y-11207689D02*
X20297000Y-11247689D01*
X20277000Y-11227689D02*
X20317000Y-11227689D01*
X20500000Y-10940000D02*
X20500000Y-10980000D01*
X20480000Y-10960000D02*
X20520000Y-10960000D01*
X20535000Y-10700000D02*
X20535000Y-10740000D01*
X20515000Y-10720000D02*
X20555000Y-10720000D01*
X20625475Y-11202639D02*
X20625475Y-11242639D01*
X20605475Y-11222639D02*
X20645475Y-11222639D01*
X20652000Y-10376000D02*
X20652000Y-10416000D01*
X20632000Y-10396000D02*
X20672000Y-10396000D01*
X20663000Y-11000000D02*
X20663000Y-11040000D01*
X20643000Y-11020000D02*
X20683000Y-11020000D01*
X20675000Y-10855000D02*
X20675000Y-10895000D01*
X20655000Y-10875000D02*
X20695000Y-10875000D01*
X20682000Y-10546000D02*
X20682000Y-10586000D01*
X20662000Y-10566000D02*
X20702000Y-10566000D01*
X20684000Y-11106000D02*
X20684000Y-11146000D01*
X20664000Y-11126000D02*
X20704000Y-11126000D01*
X20689000Y-11628000D02*
X20689000Y-11668000D01*
X20669000Y-11648000D02*
X20709000Y-11648000D01*
X20818000Y-10284550D02*
X20818000Y-10324550D01*
X20798000Y-10304550D02*
X20838000Y-10304550D01*
X20848000Y-9324000D02*
X20848000Y-9364000D01*
X20828000Y-9344000D02*
X20868000Y-9344000D01*
X20855050Y-9224299D02*
X20855050Y-9264299D01*
X20835050Y-9244299D02*
X20875050Y-9244299D01*
X20963000Y-10973000D02*
X20963000Y-11013000D01*
X20943000Y-10993000D02*
X20983000Y-10993000D01*
X20975000Y-11232000D02*
X20975000Y-11272000D01*
X20955000Y-11252000D02*
X20995000Y-11252000D01*
X21029000Y-10464000D02*
X21029000Y-10504000D01*
X21009000Y-10484000D02*
X21049000Y-10484000D01*
X21039891Y-11040450D02*
X21039891Y-11080450D01*
X21019891Y-11060450D02*
X21059891Y-11060450D01*
X21096566Y-9846109D02*
X21096566Y-9886109D01*
X21076566Y-9866109D02*
X21116566Y-9866109D01*
X21125074Y-10456843D02*
X21125074Y-10496843D01*
X21105074Y-10476843D02*
X21145074Y-10476843D01*
X21149565Y-9209214D02*
X21149565Y-9249214D01*
X21129565Y-9229214D02*
X21169565Y-9229214D01*
X21184000Y-9788450D02*
X21184000Y-9828450D01*
X21164000Y-9808450D02*
X21204000Y-9808450D01*
X21220000Y-10459000D02*
X21220000Y-10499000D01*
X21200000Y-10479000D02*
X21240000Y-10479000D01*
X21317519Y-10480912D02*
X21317519Y-10520912D01*
X21297519Y-10500912D02*
X21337519Y-10500912D01*
X21380000Y-9199000D02*
X21380000Y-9239000D01*
X21360000Y-9219000D02*
X21400000Y-9219000D01*
X21503782Y-10500600D02*
X21503782Y-10540600D01*
X21483782Y-10520600D02*
X21523782Y-10520600D01*
X21602646Y-10485905D02*
X21602646Y-10525905D01*
X21582646Y-10505905D02*
X21622646Y-10505905D01*
X21647784Y-9690581D02*
X21647784Y-9730581D01*
X21627784Y-9710581D02*
X21667784Y-9710581D01*
X21702000Y-10475000D02*
X21702000Y-10515000D01*
X21682000Y-10495000D02*
X21722000Y-10495000D01*
X21707689Y-11190098D02*
X21707689Y-11230098D01*
X21687689Y-11210098D02*
X21727689Y-11210098D01*
X21715000Y-9882000D02*
X21715000Y-9922000D01*
X21695000Y-9902000D02*
X21735000Y-9902000D01*
X21731594Y-9636120D02*
X21731594Y-9676120D01*
X21711594Y-9656120D02*
X21751594Y-9656120D01*
X21803000Y-11160000D02*
X21803000Y-11200000D01*
X21783000Y-11180000D02*
X21823000Y-11180000D01*
X21816293Y-10626523D02*
X21816293Y-10666523D01*
X21796293Y-10646523D02*
X21836293Y-10646523D01*
X21877038Y-10547150D02*
X21877038Y-10587150D01*
X21857038Y-10567150D02*
X21897038Y-10567150D01*
X21879100Y-11081268D02*
X21879100Y-11121268D01*
X21859100Y-11101268D02*
X21899100Y-11101268D01*
X21949050Y-10477200D02*
X21949050Y-10517200D01*
X21929050Y-10497200D02*
X21969050Y-10497200D01*
X21949050Y-11257300D02*
X21949050Y-11297300D01*
X21929050Y-11277300D02*
X21969050Y-11277300D01*
X22072000Y-9885000D02*
X22072000Y-9925000D01*
X22052000Y-9905000D02*
X22092000Y-9905000D01*
X22098000Y-10277000D02*
X22098000Y-10317000D01*
X22078000Y-10297000D02*
X22118000Y-10297000D01*
X22121000Y-9660000D02*
X22121000Y-9700000D01*
X22101000Y-9680000D02*
X22141000Y-9680000D01*
X22151000Y-9206450D02*
X22151000Y-9246450D01*
X22131000Y-9226450D02*
X22171000Y-9226450D01*
X22231000Y-10708000D02*
X22231000Y-10748000D01*
X22211000Y-10728000D02*
X22251000Y-10728000D01*
X22280000Y-10900550D02*
X22280000Y-10940550D01*
X22260000Y-10920550D02*
X22300000Y-10920550D01*
X22294845Y-9869532D02*
X22294845Y-9909532D01*
X22274845Y-9889532D02*
X22314845Y-9889532D01*
X22330000Y-11454000D02*
X22330000Y-11494000D01*
X22310000Y-11474000D02*
X22350000Y-11474000D01*
X22332000Y-11946000D02*
X22332000Y-11986000D01*
X22312000Y-11966000D02*
X22352000Y-11966000D01*
X22396000Y-10002000D02*
X22396000Y-10042000D01*
X22376000Y-10022000D02*
X22416000Y-10022000D01*
X22472162Y-10464774D02*
X22472162Y-10504774D01*
X22452162Y-10484774D02*
X22492162Y-10484774D01*
X22485000Y-9261450D02*
X22485000Y-9301450D01*
X22465000Y-9281450D02*
X22505000Y-9281450D01*
X22496746Y-10229119D02*
X22496746Y-10269119D01*
X22476746Y-10249119D02*
X22516746Y-10249119D01*
X22733143Y-11303897D02*
X22733143Y-11343897D01*
X22713143Y-11323897D02*
X22753143Y-11323897D01*
X22737236Y-11403764D02*
X22737236Y-11443764D01*
X22717236Y-11423764D02*
X22757236Y-11423764D01*
X22789234Y-9221766D02*
X22789234Y-9261766D01*
X22769234Y-9241766D02*
X22809234Y-9241766D01*
X22809950Y-11080450D02*
X22809950Y-11120450D01*
X22789950Y-11100450D02*
X22829950Y-11100450D01*
X22934000Y-9146000D02*
X22934000Y-9186000D01*
X22914000Y-9166000D02*
X22954000Y-9166000D01*
X23107000Y-10875050D02*
X23107000Y-10915050D01*
X23087000Y-10895050D02*
X23127000Y-10895050D01*
X23110000Y-10306000D02*
X23110000Y-10346000D01*
X23090000Y-10326000D02*
X23130000Y-10326000D01*
X23176950Y-10469000D02*
X23176950Y-10509000D01*
X23156950Y-10489000D02*
X23196950Y-10489000D01*
X23202229Y-11096721D02*
X23202229Y-11136721D01*
X23182229Y-11116721D02*
X23222229Y-11116721D01*
X23270000Y-9830000D02*
X23270000Y-9870000D01*
X23250000Y-9850000D02*
X23290000Y-9850000D01*
X23323000Y-10945000D02*
X23323000Y-10985000D01*
X23303000Y-10965000D02*
X23343000Y-10965000D01*
X23401000Y-11047450D02*
X23401000Y-11087450D01*
X23381000Y-11067450D02*
X23421000Y-11067450D01*
X23405000Y-11187400D02*
X23405000Y-11227400D01*
X23385000Y-11207400D02*
X23425000Y-11207400D01*
X23410000Y-10177000D02*
X23410000Y-10217000D01*
X23390000Y-10197000D02*
X23430000Y-10197000D01*
X23485102Y-10395808D02*
X23485102Y-10435808D01*
X23465102Y-10415808D02*
X23505102Y-10415808D01*
X23488269Y-11096175D02*
X23488269Y-11136175D01*
X23468269Y-11116175D02*
X23508269Y-11116175D01*
X23585050Y-10396450D02*
X23585050Y-10436450D01*
X23565050Y-10416450D02*
X23605050Y-10416450D01*
X23605000Y-11064000D02*
X23605000Y-11104000D01*
X23585000Y-11084000D02*
X23625000Y-11084000D01*
X23609000Y-9371000D02*
X23609000Y-9411000D01*
X23589000Y-9391000D02*
X23629000Y-9391000D01*
X23663000Y-9830000D02*
X23663000Y-9870000D01*
X23643000Y-9850000D02*
X23683000Y-9850000D01*
X23708000Y-10145000D02*
X23708000Y-10185000D01*
X23688000Y-10165000D02*
X23728000Y-10165000D01*
X23791000Y-10274000D02*
X23791000Y-10314000D01*
X23771000Y-10294000D02*
X23811000Y-10294000D01*
X23851119Y-10632550D02*
X23851119Y-10672550D01*
X23831119Y-10652550D02*
X23871119Y-10652550D01*
X23868275Y-10828545D02*
X23868275Y-10868545D01*
X23848275Y-10848545D02*
X23888275Y-10848545D01*
X23951000Y-10772450D02*
X23951000Y-10812450D01*
X23931000Y-10792450D02*
X23971000Y-10792450D01*
X23951038Y-10630038D02*
X23951038Y-10670038D01*
X23931038Y-10650038D02*
X23971038Y-10650038D01*
X23989737Y-9960187D02*
X23989737Y-10000187D01*
X23969737Y-9980187D02*
X24009737Y-9980187D01*
X24118000Y-11368000D02*
X24118000Y-11408000D01*
X24098000Y-11388000D02*
X24138000Y-11388000D01*
X24178000Y-10973000D02*
X24178000Y-11013000D01*
X24158000Y-10993000D02*
X24198000Y-10993000D01*
X24181000Y-11245000D02*
X24181000Y-11285000D01*
X24161000Y-11265000D02*
X24201000Y-11265000D01*
X24290000Y-9174000D02*
X24290000Y-9214000D01*
X24270000Y-9194000D02*
X24310000Y-9194000D01*
X24360000Y-10874000D02*
X24360000Y-10914000D01*
X24340000Y-10894000D02*
X24380000Y-10894000D01*
X24488000Y-9785000D02*
X24488000Y-9825000D01*
X24468000Y-9805000D02*
X24508000Y-9805000D01*
X19299142Y-10584142D02*
X19299142Y-10555858D01*
X19270858Y-10555858D01*
X19270858Y-10584142D01*
X19299142Y-10584142D01*
X19347470Y-10467470D02*
X19347470Y-10439185D01*
X19319185Y-10439185D01*
X19319185Y-10467470D01*
X19347470Y-10467470D01*
X19347470Y-10700815D02*
X19347470Y-10672530D01*
X19319185Y-10672530D01*
X19319185Y-10700815D01*
X19347470Y-10700815D01*
X19464142Y-10419142D02*
X19464142Y-10390858D01*
X19435858Y-10390858D01*
X19435858Y-10419142D01*
X19464142Y-10419142D01*
X19464142Y-10749142D02*
X19464142Y-10720858D01*
X19435858Y-10720858D01*
X19435858Y-10749142D01*
X19464142Y-10749142D01*
X19580815Y-10467470D02*
X19580815Y-10439185D01*
X19552530Y-10439185D01*
X19552530Y-10467470D01*
X19580815Y-10467470D01*
X19580815Y-10700815D02*
X19580815Y-10672530D01*
X19552530Y-10672530D01*
X19552530Y-10700815D01*
X19580815Y-10700815D01*
X19629142Y-10584142D02*
X19629142Y-10555858D01*
X19600858Y-10555858D01*
X19600858Y-10584142D01*
X19629142Y-10584142D01*
X21714142Y-9424142D02*
X21714142Y-9395858D01*
X21685858Y-9395858D01*
X21685858Y-9424142D01*
X21714142Y-9424142D01*
X21762470Y-9307470D02*
X21762470Y-9279185D01*
X21734185Y-9279185D01*
X21734185Y-9307470D01*
X21762470Y-9307470D01*
X21762470Y-9540815D02*
X21762470Y-9512530D01*
X21734185Y-9512530D01*
X21734185Y-9540815D01*
X21762470Y-9540815D01*
X21879142Y-9259142D02*
X21879142Y-9230858D01*
X21850858Y-9230858D01*
X21850858Y-9259142D01*
X21879142Y-9259142D01*
X21879142Y-9589142D02*
X21879142Y-9560858D01*
X21850858Y-9560858D01*
X21850858Y-9589142D01*
X21879142Y-9589142D01*
X21995815Y-9307470D02*
X21995815Y-9279185D01*
X21967530Y-9279185D01*
X21967530Y-9307470D01*
X21995815Y-9307470D01*
X21995815Y-9540815D02*
X21995815Y-9512530D01*
X21967530Y-9512530D01*
X21967530Y-9540815D01*
X21995815Y-9540815D01*
X22044142Y-9424142D02*
X22044142Y-9395858D01*
X22015858Y-9395858D01*
X22015858Y-9424142D01*
X22044142Y-9424142D01*
X24129142Y-10584142D02*
X24129142Y-10555858D01*
X24100858Y-10555858D01*
X24100858Y-10584142D01*
X24129142Y-10584142D01*
X24177470Y-10467470D02*
X24177470Y-10439185D01*
X24149185Y-10439185D01*
X24149185Y-10467470D01*
X24177470Y-10467470D01*
X24177470Y-10700815D02*
X24177470Y-10672530D01*
X24149185Y-10672530D01*
X24149185Y-10700815D01*
X24177470Y-10700815D01*
X24294142Y-10419142D02*
X24294142Y-10390858D01*
X24265858Y-10390858D01*
X24265858Y-10419142D01*
X24294142Y-10419142D01*
X24294142Y-10749142D02*
X24294142Y-10720858D01*
X24265858Y-10720858D01*
X24265858Y-10749142D01*
X24294142Y-10749142D01*
X24410815Y-10467470D02*
X24410815Y-10439185D01*
X24382530Y-10439185D01*
X24382530Y-10467470D01*
X24410815Y-10467470D01*
X24410815Y-10700815D02*
X24410815Y-10672530D01*
X24382530Y-10672530D01*
X24382530Y-10700815D01*
X24410815Y-10700815D01*
X24459142Y-10584142D02*
X24459142Y-10555858D01*
X24430858Y-10555858D01*
X24430858Y-10584142D01*
X24459142Y-10584142D01*
D14*
X21057000Y-10197000D02*
X21087000Y-10167000D01*
X21057000Y-10137000D01*
X21027000Y-10167000D01*
X21057000Y-10197000D01*
X21057990Y-10082054D02*
X21087990Y-10052054D01*
X21057990Y-10022054D01*
X21027990Y-10052054D01*
X21057990Y-10082054D01*
X21172936Y-10081055D02*
X21202936Y-10051055D01*
X21172936Y-10021055D01*
X21142936Y-10051055D01*
X21172936Y-10081055D01*
X21174000Y-10196000D02*
X21204000Y-10166000D01*
X21174000Y-10136000D01*
X21144000Y-10166000D01*
X21174000Y-10196000D01*
D15*
X23015000Y-11662000D02*
X23105000Y-11752000D01*
X23105000Y-11662000D02*
X23015000Y-11752000D01*
X23105000Y-11707000D02*
G75*
G03*
X23105000Y-11707000I-45000J0D01*
G01*
X23142000Y-11662000D02*
X23232000Y-11752000D01*
X23232000Y-11662000D02*
X23142000Y-11752000D01*
X23232000Y-11707000D02*
G75*
G03*
X23232000Y-11707000I-45000J0D01*
G01*
X23269000Y-11662000D02*
X23359000Y-11752000D01*
X23359000Y-11662000D02*
X23269000Y-11752000D01*
X23359000Y-11707000D02*
G75*
G03*
X23359000Y-11707000I-45000J0D01*
G01*
X23396000Y-11662000D02*
X23486000Y-11752000D01*
X23486000Y-11662000D02*
X23396000Y-11752000D01*
X23486000Y-11707000D02*
G75*
G03*
X23486000Y-11707000I-45000J0D01*
G01*
D16*
X23787500Y-11690500D02*
X23886500Y-11789500D01*
X23886500Y-11690500D02*
X23787500Y-11789500D01*
X23837000Y-11690500D02*
X23837000Y-11789500D01*
X23787500Y-11740000D02*
X23886500Y-11740000D01*
X24237500Y-11690500D02*
X24336500Y-11789500D01*
X24336500Y-11690500D02*
X24237500Y-11789500D01*
X24287000Y-11690500D02*
X24287000Y-11789500D01*
X24237500Y-11740000D02*
X24336500Y-11740000D01*
D17*
X22637000Y-9341000D02*
X22737000Y-9441000D01*
X22737000Y-9341000D02*
X22637000Y-9441000D01*
X22722356Y-9426356D02*
X22722356Y-9355644D01*
X22651644Y-9355644D01*
X22651644Y-9426356D01*
X22722356Y-9426356D01*
X22837000Y-9341000D02*
X22937000Y-9441000D01*
X22937000Y-9341000D02*
X22837000Y-9441000D01*
X22922356Y-9426356D02*
X22922356Y-9355644D01*
X22851644Y-9355644D01*
X22851644Y-9426356D01*
X22922356Y-9426356D01*
D18*
X23646000Y-11426000D02*
X23776000Y-11556000D01*
X23776000Y-11426000D02*
X23646000Y-11556000D01*
X23711000Y-11556000D02*
X23776000Y-11491000D01*
X23711000Y-11426000D01*
X23646000Y-11491000D01*
X23711000Y-11556000D01*
X24347000Y-11426000D02*
X24477000Y-11556000D01*
X24477000Y-11426000D02*
X24347000Y-11556000D01*
X24412000Y-11556000D02*
X24477000Y-11491000D01*
X24412000Y-11426000D01*
X24347000Y-11491000D01*
X24412000Y-11556000D01*
D19*
X19450000Y-10460000D02*
X19450000Y-10680000D01*
X19340000Y-10570000D02*
X19560000Y-10570000D01*
X19560000Y-10570000D02*
G75*
G03*
X19560000Y-10570000I-110000J0D01*
G01*
X21865000Y-9300000D02*
X21865000Y-9520000D01*
X21755000Y-9410000D02*
X21975000Y-9410000D01*
X21975000Y-9410000D02*
G75*
G03*
X21975000Y-9410000I-110000J0D01*
G01*
X24280000Y-10460000D02*
X24280000Y-10680000D01*
X24170000Y-10570000D02*
X24390000Y-10570000D01*
X24390000Y-10570000D02*
G75*
G03*
X24390000Y-10570000I-110000J0D01*
G01*
D10*
X19412619Y-12340476D02*
X19412619Y-12140476D01*
X19460238Y-12140476D01*
X19488810Y-12150000D01*
X19507857Y-12169048D01*
X19517381Y-12188095D01*
X19526905Y-12226190D01*
X19526905Y-12254762D01*
X19517381Y-12292857D01*
X19507857Y-12311905D01*
X19488810Y-12330952D01*
X19460238Y-12340476D01*
X19412619Y-12340476D01*
X19612619Y-12340476D02*
X19612619Y-12207143D01*
X19612619Y-12245238D02*
X19622143Y-12226190D01*
X19631667Y-12216667D01*
X19650714Y-12207143D01*
X19669762Y-12207143D01*
X19736429Y-12340476D02*
X19736429Y-12207143D01*
X19736429Y-12140476D02*
X19726905Y-12150000D01*
X19736429Y-12159524D01*
X19745952Y-12150000D01*
X19736429Y-12140476D01*
X19736429Y-12159524D01*
X19860238Y-12340476D02*
X19841190Y-12330952D01*
X19831667Y-12311905D01*
X19831667Y-12140476D01*
X19965000Y-12340476D02*
X19945952Y-12330952D01*
X19936429Y-12311905D01*
X19936429Y-12140476D01*
X20193571Y-12340476D02*
X20193571Y-12140476D01*
X20260238Y-12283333D01*
X20326905Y-12140476D01*
X20326905Y-12340476D01*
X20507857Y-12340476D02*
X20507857Y-12235714D01*
X20498333Y-12216667D01*
X20479286Y-12207143D01*
X20441190Y-12207143D01*
X20422143Y-12216667D01*
X20507857Y-12330952D02*
X20488810Y-12340476D01*
X20441190Y-12340476D01*
X20422143Y-12330952D01*
X20412619Y-12311905D01*
X20412619Y-12292857D01*
X20422143Y-12273809D01*
X20441190Y-12264286D01*
X20488810Y-12264286D01*
X20507857Y-12254762D01*
X20603095Y-12207143D02*
X20603095Y-12407143D01*
X20603095Y-12216667D02*
X20622143Y-12207143D01*
X20660238Y-12207143D01*
X20679286Y-12216667D01*
X20688810Y-12226190D01*
X20698333Y-12245238D01*
X20698333Y-12302381D01*
X20688810Y-12321428D01*
X20679286Y-12330952D01*
X20660238Y-12340476D01*
X20622143Y-12340476D01*
X20603095Y-12330952D01*
X20784048Y-12321428D02*
X20793571Y-12330952D01*
X20784048Y-12340476D01*
X20774524Y-12330952D01*
X20784048Y-12321428D01*
X20784048Y-12340476D01*
X20784048Y-12216667D02*
X20793571Y-12226190D01*
X20784048Y-12235714D01*
X20774524Y-12226190D01*
X20784048Y-12216667D01*
X20784048Y-12235714D01*
D11*
X19130000Y-12657500D02*
X19155000Y-12682500D01*
X19155000Y-12657500D02*
X19130000Y-12682500D01*
D10*
X19450714Y-12560476D02*
X19469762Y-12560476D01*
X19488810Y-12570000D01*
X19498333Y-12579524D01*
X19507857Y-12598571D01*
X19517381Y-12636667D01*
X19517381Y-12684286D01*
X19507857Y-12722381D01*
X19498333Y-12741428D01*
X19488810Y-12750952D01*
X19469762Y-12760476D01*
X19450714Y-12760476D01*
X19431667Y-12750952D01*
X19422143Y-12741428D01*
X19412619Y-12722381D01*
X19403095Y-12684286D01*
X19403095Y-12636667D01*
X19412619Y-12598571D01*
X19422143Y-12579524D01*
X19431667Y-12570000D01*
X19450714Y-12560476D01*
X19603095Y-12741428D02*
X19612619Y-12750952D01*
X19603095Y-12760476D01*
X19593571Y-12750952D01*
X19603095Y-12741428D01*
X19603095Y-12760476D01*
X19688810Y-12579524D02*
X19698333Y-12570000D01*
X19717381Y-12560476D01*
X19765000Y-12560476D01*
X19784048Y-12570000D01*
X19793571Y-12579524D01*
X19803095Y-12598571D01*
X19803095Y-12617619D01*
X19793571Y-12646190D01*
X19679286Y-12760476D01*
X19803095Y-12760476D01*
X19984048Y-12560476D02*
X19888810Y-12560476D01*
X19879286Y-12655714D01*
X19888810Y-12646190D01*
X19907857Y-12636667D01*
X19955476Y-12636667D01*
X19974524Y-12646190D01*
X19984048Y-12655714D01*
X19993571Y-12674762D01*
X19993571Y-12722381D01*
X19984048Y-12741428D01*
X19974524Y-12750952D01*
X19955476Y-12760476D01*
X19907857Y-12760476D01*
X19888810Y-12750952D01*
X19879286Y-12741428D01*
X20117381Y-12560476D02*
X20136429Y-12560476D01*
X20155476Y-12570000D01*
X20165000Y-12579524D01*
X20174524Y-12598571D01*
X20184048Y-12636667D01*
X20184048Y-12684286D01*
X20174524Y-12722381D01*
X20165000Y-12741428D01*
X20155476Y-12750952D01*
X20136429Y-12760476D01*
X20117381Y-12760476D01*
X20098333Y-12750952D01*
X20088810Y-12741428D01*
X20079286Y-12722381D01*
X20069762Y-12684286D01*
X20069762Y-12636667D01*
X20079286Y-12598571D01*
X20088810Y-12579524D01*
X20098333Y-12570000D01*
X20117381Y-12560476D01*
X20269762Y-12760476D02*
X20269762Y-12627143D01*
X20269762Y-12646190D02*
X20279286Y-12636667D01*
X20298333Y-12627143D01*
X20326905Y-12627143D01*
X20345952Y-12636667D01*
X20355476Y-12655714D01*
X20355476Y-12760476D01*
X20355476Y-12655714D02*
X20365000Y-12636667D01*
X20384048Y-12627143D01*
X20412619Y-12627143D01*
X20431667Y-12636667D01*
X20441190Y-12655714D01*
X20441190Y-12760476D01*
X20536429Y-12760476D02*
X20536429Y-12627143D01*
X20536429Y-12646190D02*
X20545952Y-12636667D01*
X20565000Y-12627143D01*
X20593571Y-12627143D01*
X20612619Y-12636667D01*
X20622143Y-12655714D01*
X20622143Y-12760476D01*
X20622143Y-12655714D02*
X20631667Y-12636667D01*
X20650714Y-12627143D01*
X20679286Y-12627143D01*
X20698333Y-12636667D01*
X20707857Y-12655714D01*
X20707857Y-12760476D01*
X21098333Y-12550952D02*
X20926905Y-12808095D01*
X21355476Y-12560476D02*
X21374524Y-12560476D01*
X21393571Y-12570000D01*
X21403095Y-12579524D01*
X21412619Y-12598571D01*
X21422143Y-12636667D01*
X21422143Y-12684286D01*
X21412619Y-12722381D01*
X21403095Y-12741428D01*
X21393571Y-12750952D01*
X21374524Y-12760476D01*
X21355476Y-12760476D01*
X21336429Y-12750952D01*
X21326905Y-12741428D01*
X21317381Y-12722381D01*
X21307857Y-12684286D01*
X21307857Y-12636667D01*
X21317381Y-12598571D01*
X21326905Y-12579524D01*
X21336429Y-12570000D01*
X21355476Y-12560476D01*
X21507857Y-12741428D02*
X21517381Y-12750952D01*
X21507857Y-12760476D01*
X21498333Y-12750952D01*
X21507857Y-12741428D01*
X21507857Y-12760476D01*
X21641190Y-12560476D02*
X21660238Y-12560476D01*
X21679286Y-12570000D01*
X21688810Y-12579524D01*
X21698333Y-12598571D01*
X21707857Y-12636667D01*
X21707857Y-12684286D01*
X21698333Y-12722381D01*
X21688810Y-12741428D01*
X21679286Y-12750952D01*
X21660238Y-12760476D01*
X21641190Y-12760476D01*
X21622143Y-12750952D01*
X21612619Y-12741428D01*
X21603095Y-12722381D01*
X21593571Y-12684286D01*
X21593571Y-12636667D01*
X21603095Y-12598571D01*
X21612619Y-12579524D01*
X21622143Y-12570000D01*
X21641190Y-12560476D01*
X21831667Y-12560476D02*
X21850714Y-12560476D01*
X21869762Y-12570000D01*
X21879286Y-12579524D01*
X21888810Y-12598571D01*
X21898333Y-12636667D01*
X21898333Y-12684286D01*
X21888810Y-12722381D01*
X21879286Y-12741428D01*
X21869762Y-12750952D01*
X21850714Y-12760476D01*
X21831667Y-12760476D01*
X21812619Y-12750952D01*
X21803095Y-12741428D01*
X21793571Y-12722381D01*
X21784048Y-12684286D01*
X21784048Y-12636667D01*
X21793571Y-12598571D01*
X21803095Y-12579524D01*
X21812619Y-12570000D01*
X21831667Y-12560476D01*
X21993571Y-12760476D02*
X22031667Y-12760476D01*
X22050714Y-12750952D01*
X22060238Y-12741428D01*
X22079286Y-12712857D01*
X22088810Y-12674762D01*
X22088810Y-12598571D01*
X22079286Y-12579524D01*
X22069762Y-12570000D01*
X22050714Y-12560476D01*
X22012619Y-12560476D01*
X21993571Y-12570000D01*
X21984048Y-12579524D01*
X21974524Y-12598571D01*
X21974524Y-12646190D01*
X21984048Y-12665238D01*
X21993571Y-12674762D01*
X22012619Y-12684286D01*
X22050714Y-12684286D01*
X22069762Y-12674762D01*
X22079286Y-12665238D01*
X22088810Y-12646190D01*
X22203095Y-12646190D02*
X22184048Y-12636667D01*
X22174524Y-12627143D01*
X22165000Y-12608095D01*
X22165000Y-12598571D01*
X22174524Y-12579524D01*
X22184048Y-12570000D01*
X22203095Y-12560476D01*
X22241190Y-12560476D01*
X22260238Y-12570000D01*
X22269762Y-12579524D01*
X22279286Y-12598571D01*
X22279286Y-12608095D01*
X22269762Y-12627143D01*
X22260238Y-12636667D01*
X22241190Y-12646190D01*
X22203095Y-12646190D01*
X22184048Y-12655714D01*
X22174524Y-12665238D01*
X22165000Y-12684286D01*
X22165000Y-12722381D01*
X22174524Y-12741428D01*
X22184048Y-12750952D01*
X22203095Y-12760476D01*
X22241190Y-12760476D01*
X22260238Y-12750952D01*
X22269762Y-12741428D01*
X22279286Y-12722381D01*
X22279286Y-12684286D01*
X22269762Y-12665238D01*
X22260238Y-12655714D01*
X22241190Y-12646190D01*
X22355476Y-12560476D02*
X22355476Y-12598571D01*
X22431667Y-12560476D02*
X22431667Y-12598571D01*
X22726905Y-12836667D02*
X22717381Y-12827143D01*
X22698333Y-12798571D01*
X22688809Y-12779524D01*
X22679286Y-12750952D01*
X22669762Y-12703333D01*
X22669762Y-12665238D01*
X22679286Y-12617619D01*
X22688809Y-12589048D01*
X22698333Y-12570000D01*
X22717381Y-12541428D01*
X22726905Y-12531905D01*
X22907857Y-12760476D02*
X22793571Y-12760476D01*
X22850714Y-12760476D02*
X22850714Y-12560476D01*
X22831667Y-12589048D01*
X22812619Y-12608095D01*
X22793571Y-12617619D01*
X22984048Y-12579524D02*
X22993571Y-12570000D01*
X23012619Y-12560476D01*
X23060238Y-12560476D01*
X23079286Y-12570000D01*
X23088809Y-12579524D01*
X23098333Y-12598571D01*
X23098333Y-12617619D01*
X23088809Y-12646190D01*
X22974524Y-12760476D01*
X23098333Y-12760476D01*
X23336428Y-12760476D02*
X23336428Y-12560476D01*
X23422143Y-12760476D02*
X23422143Y-12655714D01*
X23412619Y-12636667D01*
X23393571Y-12627143D01*
X23365000Y-12627143D01*
X23345952Y-12636667D01*
X23336428Y-12646190D01*
X23545952Y-12760476D02*
X23526905Y-12750952D01*
X23517381Y-12741428D01*
X23507857Y-12722381D01*
X23507857Y-12665238D01*
X23517381Y-12646190D01*
X23526905Y-12636667D01*
X23545952Y-12627143D01*
X23574524Y-12627143D01*
X23593571Y-12636667D01*
X23603095Y-12646190D01*
X23612619Y-12665238D01*
X23612619Y-12722381D01*
X23603095Y-12741428D01*
X23593571Y-12750952D01*
X23574524Y-12760476D01*
X23545952Y-12760476D01*
X23726905Y-12760476D02*
X23707857Y-12750952D01*
X23698333Y-12731905D01*
X23698333Y-12560476D01*
X23879286Y-12750952D02*
X23860238Y-12760476D01*
X23822143Y-12760476D01*
X23803095Y-12750952D01*
X23793571Y-12731905D01*
X23793571Y-12655714D01*
X23803095Y-12636667D01*
X23822143Y-12627143D01*
X23860238Y-12627143D01*
X23879286Y-12636667D01*
X23888809Y-12655714D01*
X23888809Y-12674762D01*
X23793571Y-12693809D01*
X23965000Y-12750952D02*
X23984048Y-12760476D01*
X24022143Y-12760476D01*
X24041190Y-12750952D01*
X24050714Y-12731905D01*
X24050714Y-12722381D01*
X24041190Y-12703333D01*
X24022143Y-12693809D01*
X23993571Y-12693809D01*
X23974524Y-12684286D01*
X23965000Y-12665238D01*
X23965000Y-12655714D01*
X23974524Y-12636667D01*
X23993571Y-12627143D01*
X24022143Y-12627143D01*
X24041190Y-12636667D01*
X24117381Y-12836667D02*
X24126905Y-12827143D01*
X24145952Y-12798571D01*
X24155476Y-12779524D01*
X24165000Y-12750952D01*
X24174524Y-12703333D01*
X24174524Y-12665238D01*
X24165000Y-12617619D01*
X24155476Y-12589048D01*
X24145952Y-12570000D01*
X24126905Y-12541428D01*
X24117381Y-12531905D01*
D12*
X19155000Y-12934000D02*
G75*
G03*
X19155000Y-12934000I-15000J0D01*
G01*
D10*
X19450714Y-12824476D02*
X19469762Y-12824476D01*
X19488810Y-12834000D01*
X19498333Y-12843524D01*
X19507857Y-12862571D01*
X19517381Y-12900667D01*
X19517381Y-12948286D01*
X19507857Y-12986381D01*
X19498333Y-13005428D01*
X19488810Y-13014952D01*
X19469762Y-13024476D01*
X19450714Y-13024476D01*
X19431667Y-13014952D01*
X19422143Y-13005428D01*
X19412619Y-12986381D01*
X19403095Y-12948286D01*
X19403095Y-12900667D01*
X19412619Y-12862571D01*
X19422143Y-12843524D01*
X19431667Y-12834000D01*
X19450714Y-12824476D01*
X19603095Y-13005428D02*
X19612619Y-13014952D01*
X19603095Y-13024476D01*
X19593571Y-13014952D01*
X19603095Y-13005428D01*
X19603095Y-13024476D01*
X19679286Y-12824476D02*
X19803095Y-12824476D01*
X19736429Y-12900667D01*
X19765000Y-12900667D01*
X19784048Y-12910190D01*
X19793571Y-12919714D01*
X19803095Y-12938762D01*
X19803095Y-12986381D01*
X19793571Y-13005428D01*
X19784048Y-13014952D01*
X19765000Y-13024476D01*
X19707857Y-13024476D01*
X19688810Y-13014952D01*
X19679286Y-13005428D01*
X19926905Y-12824476D02*
X19945952Y-12824476D01*
X19965000Y-12834000D01*
X19974524Y-12843524D01*
X19984048Y-12862571D01*
X19993571Y-12900667D01*
X19993571Y-12948286D01*
X19984048Y-12986381D01*
X19974524Y-13005428D01*
X19965000Y-13014952D01*
X19945952Y-13024476D01*
X19926905Y-13024476D01*
X19907857Y-13014952D01*
X19898333Y-13005428D01*
X19888810Y-12986381D01*
X19879286Y-12948286D01*
X19879286Y-12900667D01*
X19888810Y-12862571D01*
X19898333Y-12843524D01*
X19907857Y-12834000D01*
X19926905Y-12824476D01*
X20117381Y-12824476D02*
X20136429Y-12824476D01*
X20155476Y-12834000D01*
X20165000Y-12843524D01*
X20174524Y-12862571D01*
X20184048Y-12900667D01*
X20184048Y-12948286D01*
X20174524Y-12986381D01*
X20165000Y-13005428D01*
X20155476Y-13014952D01*
X20136429Y-13024476D01*
X20117381Y-13024476D01*
X20098333Y-13014952D01*
X20088810Y-13005428D01*
X20079286Y-12986381D01*
X20069762Y-12948286D01*
X20069762Y-12900667D01*
X20079286Y-12862571D01*
X20088810Y-12843524D01*
X20098333Y-12834000D01*
X20117381Y-12824476D01*
X20269762Y-13024476D02*
X20269762Y-12891143D01*
X20269762Y-12910190D02*
X20279286Y-12900667D01*
X20298333Y-12891143D01*
X20326905Y-12891143D01*
X20345952Y-12900667D01*
X20355476Y-12919714D01*
X20355476Y-13024476D01*
X20355476Y-12919714D02*
X20365000Y-12900667D01*
X20384048Y-12891143D01*
X20412619Y-12891143D01*
X20431667Y-12900667D01*
X20441190Y-12919714D01*
X20441190Y-13024476D01*
X20536429Y-13024476D02*
X20536429Y-12891143D01*
X20536429Y-12910190D02*
X20545952Y-12900667D01*
X20565000Y-12891143D01*
X20593571Y-12891143D01*
X20612619Y-12900667D01*
X20622143Y-12919714D01*
X20622143Y-13024476D01*
X20622143Y-12919714D02*
X20631667Y-12900667D01*
X20650714Y-12891143D01*
X20679286Y-12891143D01*
X20698333Y-12900667D01*
X20707857Y-12919714D01*
X20707857Y-13024476D01*
X21098333Y-12814952D02*
X20926905Y-13072095D01*
X21355476Y-12824476D02*
X21374524Y-12824476D01*
X21393571Y-12834000D01*
X21403095Y-12843524D01*
X21412619Y-12862571D01*
X21422143Y-12900667D01*
X21422143Y-12948286D01*
X21412619Y-12986381D01*
X21403095Y-13005428D01*
X21393571Y-13014952D01*
X21374524Y-13024476D01*
X21355476Y-13024476D01*
X21336429Y-13014952D01*
X21326905Y-13005428D01*
X21317381Y-12986381D01*
X21307857Y-12948286D01*
X21307857Y-12900667D01*
X21317381Y-12862571D01*
X21326905Y-12843524D01*
X21336429Y-12834000D01*
X21355476Y-12824476D01*
X21507857Y-13005428D02*
X21517381Y-13014952D01*
X21507857Y-13024476D01*
X21498333Y-13014952D01*
X21507857Y-13005428D01*
X21507857Y-13024476D01*
X21641190Y-12824476D02*
X21660238Y-12824476D01*
X21679286Y-12834000D01*
X21688810Y-12843524D01*
X21698333Y-12862571D01*
X21707857Y-12900667D01*
X21707857Y-12948286D01*
X21698333Y-12986381D01*
X21688810Y-13005428D01*
X21679286Y-13014952D01*
X21660238Y-13024476D01*
X21641190Y-13024476D01*
X21622143Y-13014952D01*
X21612619Y-13005428D01*
X21603095Y-12986381D01*
X21593571Y-12948286D01*
X21593571Y-12900667D01*
X21603095Y-12862571D01*
X21612619Y-12843524D01*
X21622143Y-12834000D01*
X21641190Y-12824476D01*
X21898333Y-13024476D02*
X21784048Y-13024476D01*
X21841190Y-13024476D02*
X21841190Y-12824476D01*
X21822143Y-12853048D01*
X21803095Y-12872095D01*
X21784048Y-12881619D01*
X22088810Y-13024476D02*
X21974524Y-13024476D01*
X22031667Y-13024476D02*
X22031667Y-12824476D01*
X22012619Y-12853048D01*
X21993571Y-12872095D01*
X21974524Y-12881619D01*
X22203095Y-12910190D02*
X22184048Y-12900667D01*
X22174524Y-12891143D01*
X22165000Y-12872095D01*
X22165000Y-12862571D01*
X22174524Y-12843524D01*
X22184048Y-12834000D01*
X22203095Y-12824476D01*
X22241190Y-12824476D01*
X22260238Y-12834000D01*
X22269762Y-12843524D01*
X22279286Y-12862571D01*
X22279286Y-12872095D01*
X22269762Y-12891143D01*
X22260238Y-12900667D01*
X22241190Y-12910190D01*
X22203095Y-12910190D01*
X22184048Y-12919714D01*
X22174524Y-12929238D01*
X22165000Y-12948286D01*
X22165000Y-12986381D01*
X22174524Y-13005428D01*
X22184048Y-13014952D01*
X22203095Y-13024476D01*
X22241190Y-13024476D01*
X22260238Y-13014952D01*
X22269762Y-13005428D01*
X22279286Y-12986381D01*
X22279286Y-12948286D01*
X22269762Y-12929238D01*
X22260238Y-12919714D01*
X22241190Y-12910190D01*
X22355476Y-12824476D02*
X22355476Y-12862571D01*
X22431667Y-12824476D02*
X22431667Y-12862571D01*
X22726905Y-13100667D02*
X22717381Y-13091143D01*
X22698333Y-13062571D01*
X22688809Y-13043524D01*
X22679286Y-13014952D01*
X22669762Y-12967333D01*
X22669762Y-12929238D01*
X22679286Y-12881619D01*
X22688809Y-12853048D01*
X22698333Y-12834000D01*
X22717381Y-12805428D01*
X22726905Y-12795905D01*
X22793571Y-12843524D02*
X22803095Y-12834000D01*
X22822143Y-12824476D01*
X22869762Y-12824476D01*
X22888809Y-12834000D01*
X22898333Y-12843524D01*
X22907857Y-12862571D01*
X22907857Y-12881619D01*
X22898333Y-12910190D01*
X22784048Y-13024476D01*
X22907857Y-13024476D01*
X23098333Y-13024476D02*
X22984048Y-13024476D01*
X23041190Y-13024476D02*
X23041190Y-12824476D01*
X23022143Y-12853048D01*
X23003095Y-12872095D01*
X22984048Y-12881619D01*
X23336428Y-13024476D02*
X23336428Y-12824476D01*
X23422143Y-13024476D02*
X23422143Y-12919714D01*
X23412619Y-12900667D01*
X23393571Y-12891143D01*
X23365000Y-12891143D01*
X23345952Y-12900667D01*
X23336428Y-12910190D01*
X23545952Y-13024476D02*
X23526905Y-13014952D01*
X23517381Y-13005428D01*
X23507857Y-12986381D01*
X23507857Y-12929238D01*
X23517381Y-12910190D01*
X23526905Y-12900667D01*
X23545952Y-12891143D01*
X23574524Y-12891143D01*
X23593571Y-12900667D01*
X23603095Y-12910190D01*
X23612619Y-12929238D01*
X23612619Y-12986381D01*
X23603095Y-13005428D01*
X23593571Y-13014952D01*
X23574524Y-13024476D01*
X23545952Y-13024476D01*
X23726905Y-13024476D02*
X23707857Y-13014952D01*
X23698333Y-12995905D01*
X23698333Y-12824476D01*
X23879286Y-13014952D02*
X23860238Y-13024476D01*
X23822143Y-13024476D01*
X23803095Y-13014952D01*
X23793571Y-12995905D01*
X23793571Y-12919714D01*
X23803095Y-12900667D01*
X23822143Y-12891143D01*
X23860238Y-12891143D01*
X23879286Y-12900667D01*
X23888809Y-12919714D01*
X23888809Y-12938762D01*
X23793571Y-12957809D01*
X23965000Y-13014952D02*
X23984048Y-13024476D01*
X24022143Y-13024476D01*
X24041190Y-13014952D01*
X24050714Y-12995905D01*
X24050714Y-12986381D01*
X24041190Y-12967333D01*
X24022143Y-12957809D01*
X23993571Y-12957809D01*
X23974524Y-12948286D01*
X23965000Y-12929238D01*
X23965000Y-12919714D01*
X23974524Y-12900667D01*
X23993571Y-12891143D01*
X24022143Y-12891143D01*
X24041190Y-12900667D01*
X24117381Y-13100667D02*
X24126905Y-13091143D01*
X24145952Y-13062571D01*
X24155476Y-13043524D01*
X24165000Y-13014952D01*
X24174524Y-12967333D01*
X24174524Y-12929238D01*
X24165000Y-12881619D01*
X24155476Y-12853048D01*
X24145952Y-12834000D01*
X24126905Y-12805428D01*
X24117381Y-12795905D01*
D13*
X19135000Y-13178000D02*
X19135000Y-13218000D01*
X19115000Y-13198000D02*
X19155000Y-13198000D01*
D10*
X19450714Y-13088476D02*
X19469762Y-13088476D01*
X19488810Y-13098000D01*
X19498333Y-13107524D01*
X19507857Y-13126571D01*
X19517381Y-13164667D01*
X19517381Y-13212286D01*
X19507857Y-13250381D01*
X19498333Y-13269428D01*
X19488810Y-13278952D01*
X19469762Y-13288476D01*
X19450714Y-13288476D01*
X19431667Y-13278952D01*
X19422143Y-13269428D01*
X19412619Y-13250381D01*
X19403095Y-13212286D01*
X19403095Y-13164667D01*
X19412619Y-13126571D01*
X19422143Y-13107524D01*
X19431667Y-13098000D01*
X19450714Y-13088476D01*
X19603095Y-13269428D02*
X19612619Y-13278952D01*
X19603095Y-13288476D01*
X19593571Y-13278952D01*
X19603095Y-13269428D01*
X19603095Y-13288476D01*
X19784048Y-13155143D02*
X19784048Y-13288476D01*
X19736429Y-13078952D02*
X19688810Y-13221809D01*
X19812619Y-13221809D01*
X19926905Y-13088476D02*
X19945952Y-13088476D01*
X19965000Y-13098000D01*
X19974524Y-13107524D01*
X19984048Y-13126571D01*
X19993571Y-13164667D01*
X19993571Y-13212286D01*
X19984048Y-13250381D01*
X19974524Y-13269428D01*
X19965000Y-13278952D01*
X19945952Y-13288476D01*
X19926905Y-13288476D01*
X19907857Y-13278952D01*
X19898333Y-13269428D01*
X19888810Y-13250381D01*
X19879286Y-13212286D01*
X19879286Y-13164667D01*
X19888810Y-13126571D01*
X19898333Y-13107524D01*
X19907857Y-13098000D01*
X19926905Y-13088476D01*
X20117381Y-13088476D02*
X20136429Y-13088476D01*
X20155476Y-13098000D01*
X20165000Y-13107524D01*
X20174524Y-13126571D01*
X20184048Y-13164667D01*
X20184048Y-13212286D01*
X20174524Y-13250381D01*
X20165000Y-13269428D01*
X20155476Y-13278952D01*
X20136429Y-13288476D01*
X20117381Y-13288476D01*
X20098333Y-13278952D01*
X20088810Y-13269428D01*
X20079286Y-13250381D01*
X20069762Y-13212286D01*
X20069762Y-13164667D01*
X20079286Y-13126571D01*
X20088810Y-13107524D01*
X20098333Y-13098000D01*
X20117381Y-13088476D01*
X20269762Y-13288476D02*
X20269762Y-13155143D01*
X20269762Y-13174190D02*
X20279286Y-13164667D01*
X20298333Y-13155143D01*
X20326905Y-13155143D01*
X20345952Y-13164667D01*
X20355476Y-13183714D01*
X20355476Y-13288476D01*
X20355476Y-13183714D02*
X20365000Y-13164667D01*
X20384048Y-13155143D01*
X20412619Y-13155143D01*
X20431667Y-13164667D01*
X20441190Y-13183714D01*
X20441190Y-13288476D01*
X20536429Y-13288476D02*
X20536429Y-13155143D01*
X20536429Y-13174190D02*
X20545952Y-13164667D01*
X20565000Y-13155143D01*
X20593571Y-13155143D01*
X20612619Y-13164667D01*
X20622143Y-13183714D01*
X20622143Y-13288476D01*
X20622143Y-13183714D02*
X20631667Y-13164667D01*
X20650714Y-13155143D01*
X20679286Y-13155143D01*
X20698333Y-13164667D01*
X20707857Y-13183714D01*
X20707857Y-13288476D01*
X21098333Y-13078952D02*
X20926905Y-13336095D01*
X21355476Y-13088476D02*
X21374524Y-13088476D01*
X21393571Y-13098000D01*
X21403095Y-13107524D01*
X21412619Y-13126571D01*
X21422143Y-13164667D01*
X21422143Y-13212286D01*
X21412619Y-13250381D01*
X21403095Y-13269428D01*
X21393571Y-13278952D01*
X21374524Y-13288476D01*
X21355476Y-13288476D01*
X21336429Y-13278952D01*
X21326905Y-13269428D01*
X21317381Y-13250381D01*
X21307857Y-13212286D01*
X21307857Y-13164667D01*
X21317381Y-13126571D01*
X21326905Y-13107524D01*
X21336429Y-13098000D01*
X21355476Y-13088476D01*
X21507857Y-13269428D02*
X21517381Y-13278952D01*
X21507857Y-13288476D01*
X21498333Y-13278952D01*
X21507857Y-13269428D01*
X21507857Y-13288476D01*
X21641190Y-13088476D02*
X21660238Y-13088476D01*
X21679286Y-13098000D01*
X21688810Y-13107524D01*
X21698333Y-13126571D01*
X21707857Y-13164667D01*
X21707857Y-13212286D01*
X21698333Y-13250381D01*
X21688810Y-13269428D01*
X21679286Y-13278952D01*
X21660238Y-13288476D01*
X21641190Y-13288476D01*
X21622143Y-13278952D01*
X21612619Y-13269428D01*
X21603095Y-13250381D01*
X21593571Y-13212286D01*
X21593571Y-13164667D01*
X21603095Y-13126571D01*
X21612619Y-13107524D01*
X21622143Y-13098000D01*
X21641190Y-13088476D01*
X21898333Y-13288476D02*
X21784048Y-13288476D01*
X21841190Y-13288476D02*
X21841190Y-13088476D01*
X21822143Y-13117048D01*
X21803095Y-13136095D01*
X21784048Y-13145619D01*
X22079286Y-13088476D02*
X21984048Y-13088476D01*
X21974524Y-13183714D01*
X21984048Y-13174190D01*
X22003095Y-13164667D01*
X22050714Y-13164667D01*
X22069762Y-13174190D01*
X22079286Y-13183714D01*
X22088810Y-13202762D01*
X22088810Y-13250381D01*
X22079286Y-13269428D01*
X22069762Y-13278952D01*
X22050714Y-13288476D01*
X22003095Y-13288476D01*
X21984048Y-13278952D01*
X21974524Y-13269428D01*
X22155476Y-13088476D02*
X22288810Y-13088476D01*
X22203095Y-13288476D01*
X22355476Y-13088476D02*
X22355476Y-13126571D01*
X22431667Y-13088476D02*
X22431667Y-13126571D01*
X22726905Y-13364667D02*
X22717381Y-13355143D01*
X22698333Y-13326571D01*
X22688809Y-13307524D01*
X22679286Y-13278952D01*
X22669762Y-13231333D01*
X22669762Y-13193238D01*
X22679286Y-13145619D01*
X22688809Y-13117048D01*
X22698333Y-13098000D01*
X22717381Y-13069428D01*
X22726905Y-13059905D01*
X22907857Y-13288476D02*
X22793571Y-13288476D01*
X22850714Y-13288476D02*
X22850714Y-13088476D01*
X22831667Y-13117048D01*
X22812619Y-13136095D01*
X22793571Y-13145619D01*
X23031667Y-13088476D02*
X23050714Y-13088476D01*
X23069762Y-13098000D01*
X23079286Y-13107524D01*
X23088809Y-13126571D01*
X23098333Y-13164667D01*
X23098333Y-13212286D01*
X23088809Y-13250381D01*
X23079286Y-13269428D01*
X23069762Y-13278952D01*
X23050714Y-13288476D01*
X23031667Y-13288476D01*
X23012619Y-13278952D01*
X23003095Y-13269428D01*
X22993571Y-13250381D01*
X22984048Y-13212286D01*
X22984048Y-13164667D01*
X22993571Y-13126571D01*
X23003095Y-13107524D01*
X23012619Y-13098000D01*
X23031667Y-13088476D01*
X23212619Y-13174190D02*
X23193571Y-13164667D01*
X23184048Y-13155143D01*
X23174524Y-13136095D01*
X23174524Y-13126571D01*
X23184048Y-13107524D01*
X23193571Y-13098000D01*
X23212619Y-13088476D01*
X23250714Y-13088476D01*
X23269762Y-13098000D01*
X23279286Y-13107524D01*
X23288809Y-13126571D01*
X23288809Y-13136095D01*
X23279286Y-13155143D01*
X23269762Y-13164667D01*
X23250714Y-13174190D01*
X23212619Y-13174190D01*
X23193571Y-13183714D01*
X23184048Y-13193238D01*
X23174524Y-13212286D01*
X23174524Y-13250381D01*
X23184048Y-13269428D01*
X23193571Y-13278952D01*
X23212619Y-13288476D01*
X23250714Y-13288476D01*
X23269762Y-13278952D01*
X23279286Y-13269428D01*
X23288809Y-13250381D01*
X23288809Y-13212286D01*
X23279286Y-13193238D01*
X23269762Y-13183714D01*
X23250714Y-13174190D01*
X23526905Y-13288476D02*
X23526905Y-13088476D01*
X23612619Y-13288476D02*
X23612619Y-13183714D01*
X23603095Y-13164667D01*
X23584048Y-13155143D01*
X23555476Y-13155143D01*
X23536428Y-13164667D01*
X23526905Y-13174190D01*
X23736428Y-13288476D02*
X23717381Y-13278952D01*
X23707857Y-13269428D01*
X23698333Y-13250381D01*
X23698333Y-13193238D01*
X23707857Y-13174190D01*
X23717381Y-13164667D01*
X23736428Y-13155143D01*
X23765000Y-13155143D01*
X23784048Y-13164667D01*
X23793571Y-13174190D01*
X23803095Y-13193238D01*
X23803095Y-13250381D01*
X23793571Y-13269428D01*
X23784048Y-13278952D01*
X23765000Y-13288476D01*
X23736428Y-13288476D01*
X23917381Y-13288476D02*
X23898333Y-13278952D01*
X23888809Y-13259905D01*
X23888809Y-13088476D01*
X24069762Y-13278952D02*
X24050714Y-13288476D01*
X24012619Y-13288476D01*
X23993571Y-13278952D01*
X23984048Y-13259905D01*
X23984048Y-13183714D01*
X23993571Y-13164667D01*
X24012619Y-13155143D01*
X24050714Y-13155143D01*
X24069762Y-13164667D01*
X24079286Y-13183714D01*
X24079286Y-13202762D01*
X23984048Y-13221809D01*
X24155476Y-13278952D02*
X24174524Y-13288476D01*
X24212619Y-13288476D01*
X24231667Y-13278952D01*
X24241190Y-13259905D01*
X24241190Y-13250381D01*
X24231667Y-13231333D01*
X24212619Y-13221809D01*
X24184048Y-13221809D01*
X24165000Y-13212286D01*
X24155476Y-13193238D01*
X24155476Y-13183714D01*
X24165000Y-13164667D01*
X24184048Y-13155143D01*
X24212619Y-13155143D01*
X24231667Y-13164667D01*
X24307857Y-13364667D02*
X24317381Y-13355143D01*
X24336428Y-13326571D01*
X24345952Y-13307524D01*
X24355476Y-13278952D01*
X24365000Y-13231333D01*
X24365000Y-13193238D01*
X24355476Y-13145619D01*
X24345952Y-13117048D01*
X24336428Y-13098000D01*
X24317381Y-13069428D01*
X24307857Y-13059905D01*
D13*
X19149142Y-13476142D02*
X19149142Y-13447858D01*
X19120858Y-13447858D01*
X19120858Y-13476142D01*
X19149142Y-13476142D01*
D10*
X19450714Y-13352476D02*
X19469762Y-13352476D01*
X19488810Y-13362000D01*
X19498333Y-13371524D01*
X19507857Y-13390571D01*
X19517381Y-13428667D01*
X19517381Y-13476286D01*
X19507857Y-13514381D01*
X19498333Y-13533428D01*
X19488810Y-13542952D01*
X19469762Y-13552476D01*
X19450714Y-13552476D01*
X19431667Y-13542952D01*
X19422143Y-13533428D01*
X19412619Y-13514381D01*
X19403095Y-13476286D01*
X19403095Y-13428667D01*
X19412619Y-13390571D01*
X19422143Y-13371524D01*
X19431667Y-13362000D01*
X19450714Y-13352476D01*
X19603095Y-13533428D02*
X19612619Y-13542952D01*
X19603095Y-13552476D01*
X19593571Y-13542952D01*
X19603095Y-13533428D01*
X19603095Y-13552476D01*
X19784048Y-13419143D02*
X19784048Y-13552476D01*
X19736429Y-13342952D02*
X19688810Y-13485809D01*
X19812619Y-13485809D01*
X19926905Y-13352476D02*
X19945952Y-13352476D01*
X19965000Y-13362000D01*
X19974524Y-13371524D01*
X19984048Y-13390571D01*
X19993571Y-13428667D01*
X19993571Y-13476286D01*
X19984048Y-13514381D01*
X19974524Y-13533428D01*
X19965000Y-13542952D01*
X19945952Y-13552476D01*
X19926905Y-13552476D01*
X19907857Y-13542952D01*
X19898333Y-13533428D01*
X19888810Y-13514381D01*
X19879286Y-13476286D01*
X19879286Y-13428667D01*
X19888810Y-13390571D01*
X19898333Y-13371524D01*
X19907857Y-13362000D01*
X19926905Y-13352476D01*
X20117381Y-13352476D02*
X20136429Y-13352476D01*
X20155476Y-13362000D01*
X20165000Y-13371524D01*
X20174524Y-13390571D01*
X20184048Y-13428667D01*
X20184048Y-13476286D01*
X20174524Y-13514381D01*
X20165000Y-13533428D01*
X20155476Y-13542952D01*
X20136429Y-13552476D01*
X20117381Y-13552476D01*
X20098333Y-13542952D01*
X20088810Y-13533428D01*
X20079286Y-13514381D01*
X20069762Y-13476286D01*
X20069762Y-13428667D01*
X20079286Y-13390571D01*
X20088810Y-13371524D01*
X20098333Y-13362000D01*
X20117381Y-13352476D01*
X20269762Y-13552476D02*
X20269762Y-13419143D01*
X20269762Y-13438190D02*
X20279286Y-13428667D01*
X20298333Y-13419143D01*
X20326905Y-13419143D01*
X20345952Y-13428667D01*
X20355476Y-13447714D01*
X20355476Y-13552476D01*
X20355476Y-13447714D02*
X20365000Y-13428667D01*
X20384048Y-13419143D01*
X20412619Y-13419143D01*
X20431667Y-13428667D01*
X20441190Y-13447714D01*
X20441190Y-13552476D01*
X20536429Y-13552476D02*
X20536429Y-13419143D01*
X20536429Y-13438190D02*
X20545952Y-13428667D01*
X20565000Y-13419143D01*
X20593571Y-13419143D01*
X20612619Y-13428667D01*
X20622143Y-13447714D01*
X20622143Y-13552476D01*
X20622143Y-13447714D02*
X20631667Y-13428667D01*
X20650714Y-13419143D01*
X20679286Y-13419143D01*
X20698333Y-13428667D01*
X20707857Y-13447714D01*
X20707857Y-13552476D01*
X21098333Y-13342952D02*
X20926905Y-13600095D01*
X21355476Y-13352476D02*
X21374524Y-13352476D01*
X21393571Y-13362000D01*
X21403095Y-13371524D01*
X21412619Y-13390571D01*
X21422143Y-13428667D01*
X21422143Y-13476286D01*
X21412619Y-13514381D01*
X21403095Y-13533428D01*
X21393571Y-13542952D01*
X21374524Y-13552476D01*
X21355476Y-13552476D01*
X21336429Y-13542952D01*
X21326905Y-13533428D01*
X21317381Y-13514381D01*
X21307857Y-13476286D01*
X21307857Y-13428667D01*
X21317381Y-13390571D01*
X21326905Y-13371524D01*
X21336429Y-13362000D01*
X21355476Y-13352476D01*
X21507857Y-13533428D02*
X21517381Y-13542952D01*
X21507857Y-13552476D01*
X21498333Y-13542952D01*
X21507857Y-13533428D01*
X21507857Y-13552476D01*
X21641190Y-13352476D02*
X21660238Y-13352476D01*
X21679286Y-13362000D01*
X21688810Y-13371524D01*
X21698333Y-13390571D01*
X21707857Y-13428667D01*
X21707857Y-13476286D01*
X21698333Y-13514381D01*
X21688810Y-13533428D01*
X21679286Y-13542952D01*
X21660238Y-13552476D01*
X21641190Y-13552476D01*
X21622143Y-13542952D01*
X21612619Y-13533428D01*
X21603095Y-13514381D01*
X21593571Y-13476286D01*
X21593571Y-13428667D01*
X21603095Y-13390571D01*
X21612619Y-13371524D01*
X21622143Y-13362000D01*
X21641190Y-13352476D01*
X21898333Y-13552476D02*
X21784048Y-13552476D01*
X21841190Y-13552476D02*
X21841190Y-13352476D01*
X21822143Y-13381048D01*
X21803095Y-13400095D01*
X21784048Y-13409619D01*
X22079286Y-13352476D02*
X21984048Y-13352476D01*
X21974524Y-13447714D01*
X21984048Y-13438190D01*
X22003095Y-13428667D01*
X22050714Y-13428667D01*
X22069762Y-13438190D01*
X22079286Y-13447714D01*
X22088810Y-13466762D01*
X22088810Y-13514381D01*
X22079286Y-13533428D01*
X22069762Y-13542952D01*
X22050714Y-13552476D01*
X22003095Y-13552476D01*
X21984048Y-13542952D01*
X21974524Y-13533428D01*
X22155476Y-13352476D02*
X22288810Y-13352476D01*
X22203095Y-13552476D01*
X22355476Y-13352476D02*
X22355476Y-13390571D01*
X22431667Y-13352476D02*
X22431667Y-13390571D01*
X22726905Y-13628667D02*
X22717381Y-13619143D01*
X22698333Y-13590571D01*
X22688809Y-13571524D01*
X22679286Y-13542952D01*
X22669762Y-13495333D01*
X22669762Y-13457238D01*
X22679286Y-13409619D01*
X22688809Y-13381048D01*
X22698333Y-13362000D01*
X22717381Y-13333428D01*
X22726905Y-13323905D01*
X22793571Y-13371524D02*
X22803095Y-13362000D01*
X22822143Y-13352476D01*
X22869762Y-13352476D01*
X22888809Y-13362000D01*
X22898333Y-13371524D01*
X22907857Y-13390571D01*
X22907857Y-13409619D01*
X22898333Y-13438190D01*
X22784048Y-13552476D01*
X22907857Y-13552476D01*
X23079286Y-13419143D02*
X23079286Y-13552476D01*
X23031667Y-13342952D02*
X22984048Y-13485809D01*
X23107857Y-13485809D01*
X23336428Y-13552476D02*
X23336428Y-13352476D01*
X23422143Y-13552476D02*
X23422143Y-13447714D01*
X23412619Y-13428667D01*
X23393571Y-13419143D01*
X23365000Y-13419143D01*
X23345952Y-13428667D01*
X23336428Y-13438190D01*
X23545952Y-13552476D02*
X23526905Y-13542952D01*
X23517381Y-13533428D01*
X23507857Y-13514381D01*
X23507857Y-13457238D01*
X23517381Y-13438190D01*
X23526905Y-13428667D01*
X23545952Y-13419143D01*
X23574524Y-13419143D01*
X23593571Y-13428667D01*
X23603095Y-13438190D01*
X23612619Y-13457238D01*
X23612619Y-13514381D01*
X23603095Y-13533428D01*
X23593571Y-13542952D01*
X23574524Y-13552476D01*
X23545952Y-13552476D01*
X23726905Y-13552476D02*
X23707857Y-13542952D01*
X23698333Y-13523905D01*
X23698333Y-13352476D01*
X23879286Y-13542952D02*
X23860238Y-13552476D01*
X23822143Y-13552476D01*
X23803095Y-13542952D01*
X23793571Y-13523905D01*
X23793571Y-13447714D01*
X23803095Y-13428667D01*
X23822143Y-13419143D01*
X23860238Y-13419143D01*
X23879286Y-13428667D01*
X23888809Y-13447714D01*
X23888809Y-13466762D01*
X23793571Y-13485809D01*
X23965000Y-13542952D02*
X23984048Y-13552476D01*
X24022143Y-13552476D01*
X24041190Y-13542952D01*
X24050714Y-13523905D01*
X24050714Y-13514381D01*
X24041190Y-13495333D01*
X24022143Y-13485809D01*
X23993571Y-13485809D01*
X23974524Y-13476286D01*
X23965000Y-13457238D01*
X23965000Y-13447714D01*
X23974524Y-13428667D01*
X23993571Y-13419143D01*
X24022143Y-13419143D01*
X24041190Y-13428667D01*
X24117381Y-13628667D02*
X24126905Y-13619143D01*
X24145952Y-13590571D01*
X24155476Y-13571524D01*
X24165000Y-13542952D01*
X24174524Y-13495333D01*
X24174524Y-13457238D01*
X24165000Y-13409619D01*
X24155476Y-13381048D01*
X24145952Y-13362000D01*
X24126905Y-13333428D01*
X24117381Y-13323905D01*
D14*
X19125000Y-13756000D02*
X19155000Y-13726000D01*
X19125000Y-13696000D01*
X19095000Y-13726000D01*
X19125000Y-13756000D01*
D10*
X19450714Y-13616476D02*
X19469762Y-13616476D01*
X19488810Y-13626000D01*
X19498333Y-13635524D01*
X19507857Y-13654571D01*
X19517381Y-13692667D01*
X19517381Y-13740286D01*
X19507857Y-13778381D01*
X19498333Y-13797428D01*
X19488810Y-13806952D01*
X19469762Y-13816476D01*
X19450714Y-13816476D01*
X19431667Y-13806952D01*
X19422143Y-13797428D01*
X19412619Y-13778381D01*
X19403095Y-13740286D01*
X19403095Y-13692667D01*
X19412619Y-13654571D01*
X19422143Y-13635524D01*
X19431667Y-13626000D01*
X19450714Y-13616476D01*
X19603095Y-13797428D02*
X19612619Y-13806952D01*
X19603095Y-13816476D01*
X19593571Y-13806952D01*
X19603095Y-13797428D01*
X19603095Y-13816476D01*
X19784048Y-13616476D02*
X19745952Y-13616476D01*
X19726905Y-13626000D01*
X19717381Y-13635524D01*
X19698333Y-13664095D01*
X19688810Y-13702190D01*
X19688810Y-13778381D01*
X19698333Y-13797428D01*
X19707857Y-13806952D01*
X19726905Y-13816476D01*
X19765000Y-13816476D01*
X19784048Y-13806952D01*
X19793571Y-13797428D01*
X19803095Y-13778381D01*
X19803095Y-13730762D01*
X19793571Y-13711714D01*
X19784048Y-13702190D01*
X19765000Y-13692667D01*
X19726905Y-13692667D01*
X19707857Y-13702190D01*
X19698333Y-13711714D01*
X19688810Y-13730762D01*
X19926905Y-13616476D02*
X19945952Y-13616476D01*
X19965000Y-13626000D01*
X19974524Y-13635524D01*
X19984048Y-13654571D01*
X19993571Y-13692667D01*
X19993571Y-13740286D01*
X19984048Y-13778381D01*
X19974524Y-13797428D01*
X19965000Y-13806952D01*
X19945952Y-13816476D01*
X19926905Y-13816476D01*
X19907857Y-13806952D01*
X19898333Y-13797428D01*
X19888810Y-13778381D01*
X19879286Y-13740286D01*
X19879286Y-13692667D01*
X19888810Y-13654571D01*
X19898333Y-13635524D01*
X19907857Y-13626000D01*
X19926905Y-13616476D01*
X20117381Y-13616476D02*
X20136429Y-13616476D01*
X20155476Y-13626000D01*
X20165000Y-13635524D01*
X20174524Y-13654571D01*
X20184048Y-13692667D01*
X20184048Y-13740286D01*
X20174524Y-13778381D01*
X20165000Y-13797428D01*
X20155476Y-13806952D01*
X20136429Y-13816476D01*
X20117381Y-13816476D01*
X20098333Y-13806952D01*
X20088810Y-13797428D01*
X20079286Y-13778381D01*
X20069762Y-13740286D01*
X20069762Y-13692667D01*
X20079286Y-13654571D01*
X20088810Y-13635524D01*
X20098333Y-13626000D01*
X20117381Y-13616476D01*
X20269762Y-13816476D02*
X20269762Y-13683143D01*
X20269762Y-13702190D02*
X20279286Y-13692667D01*
X20298333Y-13683143D01*
X20326905Y-13683143D01*
X20345952Y-13692667D01*
X20355476Y-13711714D01*
X20355476Y-13816476D01*
X20355476Y-13711714D02*
X20365000Y-13692667D01*
X20384048Y-13683143D01*
X20412619Y-13683143D01*
X20431667Y-13692667D01*
X20441190Y-13711714D01*
X20441190Y-13816476D01*
X20536429Y-13816476D02*
X20536429Y-13683143D01*
X20536429Y-13702190D02*
X20545952Y-13692667D01*
X20565000Y-13683143D01*
X20593571Y-13683143D01*
X20612619Y-13692667D01*
X20622143Y-13711714D01*
X20622143Y-13816476D01*
X20622143Y-13711714D02*
X20631667Y-13692667D01*
X20650714Y-13683143D01*
X20679286Y-13683143D01*
X20698333Y-13692667D01*
X20707857Y-13711714D01*
X20707857Y-13816476D01*
X21098333Y-13606952D02*
X20926905Y-13864095D01*
X21355476Y-13616476D02*
X21374524Y-13616476D01*
X21393571Y-13626000D01*
X21403095Y-13635524D01*
X21412619Y-13654571D01*
X21422143Y-13692667D01*
X21422143Y-13740286D01*
X21412619Y-13778381D01*
X21403095Y-13797428D01*
X21393571Y-13806952D01*
X21374524Y-13816476D01*
X21355476Y-13816476D01*
X21336429Y-13806952D01*
X21326905Y-13797428D01*
X21317381Y-13778381D01*
X21307857Y-13740286D01*
X21307857Y-13692667D01*
X21317381Y-13654571D01*
X21326905Y-13635524D01*
X21336429Y-13626000D01*
X21355476Y-13616476D01*
X21507857Y-13797428D02*
X21517381Y-13806952D01*
X21507857Y-13816476D01*
X21498333Y-13806952D01*
X21507857Y-13797428D01*
X21507857Y-13816476D01*
X21641190Y-13616476D02*
X21660238Y-13616476D01*
X21679286Y-13626000D01*
X21688810Y-13635524D01*
X21698333Y-13654571D01*
X21707857Y-13692667D01*
X21707857Y-13740286D01*
X21698333Y-13778381D01*
X21688810Y-13797428D01*
X21679286Y-13806952D01*
X21660238Y-13816476D01*
X21641190Y-13816476D01*
X21622143Y-13806952D01*
X21612619Y-13797428D01*
X21603095Y-13778381D01*
X21593571Y-13740286D01*
X21593571Y-13692667D01*
X21603095Y-13654571D01*
X21612619Y-13635524D01*
X21622143Y-13626000D01*
X21641190Y-13616476D01*
X21784048Y-13635524D02*
X21793571Y-13626000D01*
X21812619Y-13616476D01*
X21860238Y-13616476D01*
X21879286Y-13626000D01*
X21888810Y-13635524D01*
X21898333Y-13654571D01*
X21898333Y-13673619D01*
X21888810Y-13702190D01*
X21774524Y-13816476D01*
X21898333Y-13816476D01*
X21965000Y-13616476D02*
X22088810Y-13616476D01*
X22022143Y-13692667D01*
X22050714Y-13692667D01*
X22069762Y-13702190D01*
X22079286Y-13711714D01*
X22088810Y-13730762D01*
X22088810Y-13778381D01*
X22079286Y-13797428D01*
X22069762Y-13806952D01*
X22050714Y-13816476D01*
X21993571Y-13816476D01*
X21974524Y-13806952D01*
X21965000Y-13797428D01*
X22260238Y-13616476D02*
X22222143Y-13616476D01*
X22203095Y-13626000D01*
X22193571Y-13635524D01*
X22174524Y-13664095D01*
X22165000Y-13702190D01*
X22165000Y-13778381D01*
X22174524Y-13797428D01*
X22184048Y-13806952D01*
X22203095Y-13816476D01*
X22241190Y-13816476D01*
X22260238Y-13806952D01*
X22269762Y-13797428D01*
X22279286Y-13778381D01*
X22279286Y-13730762D01*
X22269762Y-13711714D01*
X22260238Y-13702190D01*
X22241190Y-13692667D01*
X22203095Y-13692667D01*
X22184048Y-13702190D01*
X22174524Y-13711714D01*
X22165000Y-13730762D01*
X22355476Y-13616476D02*
X22355476Y-13654571D01*
X22431667Y-13616476D02*
X22431667Y-13654571D01*
X22726905Y-13892667D02*
X22717381Y-13883143D01*
X22698333Y-13854571D01*
X22688809Y-13835524D01*
X22679286Y-13806952D01*
X22669762Y-13759333D01*
X22669762Y-13721238D01*
X22679286Y-13673619D01*
X22688809Y-13645048D01*
X22698333Y-13626000D01*
X22717381Y-13597428D01*
X22726905Y-13587905D01*
X22888809Y-13683143D02*
X22888809Y-13816476D01*
X22841190Y-13606952D02*
X22793571Y-13749809D01*
X22917381Y-13749809D01*
X23145952Y-13816476D02*
X23145952Y-13616476D01*
X23231667Y-13816476D02*
X23231667Y-13711714D01*
X23222143Y-13692667D01*
X23203095Y-13683143D01*
X23174524Y-13683143D01*
X23155476Y-13692667D01*
X23145952Y-13702190D01*
X23355476Y-13816476D02*
X23336428Y-13806952D01*
X23326905Y-13797428D01*
X23317381Y-13778381D01*
X23317381Y-13721238D01*
X23326905Y-13702190D01*
X23336428Y-13692667D01*
X23355476Y-13683143D01*
X23384048Y-13683143D01*
X23403095Y-13692667D01*
X23412619Y-13702190D01*
X23422143Y-13721238D01*
X23422143Y-13778381D01*
X23412619Y-13797428D01*
X23403095Y-13806952D01*
X23384048Y-13816476D01*
X23355476Y-13816476D01*
X23536428Y-13816476D02*
X23517381Y-13806952D01*
X23507857Y-13787905D01*
X23507857Y-13616476D01*
X23688809Y-13806952D02*
X23669762Y-13816476D01*
X23631667Y-13816476D01*
X23612619Y-13806952D01*
X23603095Y-13787905D01*
X23603095Y-13711714D01*
X23612619Y-13692667D01*
X23631667Y-13683143D01*
X23669762Y-13683143D01*
X23688809Y-13692667D01*
X23698333Y-13711714D01*
X23698333Y-13730762D01*
X23603095Y-13749809D01*
X23774524Y-13806952D02*
X23793571Y-13816476D01*
X23831667Y-13816476D01*
X23850714Y-13806952D01*
X23860238Y-13787905D01*
X23860238Y-13778381D01*
X23850714Y-13759333D01*
X23831667Y-13749809D01*
X23803095Y-13749809D01*
X23784048Y-13740286D01*
X23774524Y-13721238D01*
X23774524Y-13711714D01*
X23784048Y-13692667D01*
X23803095Y-13683143D01*
X23831667Y-13683143D01*
X23850714Y-13692667D01*
X23926905Y-13892667D02*
X23936428Y-13883143D01*
X23955476Y-13854571D01*
X23965000Y-13835524D01*
X23974524Y-13806952D01*
X23984048Y-13759333D01*
X23984048Y-13721238D01*
X23974524Y-13673619D01*
X23965000Y-13645048D01*
X23955476Y-13626000D01*
X23936428Y-13597428D01*
X23926905Y-13587905D01*
D15*
X19065000Y-13945000D02*
X19155000Y-14035000D01*
X19155000Y-13945000D02*
X19065000Y-14035000D01*
X19155000Y-13990000D02*
G75*
G03*
X19155000Y-13990000I-45000J0D01*
G01*
D10*
X19450714Y-13880476D02*
X19469762Y-13880476D01*
X19488810Y-13890000D01*
X19498333Y-13899524D01*
X19507857Y-13918571D01*
X19517381Y-13956667D01*
X19517381Y-14004286D01*
X19507857Y-14042381D01*
X19498333Y-14061428D01*
X19488810Y-14070952D01*
X19469762Y-14080476D01*
X19450714Y-14080476D01*
X19431667Y-14070952D01*
X19422143Y-14061428D01*
X19412619Y-14042381D01*
X19403095Y-14004286D01*
X19403095Y-13956667D01*
X19412619Y-13918571D01*
X19422143Y-13899524D01*
X19431667Y-13890000D01*
X19450714Y-13880476D01*
X19603095Y-14061428D02*
X19612619Y-14070952D01*
X19603095Y-14080476D01*
X19593571Y-14070952D01*
X19603095Y-14061428D01*
X19603095Y-14080476D01*
X19707857Y-14080476D02*
X19745952Y-14080476D01*
X19765000Y-14070952D01*
X19774524Y-14061428D01*
X19793571Y-14032857D01*
X19803095Y-13994762D01*
X19803095Y-13918571D01*
X19793571Y-13899524D01*
X19784048Y-13890000D01*
X19765000Y-13880476D01*
X19726905Y-13880476D01*
X19707857Y-13890000D01*
X19698333Y-13899524D01*
X19688810Y-13918571D01*
X19688810Y-13966190D01*
X19698333Y-13985238D01*
X19707857Y-13994762D01*
X19726905Y-14004286D01*
X19765000Y-14004286D01*
X19784048Y-13994762D01*
X19793571Y-13985238D01*
X19803095Y-13966190D01*
X19926905Y-13880476D02*
X19945952Y-13880476D01*
X19965000Y-13890000D01*
X19974524Y-13899524D01*
X19984048Y-13918571D01*
X19993571Y-13956667D01*
X19993571Y-14004286D01*
X19984048Y-14042381D01*
X19974524Y-14061428D01*
X19965000Y-14070952D01*
X19945952Y-14080476D01*
X19926905Y-14080476D01*
X19907857Y-14070952D01*
X19898333Y-14061428D01*
X19888810Y-14042381D01*
X19879286Y-14004286D01*
X19879286Y-13956667D01*
X19888810Y-13918571D01*
X19898333Y-13899524D01*
X19907857Y-13890000D01*
X19926905Y-13880476D01*
X20117381Y-13880476D02*
X20136429Y-13880476D01*
X20155476Y-13890000D01*
X20165000Y-13899524D01*
X20174524Y-13918571D01*
X20184048Y-13956667D01*
X20184048Y-14004286D01*
X20174524Y-14042381D01*
X20165000Y-14061428D01*
X20155476Y-14070952D01*
X20136429Y-14080476D01*
X20117381Y-14080476D01*
X20098333Y-14070952D01*
X20088810Y-14061428D01*
X20079286Y-14042381D01*
X20069762Y-14004286D01*
X20069762Y-13956667D01*
X20079286Y-13918571D01*
X20088810Y-13899524D01*
X20098333Y-13890000D01*
X20117381Y-13880476D01*
X20269762Y-14080476D02*
X20269762Y-13947143D01*
X20269762Y-13966190D02*
X20279286Y-13956667D01*
X20298333Y-13947143D01*
X20326905Y-13947143D01*
X20345952Y-13956667D01*
X20355476Y-13975714D01*
X20355476Y-14080476D01*
X20355476Y-13975714D02*
X20365000Y-13956667D01*
X20384048Y-13947143D01*
X20412619Y-13947143D01*
X20431667Y-13956667D01*
X20441190Y-13975714D01*
X20441190Y-14080476D01*
X20536429Y-14080476D02*
X20536429Y-13947143D01*
X20536429Y-13966190D02*
X20545952Y-13956667D01*
X20565000Y-13947143D01*
X20593571Y-13947143D01*
X20612619Y-13956667D01*
X20622143Y-13975714D01*
X20622143Y-14080476D01*
X20622143Y-13975714D02*
X20631667Y-13956667D01*
X20650714Y-13947143D01*
X20679286Y-13947143D01*
X20698333Y-13956667D01*
X20707857Y-13975714D01*
X20707857Y-14080476D01*
X21098333Y-13870952D02*
X20926905Y-14128095D01*
X21355476Y-13880476D02*
X21374524Y-13880476D01*
X21393571Y-13890000D01*
X21403095Y-13899524D01*
X21412619Y-13918571D01*
X21422143Y-13956667D01*
X21422143Y-14004286D01*
X21412619Y-14042381D01*
X21403095Y-14061428D01*
X21393571Y-14070952D01*
X21374524Y-14080476D01*
X21355476Y-14080476D01*
X21336429Y-14070952D01*
X21326905Y-14061428D01*
X21317381Y-14042381D01*
X21307857Y-14004286D01*
X21307857Y-13956667D01*
X21317381Y-13918571D01*
X21326905Y-13899524D01*
X21336429Y-13890000D01*
X21355476Y-13880476D01*
X21507857Y-14061428D02*
X21517381Y-14070952D01*
X21507857Y-14080476D01*
X21498333Y-14070952D01*
X21507857Y-14061428D01*
X21507857Y-14080476D01*
X21641190Y-13880476D02*
X21660238Y-13880476D01*
X21679286Y-13890000D01*
X21688810Y-13899524D01*
X21698333Y-13918571D01*
X21707857Y-13956667D01*
X21707857Y-14004286D01*
X21698333Y-14042381D01*
X21688810Y-14061428D01*
X21679286Y-14070952D01*
X21660238Y-14080476D01*
X21641190Y-14080476D01*
X21622143Y-14070952D01*
X21612619Y-14061428D01*
X21603095Y-14042381D01*
X21593571Y-14004286D01*
X21593571Y-13956667D01*
X21603095Y-13918571D01*
X21612619Y-13899524D01*
X21622143Y-13890000D01*
X21641190Y-13880476D01*
X21774524Y-13880476D02*
X21898333Y-13880476D01*
X21831667Y-13956667D01*
X21860238Y-13956667D01*
X21879286Y-13966190D01*
X21888810Y-13975714D01*
X21898333Y-13994762D01*
X21898333Y-14042381D01*
X21888810Y-14061428D01*
X21879286Y-14070952D01*
X21860238Y-14080476D01*
X21803095Y-14080476D01*
X21784048Y-14070952D01*
X21774524Y-14061428D01*
X22079286Y-13880476D02*
X21984048Y-13880476D01*
X21974524Y-13975714D01*
X21984048Y-13966190D01*
X22003095Y-13956667D01*
X22050714Y-13956667D01*
X22069762Y-13966190D01*
X22079286Y-13975714D01*
X22088810Y-13994762D01*
X22088810Y-14042381D01*
X22079286Y-14061428D01*
X22069762Y-14070952D01*
X22050714Y-14080476D01*
X22003095Y-14080476D01*
X21984048Y-14070952D01*
X21974524Y-14061428D01*
X22260238Y-13947143D02*
X22260238Y-14080476D01*
X22212619Y-13870952D02*
X22165000Y-14013809D01*
X22288810Y-14013809D01*
X22355476Y-13880476D02*
X22355476Y-13918571D01*
X22431667Y-13880476D02*
X22431667Y-13918571D01*
X22726905Y-14156667D02*
X22717381Y-14147143D01*
X22698333Y-14118571D01*
X22688809Y-14099524D01*
X22679286Y-14070952D01*
X22669762Y-14023333D01*
X22669762Y-13985238D01*
X22679286Y-13937619D01*
X22688809Y-13909048D01*
X22698333Y-13890000D01*
X22717381Y-13861428D01*
X22726905Y-13851905D01*
X22888809Y-13947143D02*
X22888809Y-14080476D01*
X22841190Y-13870952D02*
X22793571Y-14013809D01*
X22917381Y-14013809D01*
X23145952Y-14080476D02*
X23145952Y-13880476D01*
X23231667Y-14080476D02*
X23231667Y-13975714D01*
X23222143Y-13956667D01*
X23203095Y-13947143D01*
X23174524Y-13947143D01*
X23155476Y-13956667D01*
X23145952Y-13966190D01*
X23355476Y-14080476D02*
X23336428Y-14070952D01*
X23326905Y-14061428D01*
X23317381Y-14042381D01*
X23317381Y-13985238D01*
X23326905Y-13966190D01*
X23336428Y-13956667D01*
X23355476Y-13947143D01*
X23384048Y-13947143D01*
X23403095Y-13956667D01*
X23412619Y-13966190D01*
X23422143Y-13985238D01*
X23422143Y-14042381D01*
X23412619Y-14061428D01*
X23403095Y-14070952D01*
X23384048Y-14080476D01*
X23355476Y-14080476D01*
X23536428Y-14080476D02*
X23517381Y-14070952D01*
X23507857Y-14051905D01*
X23507857Y-13880476D01*
X23688809Y-14070952D02*
X23669762Y-14080476D01*
X23631667Y-14080476D01*
X23612619Y-14070952D01*
X23603095Y-14051905D01*
X23603095Y-13975714D01*
X23612619Y-13956667D01*
X23631667Y-13947143D01*
X23669762Y-13947143D01*
X23688809Y-13956667D01*
X23698333Y-13975714D01*
X23698333Y-13994762D01*
X23603095Y-14013809D01*
X23774524Y-14070952D02*
X23793571Y-14080476D01*
X23831667Y-14080476D01*
X23850714Y-14070952D01*
X23860238Y-14051905D01*
X23860238Y-14042381D01*
X23850714Y-14023333D01*
X23831667Y-14013809D01*
X23803095Y-14013809D01*
X23784048Y-14004286D01*
X23774524Y-13985238D01*
X23774524Y-13975714D01*
X23784048Y-13956667D01*
X23803095Y-13947143D01*
X23831667Y-13947143D01*
X23850714Y-13956667D01*
X23926905Y-14156667D02*
X23936428Y-14147143D01*
X23955476Y-14118571D01*
X23965000Y-14099524D01*
X23974524Y-14070952D01*
X23984048Y-14023333D01*
X23984048Y-13985238D01*
X23974524Y-13937619D01*
X23965000Y-13909048D01*
X23955476Y-13890000D01*
X23936428Y-13861428D01*
X23926905Y-13851905D01*
D16*
X19056000Y-14204500D02*
X19155000Y-14303500D01*
X19155000Y-14204500D02*
X19056000Y-14303500D01*
X19105500Y-14204500D02*
X19105500Y-14303500D01*
X19056000Y-14254000D02*
X19155000Y-14254000D01*
D10*
X19450714Y-14144476D02*
X19469762Y-14144476D01*
X19488810Y-14154000D01*
X19498333Y-14163524D01*
X19507857Y-14182571D01*
X19517381Y-14220667D01*
X19517381Y-14268286D01*
X19507857Y-14306381D01*
X19498333Y-14325428D01*
X19488810Y-14334952D01*
X19469762Y-14344476D01*
X19450714Y-14344476D01*
X19431667Y-14334952D01*
X19422143Y-14325428D01*
X19412619Y-14306381D01*
X19403095Y-14268286D01*
X19403095Y-14220667D01*
X19412619Y-14182571D01*
X19422143Y-14163524D01*
X19431667Y-14154000D01*
X19450714Y-14144476D01*
X19603095Y-14325428D02*
X19612619Y-14334952D01*
X19603095Y-14344476D01*
X19593571Y-14334952D01*
X19603095Y-14325428D01*
X19603095Y-14344476D01*
X19707857Y-14344476D02*
X19745952Y-14344476D01*
X19765000Y-14334952D01*
X19774524Y-14325428D01*
X19793571Y-14296857D01*
X19803095Y-14258762D01*
X19803095Y-14182571D01*
X19793571Y-14163524D01*
X19784048Y-14154000D01*
X19765000Y-14144476D01*
X19726905Y-14144476D01*
X19707857Y-14154000D01*
X19698333Y-14163524D01*
X19688810Y-14182571D01*
X19688810Y-14230190D01*
X19698333Y-14249238D01*
X19707857Y-14258762D01*
X19726905Y-14268286D01*
X19765000Y-14268286D01*
X19784048Y-14258762D01*
X19793571Y-14249238D01*
X19803095Y-14230190D01*
X19898333Y-14344476D02*
X19936429Y-14344476D01*
X19955476Y-14334952D01*
X19965000Y-14325428D01*
X19984048Y-14296857D01*
X19993571Y-14258762D01*
X19993571Y-14182571D01*
X19984048Y-14163524D01*
X19974524Y-14154000D01*
X19955476Y-14144476D01*
X19917381Y-14144476D01*
X19898333Y-14154000D01*
X19888810Y-14163524D01*
X19879286Y-14182571D01*
X19879286Y-14230190D01*
X19888810Y-14249238D01*
X19898333Y-14258762D01*
X19917381Y-14268286D01*
X19955476Y-14268286D01*
X19974524Y-14258762D01*
X19984048Y-14249238D01*
X19993571Y-14230190D01*
X20117381Y-14144476D02*
X20136429Y-14144476D01*
X20155476Y-14154000D01*
X20165000Y-14163524D01*
X20174524Y-14182571D01*
X20184048Y-14220667D01*
X20184048Y-14268286D01*
X20174524Y-14306381D01*
X20165000Y-14325428D01*
X20155476Y-14334952D01*
X20136429Y-14344476D01*
X20117381Y-14344476D01*
X20098333Y-14334952D01*
X20088810Y-14325428D01*
X20079286Y-14306381D01*
X20069762Y-14268286D01*
X20069762Y-14220667D01*
X20079286Y-14182571D01*
X20088810Y-14163524D01*
X20098333Y-14154000D01*
X20117381Y-14144476D01*
X20269762Y-14344476D02*
X20269762Y-14211143D01*
X20269762Y-14230190D02*
X20279286Y-14220667D01*
X20298333Y-14211143D01*
X20326905Y-14211143D01*
X20345952Y-14220667D01*
X20355476Y-14239714D01*
X20355476Y-14344476D01*
X20355476Y-14239714D02*
X20365000Y-14220667D01*
X20384048Y-14211143D01*
X20412619Y-14211143D01*
X20431667Y-14220667D01*
X20441190Y-14239714D01*
X20441190Y-14344476D01*
X20536429Y-14344476D02*
X20536429Y-14211143D01*
X20536429Y-14230190D02*
X20545952Y-14220667D01*
X20565000Y-14211143D01*
X20593571Y-14211143D01*
X20612619Y-14220667D01*
X20622143Y-14239714D01*
X20622143Y-14344476D01*
X20622143Y-14239714D02*
X20631667Y-14220667D01*
X20650714Y-14211143D01*
X20679286Y-14211143D01*
X20698333Y-14220667D01*
X20707857Y-14239714D01*
X20707857Y-14344476D01*
X21098333Y-14134952D02*
X20926905Y-14392095D01*
X21355476Y-14144476D02*
X21374524Y-14144476D01*
X21393571Y-14154000D01*
X21403095Y-14163524D01*
X21412619Y-14182571D01*
X21422143Y-14220667D01*
X21422143Y-14268286D01*
X21412619Y-14306381D01*
X21403095Y-14325428D01*
X21393571Y-14334952D01*
X21374524Y-14344476D01*
X21355476Y-14344476D01*
X21336429Y-14334952D01*
X21326905Y-14325428D01*
X21317381Y-14306381D01*
X21307857Y-14268286D01*
X21307857Y-14220667D01*
X21317381Y-14182571D01*
X21326905Y-14163524D01*
X21336429Y-14154000D01*
X21355476Y-14144476D01*
X21507857Y-14325428D02*
X21517381Y-14334952D01*
X21507857Y-14344476D01*
X21498333Y-14334952D01*
X21507857Y-14325428D01*
X21507857Y-14344476D01*
X21641190Y-14144476D02*
X21660238Y-14144476D01*
X21679286Y-14154000D01*
X21688810Y-14163524D01*
X21698333Y-14182571D01*
X21707857Y-14220667D01*
X21707857Y-14268286D01*
X21698333Y-14306381D01*
X21688810Y-14325428D01*
X21679286Y-14334952D01*
X21660238Y-14344476D01*
X21641190Y-14344476D01*
X21622143Y-14334952D01*
X21612619Y-14325428D01*
X21603095Y-14306381D01*
X21593571Y-14268286D01*
X21593571Y-14220667D01*
X21603095Y-14182571D01*
X21612619Y-14163524D01*
X21622143Y-14154000D01*
X21641190Y-14144476D01*
X21774524Y-14144476D02*
X21898333Y-14144476D01*
X21831667Y-14220667D01*
X21860238Y-14220667D01*
X21879286Y-14230190D01*
X21888810Y-14239714D01*
X21898333Y-14258762D01*
X21898333Y-14306381D01*
X21888810Y-14325428D01*
X21879286Y-14334952D01*
X21860238Y-14344476D01*
X21803095Y-14344476D01*
X21784048Y-14334952D01*
X21774524Y-14325428D01*
X21993571Y-14344476D02*
X22031667Y-14344476D01*
X22050714Y-14334952D01*
X22060238Y-14325428D01*
X22079286Y-14296857D01*
X22088810Y-14258762D01*
X22088810Y-14182571D01*
X22079286Y-14163524D01*
X22069762Y-14154000D01*
X22050714Y-14144476D01*
X22012619Y-14144476D01*
X21993571Y-14154000D01*
X21984048Y-14163524D01*
X21974524Y-14182571D01*
X21974524Y-14230190D01*
X21984048Y-14249238D01*
X21993571Y-14258762D01*
X22012619Y-14268286D01*
X22050714Y-14268286D01*
X22069762Y-14258762D01*
X22079286Y-14249238D01*
X22088810Y-14230190D01*
X22212619Y-14144476D02*
X22231667Y-14144476D01*
X22250714Y-14154000D01*
X22260238Y-14163524D01*
X22269762Y-14182571D01*
X22279286Y-14220667D01*
X22279286Y-14268286D01*
X22269762Y-14306381D01*
X22260238Y-14325428D01*
X22250714Y-14334952D01*
X22231667Y-14344476D01*
X22212619Y-14344476D01*
X22193571Y-14334952D01*
X22184048Y-14325428D01*
X22174524Y-14306381D01*
X22165000Y-14268286D01*
X22165000Y-14220667D01*
X22174524Y-14182571D01*
X22184048Y-14163524D01*
X22193571Y-14154000D01*
X22212619Y-14144476D01*
X22355476Y-14144476D02*
X22355476Y-14182571D01*
X22431667Y-14144476D02*
X22431667Y-14182571D01*
X22726905Y-14420667D02*
X22717381Y-14411143D01*
X22698333Y-14382571D01*
X22688809Y-14363524D01*
X22679286Y-14334952D01*
X22669762Y-14287333D01*
X22669762Y-14249238D01*
X22679286Y-14201619D01*
X22688809Y-14173048D01*
X22698333Y-14154000D01*
X22717381Y-14125428D01*
X22726905Y-14115905D01*
X22793571Y-14163524D02*
X22803095Y-14154000D01*
X22822143Y-14144476D01*
X22869762Y-14144476D01*
X22888809Y-14154000D01*
X22898333Y-14163524D01*
X22907857Y-14182571D01*
X22907857Y-14201619D01*
X22898333Y-14230190D01*
X22784048Y-14344476D01*
X22907857Y-14344476D01*
X23145952Y-14344476D02*
X23145952Y-14144476D01*
X23231667Y-14344476D02*
X23231667Y-14239714D01*
X23222143Y-14220667D01*
X23203095Y-14211143D01*
X23174524Y-14211143D01*
X23155476Y-14220667D01*
X23145952Y-14230190D01*
X23355476Y-14344476D02*
X23336428Y-14334952D01*
X23326905Y-14325428D01*
X23317381Y-14306381D01*
X23317381Y-14249238D01*
X23326905Y-14230190D01*
X23336428Y-14220667D01*
X23355476Y-14211143D01*
X23384048Y-14211143D01*
X23403095Y-14220667D01*
X23412619Y-14230190D01*
X23422143Y-14249238D01*
X23422143Y-14306381D01*
X23412619Y-14325428D01*
X23403095Y-14334952D01*
X23384048Y-14344476D01*
X23355476Y-14344476D01*
X23536428Y-14344476D02*
X23517381Y-14334952D01*
X23507857Y-14315905D01*
X23507857Y-14144476D01*
X23688809Y-14334952D02*
X23669762Y-14344476D01*
X23631667Y-14344476D01*
X23612619Y-14334952D01*
X23603095Y-14315905D01*
X23603095Y-14239714D01*
X23612619Y-14220667D01*
X23631667Y-14211143D01*
X23669762Y-14211143D01*
X23688809Y-14220667D01*
X23698333Y-14239714D01*
X23698333Y-14258762D01*
X23603095Y-14277809D01*
X23774524Y-14334952D02*
X23793571Y-14344476D01*
X23831667Y-14344476D01*
X23850714Y-14334952D01*
X23860238Y-14315905D01*
X23860238Y-14306381D01*
X23850714Y-14287333D01*
X23831667Y-14277809D01*
X23803095Y-14277809D01*
X23784048Y-14268286D01*
X23774524Y-14249238D01*
X23774524Y-14239714D01*
X23784048Y-14220667D01*
X23803095Y-14211143D01*
X23831667Y-14211143D01*
X23850714Y-14220667D01*
X23926905Y-14420667D02*
X23936428Y-14411143D01*
X23955476Y-14382571D01*
X23965000Y-14363524D01*
X23974524Y-14334952D01*
X23984048Y-14287333D01*
X23984048Y-14249238D01*
X23974524Y-14201619D01*
X23965000Y-14173048D01*
X23955476Y-14154000D01*
X23936428Y-14125428D01*
X23926905Y-14115905D01*
D17*
X19055000Y-14468000D02*
X19155000Y-14568000D01*
X19155000Y-14468000D02*
X19055000Y-14568000D01*
X19140356Y-14553356D02*
X19140356Y-14482644D01*
X19069644Y-14482644D01*
X19069644Y-14553356D01*
X19140356Y-14553356D01*
D10*
X19517381Y-14608476D02*
X19403095Y-14608476D01*
X19460238Y-14608476D02*
X19460238Y-14408476D01*
X19441190Y-14437048D01*
X19422143Y-14456095D01*
X19403095Y-14465619D01*
X19603095Y-14589428D02*
X19612619Y-14598952D01*
X19603095Y-14608476D01*
X19593571Y-14598952D01*
X19603095Y-14589428D01*
X19603095Y-14608476D01*
X19736429Y-14408476D02*
X19755476Y-14408476D01*
X19774524Y-14418000D01*
X19784048Y-14427524D01*
X19793571Y-14446571D01*
X19803095Y-14484667D01*
X19803095Y-14532286D01*
X19793571Y-14570381D01*
X19784048Y-14589428D01*
X19774524Y-14598952D01*
X19755476Y-14608476D01*
X19736429Y-14608476D01*
X19717381Y-14598952D01*
X19707857Y-14589428D01*
X19698333Y-14570381D01*
X19688810Y-14532286D01*
X19688810Y-14484667D01*
X19698333Y-14446571D01*
X19707857Y-14427524D01*
X19717381Y-14418000D01*
X19736429Y-14408476D01*
X19926905Y-14408476D02*
X19945952Y-14408476D01*
X19965000Y-14418000D01*
X19974524Y-14427524D01*
X19984048Y-14446571D01*
X19993571Y-14484667D01*
X19993571Y-14532286D01*
X19984048Y-14570381D01*
X19974524Y-14589428D01*
X19965000Y-14598952D01*
X19945952Y-14608476D01*
X19926905Y-14608476D01*
X19907857Y-14598952D01*
X19898333Y-14589428D01*
X19888810Y-14570381D01*
X19879286Y-14532286D01*
X19879286Y-14484667D01*
X19888810Y-14446571D01*
X19898333Y-14427524D01*
X19907857Y-14418000D01*
X19926905Y-14408476D01*
X20117381Y-14408476D02*
X20136429Y-14408476D01*
X20155476Y-14418000D01*
X20165000Y-14427524D01*
X20174524Y-14446571D01*
X20184048Y-14484667D01*
X20184048Y-14532286D01*
X20174524Y-14570381D01*
X20165000Y-14589428D01*
X20155476Y-14598952D01*
X20136429Y-14608476D01*
X20117381Y-14608476D01*
X20098333Y-14598952D01*
X20088810Y-14589428D01*
X20079286Y-14570381D01*
X20069762Y-14532286D01*
X20069762Y-14484667D01*
X20079286Y-14446571D01*
X20088810Y-14427524D01*
X20098333Y-14418000D01*
X20117381Y-14408476D01*
X20269762Y-14608476D02*
X20269762Y-14475143D01*
X20269762Y-14494190D02*
X20279286Y-14484667D01*
X20298333Y-14475143D01*
X20326905Y-14475143D01*
X20345952Y-14484667D01*
X20355476Y-14503714D01*
X20355476Y-14608476D01*
X20355476Y-14503714D02*
X20365000Y-14484667D01*
X20384048Y-14475143D01*
X20412619Y-14475143D01*
X20431667Y-14484667D01*
X20441190Y-14503714D01*
X20441190Y-14608476D01*
X20536429Y-14608476D02*
X20536429Y-14475143D01*
X20536429Y-14494190D02*
X20545952Y-14484667D01*
X20565000Y-14475143D01*
X20593571Y-14475143D01*
X20612619Y-14484667D01*
X20622143Y-14503714D01*
X20622143Y-14608476D01*
X20622143Y-14503714D02*
X20631667Y-14484667D01*
X20650714Y-14475143D01*
X20679286Y-14475143D01*
X20698333Y-14484667D01*
X20707857Y-14503714D01*
X20707857Y-14608476D01*
X21098333Y-14398952D02*
X20926905Y-14656095D01*
X21355476Y-14408476D02*
X21374524Y-14408476D01*
X21393571Y-14418000D01*
X21403095Y-14427524D01*
X21412619Y-14446571D01*
X21422143Y-14484667D01*
X21422143Y-14532286D01*
X21412619Y-14570381D01*
X21403095Y-14589428D01*
X21393571Y-14598952D01*
X21374524Y-14608476D01*
X21355476Y-14608476D01*
X21336429Y-14598952D01*
X21326905Y-14589428D01*
X21317381Y-14570381D01*
X21307857Y-14532286D01*
X21307857Y-14484667D01*
X21317381Y-14446571D01*
X21326905Y-14427524D01*
X21336429Y-14418000D01*
X21355476Y-14408476D01*
X21507857Y-14589428D02*
X21517381Y-14598952D01*
X21507857Y-14608476D01*
X21498333Y-14598952D01*
X21507857Y-14589428D01*
X21507857Y-14608476D01*
X21641190Y-14408476D02*
X21660238Y-14408476D01*
X21679286Y-14418000D01*
X21688810Y-14427524D01*
X21698333Y-14446571D01*
X21707857Y-14484667D01*
X21707857Y-14532286D01*
X21698333Y-14570381D01*
X21688810Y-14589428D01*
X21679286Y-14598952D01*
X21660238Y-14608476D01*
X21641190Y-14608476D01*
X21622143Y-14598952D01*
X21612619Y-14589428D01*
X21603095Y-14570381D01*
X21593571Y-14532286D01*
X21593571Y-14484667D01*
X21603095Y-14446571D01*
X21612619Y-14427524D01*
X21622143Y-14418000D01*
X21641190Y-14408476D01*
X21774524Y-14408476D02*
X21898333Y-14408476D01*
X21831667Y-14484667D01*
X21860238Y-14484667D01*
X21879286Y-14494190D01*
X21888810Y-14503714D01*
X21898333Y-14522762D01*
X21898333Y-14570381D01*
X21888810Y-14589428D01*
X21879286Y-14598952D01*
X21860238Y-14608476D01*
X21803095Y-14608476D01*
X21784048Y-14598952D01*
X21774524Y-14589428D01*
X21993571Y-14608476D02*
X22031667Y-14608476D01*
X22050714Y-14598952D01*
X22060238Y-14589428D01*
X22079286Y-14560857D01*
X22088810Y-14522762D01*
X22088810Y-14446571D01*
X22079286Y-14427524D01*
X22069762Y-14418000D01*
X22050714Y-14408476D01*
X22012619Y-14408476D01*
X21993571Y-14418000D01*
X21984048Y-14427524D01*
X21974524Y-14446571D01*
X21974524Y-14494190D01*
X21984048Y-14513238D01*
X21993571Y-14522762D01*
X22012619Y-14532286D01*
X22050714Y-14532286D01*
X22069762Y-14522762D01*
X22079286Y-14513238D01*
X22088810Y-14494190D01*
X22260238Y-14475143D02*
X22260238Y-14608476D01*
X22212619Y-14398952D02*
X22165000Y-14541809D01*
X22288810Y-14541809D01*
X22355476Y-14408476D02*
X22355476Y-14446571D01*
X22431667Y-14408476D02*
X22431667Y-14446571D01*
X22726905Y-14684667D02*
X22717381Y-14675143D01*
X22698333Y-14646571D01*
X22688809Y-14627524D01*
X22679286Y-14598952D01*
X22669762Y-14551333D01*
X22669762Y-14513238D01*
X22679286Y-14465619D01*
X22688809Y-14437048D01*
X22698333Y-14418000D01*
X22717381Y-14389428D01*
X22726905Y-14379905D01*
X22793571Y-14427524D02*
X22803095Y-14418000D01*
X22822143Y-14408476D01*
X22869762Y-14408476D01*
X22888809Y-14418000D01*
X22898333Y-14427524D01*
X22907857Y-14446571D01*
X22907857Y-14465619D01*
X22898333Y-14494190D01*
X22784048Y-14608476D01*
X22907857Y-14608476D01*
X23145952Y-14608476D02*
X23145952Y-14408476D01*
X23231667Y-14608476D02*
X23231667Y-14503714D01*
X23222143Y-14484667D01*
X23203095Y-14475143D01*
X23174524Y-14475143D01*
X23155476Y-14484667D01*
X23145952Y-14494190D01*
X23355476Y-14608476D02*
X23336428Y-14598952D01*
X23326905Y-14589428D01*
X23317381Y-14570381D01*
X23317381Y-14513238D01*
X23326905Y-14494190D01*
X23336428Y-14484667D01*
X23355476Y-14475143D01*
X23384048Y-14475143D01*
X23403095Y-14484667D01*
X23412619Y-14494190D01*
X23422143Y-14513238D01*
X23422143Y-14570381D01*
X23412619Y-14589428D01*
X23403095Y-14598952D01*
X23384048Y-14608476D01*
X23355476Y-14608476D01*
X23536428Y-14608476D02*
X23517381Y-14598952D01*
X23507857Y-14579905D01*
X23507857Y-14408476D01*
X23688809Y-14598952D02*
X23669762Y-14608476D01*
X23631667Y-14608476D01*
X23612619Y-14598952D01*
X23603095Y-14579905D01*
X23603095Y-14503714D01*
X23612619Y-14484667D01*
X23631667Y-14475143D01*
X23669762Y-14475143D01*
X23688809Y-14484667D01*
X23698333Y-14503714D01*
X23698333Y-14522762D01*
X23603095Y-14541809D01*
X23774524Y-14598952D02*
X23793571Y-14608476D01*
X23831667Y-14608476D01*
X23850714Y-14598952D01*
X23860238Y-14579905D01*
X23860238Y-14570381D01*
X23850714Y-14551333D01*
X23831667Y-14541809D01*
X23803095Y-14541809D01*
X23784048Y-14532286D01*
X23774524Y-14513238D01*
X23774524Y-14503714D01*
X23784048Y-14484667D01*
X23803095Y-14475143D01*
X23831667Y-14475143D01*
X23850714Y-14484667D01*
X23926905Y-14684667D02*
X23936428Y-14675143D01*
X23955476Y-14646571D01*
X23965000Y-14627524D01*
X23974524Y-14598952D01*
X23984048Y-14551333D01*
X23984048Y-14513238D01*
X23974524Y-14465619D01*
X23965000Y-14437048D01*
X23955476Y-14418000D01*
X23936428Y-14389428D01*
X23926905Y-14379905D01*
D18*
X19025000Y-14717000D02*
X19155000Y-14847000D01*
X19155000Y-14717000D02*
X19025000Y-14847000D01*
X19090000Y-14847000D02*
X19155000Y-14782000D01*
X19090000Y-14717000D01*
X19025000Y-14782000D01*
X19090000Y-14847000D01*
D10*
X19517381Y-14872476D02*
X19403095Y-14872476D01*
X19460238Y-14872476D02*
X19460238Y-14672476D01*
X19441190Y-14701048D01*
X19422143Y-14720095D01*
X19403095Y-14729619D01*
X19603095Y-14853428D02*
X19612619Y-14862952D01*
X19603095Y-14872476D01*
X19593571Y-14862952D01*
X19603095Y-14853428D01*
X19603095Y-14872476D01*
X19679286Y-14672476D02*
X19803095Y-14672476D01*
X19736429Y-14748667D01*
X19765000Y-14748667D01*
X19784048Y-14758190D01*
X19793571Y-14767714D01*
X19803095Y-14786762D01*
X19803095Y-14834381D01*
X19793571Y-14853428D01*
X19784048Y-14862952D01*
X19765000Y-14872476D01*
X19707857Y-14872476D01*
X19688810Y-14862952D01*
X19679286Y-14853428D01*
X19926905Y-14672476D02*
X19945952Y-14672476D01*
X19965000Y-14682000D01*
X19974524Y-14691524D01*
X19984048Y-14710571D01*
X19993571Y-14748667D01*
X19993571Y-14796286D01*
X19984048Y-14834381D01*
X19974524Y-14853428D01*
X19965000Y-14862952D01*
X19945952Y-14872476D01*
X19926905Y-14872476D01*
X19907857Y-14862952D01*
X19898333Y-14853428D01*
X19888810Y-14834381D01*
X19879286Y-14796286D01*
X19879286Y-14748667D01*
X19888810Y-14710571D01*
X19898333Y-14691524D01*
X19907857Y-14682000D01*
X19926905Y-14672476D01*
X20117381Y-14672476D02*
X20136429Y-14672476D01*
X20155476Y-14682000D01*
X20165000Y-14691524D01*
X20174524Y-14710571D01*
X20184048Y-14748667D01*
X20184048Y-14796286D01*
X20174524Y-14834381D01*
X20165000Y-14853428D01*
X20155476Y-14862952D01*
X20136429Y-14872476D01*
X20117381Y-14872476D01*
X20098333Y-14862952D01*
X20088810Y-14853428D01*
X20079286Y-14834381D01*
X20069762Y-14796286D01*
X20069762Y-14748667D01*
X20079286Y-14710571D01*
X20088810Y-14691524D01*
X20098333Y-14682000D01*
X20117381Y-14672476D01*
X20269762Y-14872476D02*
X20269762Y-14739143D01*
X20269762Y-14758190D02*
X20279286Y-14748667D01*
X20298333Y-14739143D01*
X20326905Y-14739143D01*
X20345952Y-14748667D01*
X20355476Y-14767714D01*
X20355476Y-14872476D01*
X20355476Y-14767714D02*
X20365000Y-14748667D01*
X20384048Y-14739143D01*
X20412619Y-14739143D01*
X20431667Y-14748667D01*
X20441190Y-14767714D01*
X20441190Y-14872476D01*
X20536429Y-14872476D02*
X20536429Y-14739143D01*
X20536429Y-14758190D02*
X20545952Y-14748667D01*
X20565000Y-14739143D01*
X20593571Y-14739143D01*
X20612619Y-14748667D01*
X20622143Y-14767714D01*
X20622143Y-14872476D01*
X20622143Y-14767714D02*
X20631667Y-14748667D01*
X20650714Y-14739143D01*
X20679286Y-14739143D01*
X20698333Y-14748667D01*
X20707857Y-14767714D01*
X20707857Y-14872476D01*
X21098333Y-14662952D02*
X20926905Y-14920095D01*
X21355476Y-14672476D02*
X21374524Y-14672476D01*
X21393571Y-14682000D01*
X21403095Y-14691524D01*
X21412619Y-14710571D01*
X21422143Y-14748667D01*
X21422143Y-14796286D01*
X21412619Y-14834381D01*
X21403095Y-14853428D01*
X21393571Y-14862952D01*
X21374524Y-14872476D01*
X21355476Y-14872476D01*
X21336429Y-14862952D01*
X21326905Y-14853428D01*
X21317381Y-14834381D01*
X21307857Y-14796286D01*
X21307857Y-14748667D01*
X21317381Y-14710571D01*
X21326905Y-14691524D01*
X21336429Y-14682000D01*
X21355476Y-14672476D01*
X21507857Y-14853428D02*
X21517381Y-14862952D01*
X21507857Y-14872476D01*
X21498333Y-14862952D01*
X21507857Y-14853428D01*
X21507857Y-14872476D01*
X21641190Y-14672476D02*
X21660238Y-14672476D01*
X21679286Y-14682000D01*
X21688810Y-14691524D01*
X21698333Y-14710571D01*
X21707857Y-14748667D01*
X21707857Y-14796286D01*
X21698333Y-14834381D01*
X21688810Y-14853428D01*
X21679286Y-14862952D01*
X21660238Y-14872476D01*
X21641190Y-14872476D01*
X21622143Y-14862952D01*
X21612619Y-14853428D01*
X21603095Y-14834381D01*
X21593571Y-14796286D01*
X21593571Y-14748667D01*
X21603095Y-14710571D01*
X21612619Y-14691524D01*
X21622143Y-14682000D01*
X21641190Y-14672476D01*
X21888810Y-14672476D02*
X21793571Y-14672476D01*
X21784048Y-14767714D01*
X21793571Y-14758190D01*
X21812619Y-14748667D01*
X21860238Y-14748667D01*
X21879286Y-14758190D01*
X21888810Y-14767714D01*
X21898333Y-14786762D01*
X21898333Y-14834381D01*
X21888810Y-14853428D01*
X21879286Y-14862952D01*
X21860238Y-14872476D01*
X21812619Y-14872476D01*
X21793571Y-14862952D01*
X21784048Y-14853428D01*
X22088810Y-14872476D02*
X21974524Y-14872476D01*
X22031667Y-14872476D02*
X22031667Y-14672476D01*
X22012619Y-14701048D01*
X21993571Y-14720095D01*
X21974524Y-14729619D01*
X22165000Y-14691524D02*
X22174524Y-14682000D01*
X22193571Y-14672476D01*
X22241190Y-14672476D01*
X22260238Y-14682000D01*
X22269762Y-14691524D01*
X22279286Y-14710571D01*
X22279286Y-14729619D01*
X22269762Y-14758190D01*
X22155476Y-14872476D01*
X22279286Y-14872476D01*
X22355476Y-14672476D02*
X22355476Y-14710571D01*
X22431667Y-14672476D02*
X22431667Y-14710571D01*
X22726905Y-14948667D02*
X22717381Y-14939143D01*
X22698333Y-14910571D01*
X22688809Y-14891524D01*
X22679286Y-14862952D01*
X22669762Y-14815333D01*
X22669762Y-14777238D01*
X22679286Y-14729619D01*
X22688809Y-14701048D01*
X22698333Y-14682000D01*
X22717381Y-14653428D01*
X22726905Y-14643905D01*
X22793571Y-14691524D02*
X22803095Y-14682000D01*
X22822143Y-14672476D01*
X22869762Y-14672476D01*
X22888809Y-14682000D01*
X22898333Y-14691524D01*
X22907857Y-14710571D01*
X22907857Y-14729619D01*
X22898333Y-14758190D01*
X22784048Y-14872476D01*
X22907857Y-14872476D01*
X23145952Y-14872476D02*
X23145952Y-14672476D01*
X23231667Y-14872476D02*
X23231667Y-14767714D01*
X23222143Y-14748667D01*
X23203095Y-14739143D01*
X23174524Y-14739143D01*
X23155476Y-14748667D01*
X23145952Y-14758190D01*
X23355476Y-14872476D02*
X23336428Y-14862952D01*
X23326905Y-14853428D01*
X23317381Y-14834381D01*
X23317381Y-14777238D01*
X23326905Y-14758190D01*
X23336428Y-14748667D01*
X23355476Y-14739143D01*
X23384048Y-14739143D01*
X23403095Y-14748667D01*
X23412619Y-14758190D01*
X23422143Y-14777238D01*
X23422143Y-14834381D01*
X23412619Y-14853428D01*
X23403095Y-14862952D01*
X23384048Y-14872476D01*
X23355476Y-14872476D01*
X23536428Y-14872476D02*
X23517381Y-14862952D01*
X23507857Y-14843905D01*
X23507857Y-14672476D01*
X23688809Y-14862952D02*
X23669762Y-14872476D01*
X23631667Y-14872476D01*
X23612619Y-14862952D01*
X23603095Y-14843905D01*
X23603095Y-14767714D01*
X23612619Y-14748667D01*
X23631667Y-14739143D01*
X23669762Y-14739143D01*
X23688809Y-14748667D01*
X23698333Y-14767714D01*
X23698333Y-14786762D01*
X23603095Y-14805809D01*
X23774524Y-14862952D02*
X23793571Y-14872476D01*
X23831667Y-14872476D01*
X23850714Y-14862952D01*
X23860238Y-14843905D01*
X23860238Y-14834381D01*
X23850714Y-14815333D01*
X23831667Y-14805809D01*
X23803095Y-14805809D01*
X23784048Y-14796286D01*
X23774524Y-14777238D01*
X23774524Y-14767714D01*
X23784048Y-14748667D01*
X23803095Y-14739143D01*
X23831667Y-14739143D01*
X23850714Y-14748667D01*
X23926905Y-14948667D02*
X23936428Y-14939143D01*
X23955476Y-14910571D01*
X23965000Y-14891524D01*
X23974524Y-14862952D01*
X23984048Y-14815333D01*
X23984048Y-14777238D01*
X23974524Y-14729619D01*
X23965000Y-14701048D01*
X23955476Y-14682000D01*
X23936428Y-14653428D01*
X23926905Y-14643905D01*
X19055000Y-14946000D02*
X19055000Y-15146000D01*
X18955000Y-15046000D02*
X19155000Y-15046000D01*
X19155000Y-15046000D02*
G75*
G03*
X19155000Y-15046000I-100000J0D01*
G01*
X19403095Y-14955524D02*
X19412619Y-14946000D01*
X19431667Y-14936476D01*
X19479286Y-14936476D01*
X19498333Y-14946000D01*
X19507857Y-14955524D01*
X19517381Y-14974571D01*
X19517381Y-14993619D01*
X19507857Y-15022190D01*
X19393571Y-15136476D01*
X19517381Y-15136476D01*
X19603095Y-15117428D02*
X19612619Y-15126952D01*
X19603095Y-15136476D01*
X19593571Y-15126952D01*
X19603095Y-15117428D01*
X19603095Y-15136476D01*
X19688810Y-14955524D02*
X19698333Y-14946000D01*
X19717381Y-14936476D01*
X19765000Y-14936476D01*
X19784048Y-14946000D01*
X19793571Y-14955524D01*
X19803095Y-14974571D01*
X19803095Y-14993619D01*
X19793571Y-15022190D01*
X19679286Y-15136476D01*
X19803095Y-15136476D01*
X19926905Y-14936476D02*
X19945952Y-14936476D01*
X19965000Y-14946000D01*
X19974524Y-14955524D01*
X19984048Y-14974571D01*
X19993571Y-15012667D01*
X19993571Y-15060286D01*
X19984048Y-15098381D01*
X19974524Y-15117428D01*
X19965000Y-15126952D01*
X19945952Y-15136476D01*
X19926905Y-15136476D01*
X19907857Y-15126952D01*
X19898333Y-15117428D01*
X19888810Y-15098381D01*
X19879286Y-15060286D01*
X19879286Y-15012667D01*
X19888810Y-14974571D01*
X19898333Y-14955524D01*
X19907857Y-14946000D01*
X19926905Y-14936476D01*
X20117381Y-14936476D02*
X20136429Y-14936476D01*
X20155476Y-14946000D01*
X20165000Y-14955524D01*
X20174524Y-14974571D01*
X20184048Y-15012667D01*
X20184048Y-15060286D01*
X20174524Y-15098381D01*
X20165000Y-15117428D01*
X20155476Y-15126952D01*
X20136429Y-15136476D01*
X20117381Y-15136476D01*
X20098333Y-15126952D01*
X20088810Y-15117428D01*
X20079286Y-15098381D01*
X20069762Y-15060286D01*
X20069762Y-15012667D01*
X20079286Y-14974571D01*
X20088810Y-14955524D01*
X20098333Y-14946000D01*
X20117381Y-14936476D01*
X20269762Y-15136476D02*
X20269762Y-15003143D01*
X20269762Y-15022190D02*
X20279286Y-15012667D01*
X20298333Y-15003143D01*
X20326905Y-15003143D01*
X20345952Y-15012667D01*
X20355476Y-15031714D01*
X20355476Y-15136476D01*
X20355476Y-15031714D02*
X20365000Y-15012667D01*
X20384048Y-15003143D01*
X20412619Y-15003143D01*
X20431667Y-15012667D01*
X20441190Y-15031714D01*
X20441190Y-15136476D01*
X20536429Y-15136476D02*
X20536429Y-15003143D01*
X20536429Y-15022190D02*
X20545952Y-15012667D01*
X20565000Y-15003143D01*
X20593571Y-15003143D01*
X20612619Y-15012667D01*
X20622143Y-15031714D01*
X20622143Y-15136476D01*
X20622143Y-15031714D02*
X20631667Y-15012667D01*
X20650714Y-15003143D01*
X20679286Y-15003143D01*
X20698333Y-15012667D01*
X20707857Y-15031714D01*
X20707857Y-15136476D01*
X21098333Y-14926952D02*
X20926905Y-15184095D01*
X21355476Y-14936476D02*
X21374524Y-14936476D01*
X21393571Y-14946000D01*
X21403095Y-14955524D01*
X21412619Y-14974571D01*
X21422143Y-15012667D01*
X21422143Y-15060286D01*
X21412619Y-15098381D01*
X21403095Y-15117428D01*
X21393571Y-15126952D01*
X21374524Y-15136476D01*
X21355476Y-15136476D01*
X21336429Y-15126952D01*
X21326905Y-15117428D01*
X21317381Y-15098381D01*
X21307857Y-15060286D01*
X21307857Y-15012667D01*
X21317381Y-14974571D01*
X21326905Y-14955524D01*
X21336429Y-14946000D01*
X21355476Y-14936476D01*
X21507857Y-15117428D02*
X21517381Y-15126952D01*
X21507857Y-15136476D01*
X21498333Y-15126952D01*
X21507857Y-15117428D01*
X21507857Y-15136476D01*
X21641190Y-14936476D02*
X21660238Y-14936476D01*
X21679286Y-14946000D01*
X21688810Y-14955524D01*
X21698333Y-14974571D01*
X21707857Y-15012667D01*
X21707857Y-15060286D01*
X21698333Y-15098381D01*
X21688810Y-15117428D01*
X21679286Y-15126952D01*
X21660238Y-15136476D01*
X21641190Y-15136476D01*
X21622143Y-15126952D01*
X21612619Y-15117428D01*
X21603095Y-15098381D01*
X21593571Y-15060286D01*
X21593571Y-15012667D01*
X21603095Y-14974571D01*
X21612619Y-14955524D01*
X21622143Y-14946000D01*
X21641190Y-14936476D01*
X21822143Y-15022190D02*
X21803095Y-15012667D01*
X21793571Y-15003143D01*
X21784048Y-14984095D01*
X21784048Y-14974571D01*
X21793571Y-14955524D01*
X21803095Y-14946000D01*
X21822143Y-14936476D01*
X21860238Y-14936476D01*
X21879286Y-14946000D01*
X21888810Y-14955524D01*
X21898333Y-14974571D01*
X21898333Y-14984095D01*
X21888810Y-15003143D01*
X21879286Y-15012667D01*
X21860238Y-15022190D01*
X21822143Y-15022190D01*
X21803095Y-15031714D01*
X21793571Y-15041238D01*
X21784048Y-15060286D01*
X21784048Y-15098381D01*
X21793571Y-15117428D01*
X21803095Y-15126952D01*
X21822143Y-15136476D01*
X21860238Y-15136476D01*
X21879286Y-15126952D01*
X21888810Y-15117428D01*
X21898333Y-15098381D01*
X21898333Y-15060286D01*
X21888810Y-15041238D01*
X21879286Y-15031714D01*
X21860238Y-15022190D01*
X22069762Y-14936476D02*
X22031667Y-14936476D01*
X22012619Y-14946000D01*
X22003095Y-14955524D01*
X21984048Y-14984095D01*
X21974524Y-15022190D01*
X21974524Y-15098381D01*
X21984048Y-15117428D01*
X21993571Y-15126952D01*
X22012619Y-15136476D01*
X22050714Y-15136476D01*
X22069762Y-15126952D01*
X22079286Y-15117428D01*
X22088810Y-15098381D01*
X22088810Y-15050762D01*
X22079286Y-15031714D01*
X22069762Y-15022190D01*
X22050714Y-15012667D01*
X22012619Y-15012667D01*
X21993571Y-15022190D01*
X21984048Y-15031714D01*
X21974524Y-15050762D01*
X22260238Y-14936476D02*
X22222143Y-14936476D01*
X22203095Y-14946000D01*
X22193571Y-14955524D01*
X22174524Y-14984095D01*
X22165000Y-15022190D01*
X22165000Y-15098381D01*
X22174524Y-15117428D01*
X22184048Y-15126952D01*
X22203095Y-15136476D01*
X22241190Y-15136476D01*
X22260238Y-15126952D01*
X22269762Y-15117428D01*
X22279286Y-15098381D01*
X22279286Y-15050762D01*
X22269762Y-15031714D01*
X22260238Y-15022190D01*
X22241190Y-15012667D01*
X22203095Y-15012667D01*
X22184048Y-15022190D01*
X22174524Y-15031714D01*
X22165000Y-15050762D01*
X22355476Y-14936476D02*
X22355476Y-14974571D01*
X22431667Y-14936476D02*
X22431667Y-14974571D01*
X22726905Y-15212667D02*
X22717381Y-15203143D01*
X22698333Y-15174571D01*
X22688809Y-15155524D01*
X22679286Y-15126952D01*
X22669762Y-15079333D01*
X22669762Y-15041238D01*
X22679286Y-14993619D01*
X22688809Y-14965048D01*
X22698333Y-14946000D01*
X22717381Y-14917428D01*
X22726905Y-14907905D01*
X22784048Y-14936476D02*
X22907857Y-14936476D01*
X22841190Y-15012667D01*
X22869762Y-15012667D01*
X22888809Y-15022190D01*
X22898333Y-15031714D01*
X22907857Y-15050762D01*
X22907857Y-15098381D01*
X22898333Y-15117428D01*
X22888809Y-15126952D01*
X22869762Y-15136476D01*
X22812619Y-15136476D01*
X22793571Y-15126952D01*
X22784048Y-15117428D01*
X23145952Y-15136476D02*
X23145952Y-14936476D01*
X23231667Y-15136476D02*
X23231667Y-15031714D01*
X23222143Y-15012667D01*
X23203095Y-15003143D01*
X23174524Y-15003143D01*
X23155476Y-15012667D01*
X23145952Y-15022190D01*
X23355476Y-15136476D02*
X23336428Y-15126952D01*
X23326905Y-15117428D01*
X23317381Y-15098381D01*
X23317381Y-15041238D01*
X23326905Y-15022190D01*
X23336428Y-15012667D01*
X23355476Y-15003143D01*
X23384048Y-15003143D01*
X23403095Y-15012667D01*
X23412619Y-15022190D01*
X23422143Y-15041238D01*
X23422143Y-15098381D01*
X23412619Y-15117428D01*
X23403095Y-15126952D01*
X23384048Y-15136476D01*
X23355476Y-15136476D01*
X23536428Y-15136476D02*
X23517381Y-15126952D01*
X23507857Y-15107905D01*
X23507857Y-14936476D01*
X23688809Y-15126952D02*
X23669762Y-15136476D01*
X23631667Y-15136476D01*
X23612619Y-15126952D01*
X23603095Y-15107905D01*
X23603095Y-15031714D01*
X23612619Y-15012667D01*
X23631667Y-15003143D01*
X23669762Y-15003143D01*
X23688809Y-15012667D01*
X23698333Y-15031714D01*
X23698333Y-15050762D01*
X23603095Y-15069809D01*
X23774524Y-15126952D02*
X23793571Y-15136476D01*
X23831667Y-15136476D01*
X23850714Y-15126952D01*
X23860238Y-15107905D01*
X23860238Y-15098381D01*
X23850714Y-15079333D01*
X23831667Y-15069809D01*
X23803095Y-15069809D01*
X23784048Y-15060286D01*
X23774524Y-15041238D01*
X23774524Y-15031714D01*
X23784048Y-15012667D01*
X23803095Y-15003143D01*
X23831667Y-15003143D01*
X23850714Y-15012667D01*
X23926905Y-15212667D02*
X23936428Y-15203143D01*
X23955476Y-15174571D01*
X23965000Y-15155524D01*
X23974524Y-15126952D01*
X23984048Y-15079333D01*
X23984048Y-15041238D01*
X23974524Y-14993619D01*
X23965000Y-14965048D01*
X23955476Y-14946000D01*
X23936428Y-14917428D01*
X23926905Y-14907905D01*
M02*
