%TF.GenerationSoftware,KiCad,Pcbnew,(6.0.7)*%
%TF.CreationDate,2022-10-18T16:36:34-04:00*%
%TF.ProjectId,PCB,5043422e-6b69-4636-9164-5f7063625858,rev?*%
%TF.SameCoordinates,Original*%
%TF.FileFunction,Copper,L1,Top*%
%TF.FilePolarity,Positive*%
%FSLAX46Y46*%
G04 Gerber Fmt 4.6, Leading zero omitted, Abs format (unit mm)*
G04 Created by KiCad (PCBNEW (6.0.7)) date 2022-10-18 16:36:34*
%MOMM*%
%LPD*%
G01*
G04 APERTURE LIST*
G04 Aperture macros list*
%AMRoundRect*
0 Rectangle with rounded corners*
0 $1 Rounding radius*
0 $2 $3 $4 $5 $6 $7 $8 $9 X,Y pos of 4 corners*
0 Add a 4 corners polygon primitive as box body*
4,1,4,$2,$3,$4,$5,$6,$7,$8,$9,$2,$3,0*
0 Add four circle primitives for the rounded corners*
1,1,$1+$1,$2,$3*
1,1,$1+$1,$4,$5*
1,1,$1+$1,$6,$7*
1,1,$1+$1,$8,$9*
0 Add four rect primitives between the rounded corners*
20,1,$1+$1,$2,$3,$4,$5,0*
20,1,$1+$1,$4,$5,$6,$7,0*
20,1,$1+$1,$6,$7,$8,$9,0*
20,1,$1+$1,$8,$9,$2,$3,0*%
%AMFreePoly0*
4,1,15,-0.124998,0.730000,0.725000,0.730000,0.728536,0.728536,0.730000,0.725000,0.730000,-0.725000,0.728536,-0.728536,0.725000,-0.730000,-0.725000,-0.730000,-0.728536,-0.728536,-0.730000,-0.725000,-0.730001,0.125000,-0.728536,0.128536,-0.128536,0.728536,-0.125000,0.730001,-0.124998,0.730000,-0.124998,0.730000,$1*%
G04 Aperture macros list end*
%TA.AperFunction,SMDPad,CuDef*%
%ADD10RoundRect,0.002500X-0.372600X-0.122500X0.372600X-0.122500X0.372600X0.122500X-0.372600X0.122500X0*%
%TD*%
%TA.AperFunction,SMDPad,CuDef*%
%ADD11RoundRect,0.002500X-0.397500X-0.122500X0.397500X-0.122500X0.397500X0.122500X-0.397500X0.122500X0*%
%TD*%
%TA.AperFunction,SMDPad,CuDef*%
%ADD12RoundRect,0.002734X-0.397266X-0.133966X0.397266X-0.133966X0.397266X0.133966X-0.397266X0.133966X0*%
%TD*%
%TA.AperFunction,SMDPad,CuDef*%
%ADD13RoundRect,0.002500X-0.122500X-0.422500X0.122500X-0.422500X0.122500X0.422500X-0.122500X0.422500X0*%
%TD*%
%TA.AperFunction,SMDPad,CuDef*%
%ADD14RoundRect,0.002484X-0.121716X-0.422516X0.121716X-0.422516X0.121716X0.422516X-0.121716X0.422516X0*%
%TD*%
%TA.AperFunction,SMDPad,CuDef*%
%ADD15RoundRect,0.017000X-0.408000X-0.433000X0.408000X-0.433000X0.408000X0.433000X-0.408000X0.433000X0*%
%TD*%
%TA.AperFunction,SMDPad,CuDef*%
%ADD16RoundRect,0.003450X-0.821550X-0.169050X0.821550X-0.169050X0.821550X0.169050X-0.821550X0.169050X0*%
%TD*%
%TA.AperFunction,SMDPad,CuDef*%
%ADD17RoundRect,0.003500X-0.996500X-0.171500X0.996500X-0.171500X0.996500X0.171500X-0.996500X0.171500X0*%
%TD*%
%TA.AperFunction,SMDPad,CuDef*%
%ADD18RoundRect,0.003350X-0.821650X-0.164150X0.821650X-0.164150X0.821650X0.164150X-0.821650X0.164150X0*%
%TD*%
%TA.AperFunction,SMDPad,CuDef*%
%ADD19R,0.711200X1.752600*%
%TD*%
%TA.AperFunction,SMDPad,CuDef*%
%ADD20RoundRect,0.225000X-0.225000X-0.250000X0.225000X-0.250000X0.225000X0.250000X-0.225000X0.250000X0*%
%TD*%
%TA.AperFunction,ComponentPad*%
%ADD21C,2.100000*%
%TD*%
%TA.AperFunction,ComponentPad*%
%ADD22C,1.750000*%
%TD*%
%TA.AperFunction,SMDPad,CuDef*%
%ADD23RoundRect,0.250000X0.325000X0.650000X-0.325000X0.650000X-0.325000X-0.650000X0.325000X-0.650000X0*%
%TD*%
%TA.AperFunction,SMDPad,CuDef*%
%ADD24RoundRect,0.200000X0.275000X-0.200000X0.275000X0.200000X-0.275000X0.200000X-0.275000X-0.200000X0*%
%TD*%
%TA.AperFunction,SMDPad,CuDef*%
%ADD25RoundRect,0.200000X0.200000X0.275000X-0.200000X0.275000X-0.200000X-0.275000X0.200000X-0.275000X0*%
%TD*%
%TA.AperFunction,ComponentPad*%
%ADD26R,1.070000X1.800000*%
%TD*%
%TA.AperFunction,ComponentPad*%
%ADD27O,1.070000X1.800000*%
%TD*%
%TA.AperFunction,SMDPad,CuDef*%
%ADD28RoundRect,0.250000X-0.325000X-0.650000X0.325000X-0.650000X0.325000X0.650000X-0.325000X0.650000X0*%
%TD*%
%TA.AperFunction,SMDPad,CuDef*%
%ADD29RoundRect,0.062500X0.475000X0.062500X-0.475000X0.062500X-0.475000X-0.062500X0.475000X-0.062500X0*%
%TD*%
%TA.AperFunction,SMDPad,CuDef*%
%ADD30RoundRect,0.062500X0.062500X0.475000X-0.062500X0.475000X-0.062500X-0.475000X0.062500X-0.475000X0*%
%TD*%
%TA.AperFunction,SMDPad,CuDef*%
%ADD31R,2.600000X2.600000*%
%TD*%
%TA.AperFunction,SMDPad,CuDef*%
%ADD32RoundRect,0.250000X-0.450000X0.325000X-0.450000X-0.325000X0.450000X-0.325000X0.450000X0.325000X0*%
%TD*%
%TA.AperFunction,SMDPad,CuDef*%
%ADD33RoundRect,0.200000X-0.200000X-0.275000X0.200000X-0.275000X0.200000X0.275000X-0.200000X0.275000X0*%
%TD*%
%TA.AperFunction,SMDPad,CuDef*%
%ADD34R,1.630000X0.450000*%
%TD*%
%TA.AperFunction,SMDPad,CuDef*%
%ADD35R,1.900000X1.800000*%
%TD*%
%TA.AperFunction,SMDPad,CuDef*%
%ADD36R,1.800000X1.425000*%
%TD*%
%TA.AperFunction,SMDPad,CuDef*%
%ADD37R,1.300000X1.750000*%
%TD*%
%TA.AperFunction,SMDPad,CuDef*%
%ADD38R,1.900000X1.000000*%
%TD*%
%TA.AperFunction,SMDPad,CuDef*%
%ADD39RoundRect,0.225000X-0.250000X0.225000X-0.250000X-0.225000X0.250000X-0.225000X0.250000X0.225000X0*%
%TD*%
%TA.AperFunction,SMDPad,CuDef*%
%ADD40R,1.800000X1.000000*%
%TD*%
%TA.AperFunction,ComponentPad*%
%ADD41C,1.508000*%
%TD*%
%TA.AperFunction,SMDPad,CuDef*%
%ADD42RoundRect,0.225000X0.250000X-0.225000X0.250000X0.225000X-0.250000X0.225000X-0.250000X-0.225000X0*%
%TD*%
%TA.AperFunction,SMDPad,CuDef*%
%ADD43C,1.000000*%
%TD*%
%TA.AperFunction,SMDPad,CuDef*%
%ADD44RoundRect,0.276000X0.324000X0.634000X-0.324000X0.634000X-0.324000X-0.634000X0.324000X-0.634000X0*%
%TD*%
%TA.AperFunction,SMDPad,CuDef*%
%ADD45R,1.375000X0.250000*%
%TD*%
%TA.AperFunction,SMDPad,CuDef*%
%ADD46R,0.250000X1.275000*%
%TD*%
%TA.AperFunction,SMDPad,CuDef*%
%ADD47R,1.375000X0.275000*%
%TD*%
%TA.AperFunction,SMDPad,CuDef*%
%ADD48RoundRect,0.250000X0.325000X0.450000X-0.325000X0.450000X-0.325000X-0.450000X0.325000X-0.450000X0*%
%TD*%
%TA.AperFunction,ComponentPad*%
%ADD49C,0.700000*%
%TD*%
%TA.AperFunction,ComponentPad*%
%ADD50C,4.400000*%
%TD*%
%TA.AperFunction,SMDPad,CuDef*%
%ADD51R,0.711200X1.498600*%
%TD*%
%TA.AperFunction,SMDPad,CuDef*%
%ADD52R,0.990600X0.812800*%
%TD*%
%TA.AperFunction,SMDPad,CuDef*%
%ADD53R,1.000000X1.800000*%
%TD*%
%TA.AperFunction,SMDPad,CuDef*%
%ADD54RoundRect,0.250000X-0.412500X-0.650000X0.412500X-0.650000X0.412500X0.650000X-0.412500X0.650000X0*%
%TD*%
%TA.AperFunction,SMDPad,CuDef*%
%ADD55RoundRect,0.225000X0.225000X0.250000X-0.225000X0.250000X-0.225000X-0.250000X0.225000X-0.250000X0*%
%TD*%
%TA.AperFunction,SMDPad,CuDef*%
%ADD56R,0.700000X1.000000*%
%TD*%
%TA.AperFunction,SMDPad,CuDef*%
%ADD57R,0.700000X0.600000*%
%TD*%
%TA.AperFunction,SMDPad,CuDef*%
%ADD58R,1.700000X0.400000*%
%TD*%
%TA.AperFunction,SMDPad,CuDef*%
%ADD59R,0.400000X1.900000*%
%TD*%
%TA.AperFunction,SMDPad,CuDef*%
%ADD60R,0.400000X0.800000*%
%TD*%
%TA.AperFunction,SMDPad,CuDef*%
%ADD61R,1.450000X1.450000*%
%TD*%
%TA.AperFunction,SMDPad,CuDef*%
%ADD62R,1.600000X0.700000*%
%TD*%
%TA.AperFunction,SMDPad,CuDef*%
%ADD63R,1.600000X0.600000*%
%TD*%
%TA.AperFunction,SMDPad,CuDef*%
%ADD64FreePoly0,180.000000*%
%TD*%
%TA.AperFunction,SMDPad,CuDef*%
%ADD65RoundRect,0.150000X0.587500X0.150000X-0.587500X0.150000X-0.587500X-0.150000X0.587500X-0.150000X0*%
%TD*%
%TA.AperFunction,SMDPad,CuDef*%
%ADD66RoundRect,0.250000X-0.375000X-0.625000X0.375000X-0.625000X0.375000X0.625000X-0.375000X0.625000X0*%
%TD*%
%TA.AperFunction,SMDPad,CuDef*%
%ADD67R,1.050000X0.650000*%
%TD*%
%TA.AperFunction,ViaPad*%
%ADD68C,0.800000*%
%TD*%
%TA.AperFunction,ViaPad*%
%ADD69C,0.600000*%
%TD*%
%TA.AperFunction,ViaPad*%
%ADD70C,0.500000*%
%TD*%
%TA.AperFunction,ViaPad*%
%ADD71C,1.000000*%
%TD*%
%TA.AperFunction,Conductor*%
%ADD72C,0.200000*%
%TD*%
%TA.AperFunction,Conductor*%
%ADD73C,0.250000*%
%TD*%
%TA.AperFunction,Conductor*%
%ADD74C,0.350000*%
%TD*%
%TA.AperFunction,Conductor*%
%ADD75C,0.300000*%
%TD*%
G04 APERTURE END LIST*
D10*
%TO.P,U4,1,PS/SYNC*%
%TO.N,Vin*%
X199351150Y-97023750D03*
D11*
%TO.P,U4,2,PG*%
%TO.N,Net-(R14-Pad2)*%
X199326250Y-97523750D03*
D12*
%TO.P,U4,3,VAUX*%
%TO.N,Net-(C13-Pad1)*%
X199326250Y-98012050D03*
D11*
%TO.P,U4,4,GND*%
%TO.N,GND*%
X199326250Y-98523750D03*
D13*
%TO.P,U4,5,FB*%
%TO.N,Net-(R13-Pad2)*%
X199851250Y-99298750D03*
D14*
%TO.P,U4,6,FB2*%
%TO.N,GND*%
X200350450Y-99298750D03*
D15*
%TO.P,U4,7_8,VOUT*%
%TO.N,+3.3V*%
X201101250Y-99273750D03*
D16*
%TO.P,U4,9,L2*%
%TO.N,Net-(L1-Pad2)*%
X201451250Y-98276250D03*
D17*
%TO.P,U4,10,PGND*%
%TO.N,GND*%
X201276250Y-97773750D03*
D18*
%TO.P,U4,11,L1*%
%TO.N,Net-(L1-Pad1)*%
X201451250Y-97266250D03*
D15*
%TO.P,U4,12_13,VIN*%
%TO.N,Vin*%
X201101250Y-96273750D03*
D13*
%TO.P,U4,14,EN*%
%TO.N,Net-(R10-Pad2)*%
X200351250Y-96248750D03*
%TO.P,U4,15,VSEL*%
%TO.N,GND*%
X199851250Y-96248750D03*
%TD*%
D19*
%TO.P,L1,1,1*%
%TO.N,Net-(L1-Pad1)*%
X206720000Y-96756200D03*
%TO.P,L1,2,2*%
%TO.N,Net-(L1-Pad2)*%
X206720000Y-98915200D03*
%TD*%
D20*
%TO.P,C26,1*%
%TO.N,Vin*%
X203370000Y-94850000D03*
%TO.P,C26,2*%
%TO.N,GND*%
X204920000Y-94850000D03*
%TD*%
D21*
%TO.P,SW3,*%
%TO.N,*%
X244120000Y-114910000D03*
X237110000Y-114910000D03*
D22*
%TO.P,SW3,1,1*%
%TO.N,SESSION_BUTTON*%
X242870000Y-117400000D03*
%TO.P,SW3,2,2*%
%TO.N,GND*%
X238370000Y-117400000D03*
%TD*%
D23*
%TO.P,C21,1*%
%TO.N,+BATT*%
X215365000Y-92980000D03*
%TO.P,C21,2*%
%TO.N,GND*%
X212415000Y-92980000D03*
%TD*%
D24*
%TO.P,R14,1*%
%TO.N,+3.3V*%
X197900000Y-106425000D03*
%TO.P,R14,2*%
%TO.N,Net-(R14-Pad2)*%
X197900000Y-104775000D03*
%TD*%
D25*
%TO.P,R12,1*%
%TO.N,GND*%
X197450000Y-93350000D03*
%TO.P,R12,2*%
%TO.N,Net-(R10-Pad2)*%
X195800000Y-93350000D03*
%TD*%
D26*
%TO.P,D6,1,RA*%
%TO.N,Net-(D6-Pad1)*%
X230600000Y-117070000D03*
D27*
%TO.P,D6,2,GA*%
%TO.N,Net-(D6-Pad2)*%
X231870000Y-117070000D03*
%TO.P,D6,3,BA*%
%TO.N,Net-(D6-Pad3)*%
X233140000Y-117070000D03*
%TO.P,D6,4,K*%
%TO.N,GND*%
X234410000Y-117070000D03*
%TD*%
D28*
%TO.P,C7,1*%
%TO.N,GND*%
X226335000Y-97760000D03*
%TO.P,C7,2*%
%TO.N,Vin*%
X229285000Y-97760000D03*
%TD*%
D20*
%TO.P,C8,1*%
%TO.N,GND*%
X234085000Y-103090000D03*
%TO.P,C8,2*%
%TO.N,+5V*%
X235635000Y-103090000D03*
%TD*%
D24*
%TO.P,R13,1*%
%TO.N,+3.3V*%
X198200000Y-102725000D03*
%TO.P,R13,2*%
%TO.N,Net-(R13-Pad2)*%
X198200000Y-101075000D03*
%TD*%
D29*
%TO.P,U2,1,~{RI}/CLK*%
%TO.N,unconnected-(U2-Pad1)*%
X237362500Y-108725000D03*
%TO.P,U2,2,GND*%
%TO.N,GND*%
X237362500Y-108225000D03*
%TO.P,U2,3,D+*%
%TO.N,USB_D+*%
X237362500Y-107725000D03*
%TO.P,U2,4,D-*%
%TO.N,USB_D-*%
X237362500Y-107225000D03*
%TO.P,U2,5,VIO*%
%TO.N,+3.3V*%
X237362500Y-106725000D03*
%TO.P,U2,6,VDD*%
X237362500Y-106225000D03*
D30*
%TO.P,U2,7,VREGIN*%
%TO.N,+5V*%
X236550000Y-105412500D03*
%TO.P,U2,8,VBUS*%
%TO.N,Net-(R5-Pad2)*%
X236050000Y-105412500D03*
%TO.P,U2,9,~{RST}*%
%TO.N,+3.3V*%
X235550000Y-105412500D03*
%TO.P,U2,10,NC*%
%TO.N,unconnected-(U2-Pad10)*%
X235050000Y-105412500D03*
%TO.P,U2,11,~{WAKEUP}/GPIO.3*%
%TO.N,unconnected-(U2-Pad11)*%
X234550000Y-105412500D03*
%TO.P,U2,12,RS485/GPIO.2*%
%TO.N,unconnected-(U2-Pad12)*%
X234050000Y-105412500D03*
D29*
%TO.P,U2,13,~{RXT}/GPIO.1*%
%TO.N,unconnected-(U2-Pad13)*%
X233237500Y-106225000D03*
%TO.P,U2,14,~{TXT}/GPIO.0*%
%TO.N,unconnected-(U2-Pad14)*%
X233237500Y-106725000D03*
%TO.P,U2,15,~{SUSPEND}*%
%TO.N,unconnected-(U2-Pad15)*%
X233237500Y-107225000D03*
%TO.P,U2,16,NC*%
%TO.N,unconnected-(U2-Pad16)*%
X233237500Y-107725000D03*
%TO.P,U2,17,SUSPEND*%
%TO.N,unconnected-(U2-Pad17)*%
X233237500Y-108225000D03*
%TO.P,U2,18,~{CTS}*%
%TO.N,PROG_CTS*%
X233237500Y-108725000D03*
D30*
%TO.P,U2,19,~{RTS}*%
%TO.N,PROG_RTS*%
X234050000Y-109537500D03*
%TO.P,U2,20,RXD*%
%TO.N,PROG_RX*%
X234550000Y-109537500D03*
%TO.P,U2,21,TXD*%
%TO.N,PROG_TX*%
X235050000Y-109537500D03*
%TO.P,U2,22,~{DSR}*%
%TO.N,unconnected-(U2-Pad22)*%
X235550000Y-109537500D03*
%TO.P,U2,23,~{DTR}*%
%TO.N,PROG_DTR*%
X236050000Y-109537500D03*
%TO.P,U2,24,~{DCD}*%
%TO.N,unconnected-(U2-Pad24)*%
X236550000Y-109537500D03*
D31*
%TO.P,U2,25,GND*%
%TO.N,GND*%
X235300000Y-107475000D03*
%TD*%
D32*
%TO.P,D5,1,K*%
%TO.N,GND*%
X223420000Y-92237500D03*
%TO.P,D5,2,A*%
%TO.N,Net-(D5-Pad2)*%
X223420000Y-94287500D03*
%TD*%
D33*
%TO.P,R41,1*%
%TO.N,unconnected-(R41-Pad1)*%
X212865000Y-99220000D03*
%TO.P,R41,2*%
%TO.N,JTAG_TMS*%
X214515000Y-99220000D03*
%TD*%
D34*
%TO.P,J1,1,VBUS*%
%TO.N,+5V*%
X241265000Y-99725000D03*
%TO.P,J1,2,D-*%
%TO.N,USB_D-*%
X241265000Y-99075000D03*
%TO.P,J1,3,D+*%
%TO.N,USB_D+*%
X241265000Y-98425000D03*
%TO.P,J1,4,ID*%
%TO.N,unconnected-(J1-Pad4)*%
X241265000Y-97775000D03*
%TO.P,J1,5,GND*%
%TO.N,GND*%
X241265000Y-97125000D03*
D35*
%TO.P,J1,6,Shield*%
X244050000Y-99575000D03*
D36*
X241350000Y-100912500D03*
X241350000Y-95937500D03*
D37*
X244050000Y-101850000D03*
D38*
X244050000Y-96875000D03*
D37*
X244050000Y-95000000D03*
%TD*%
D39*
%TO.P,C4,1*%
%TO.N,+3.3V*%
X226260000Y-111985000D03*
%TO.P,C4,2*%
%TO.N,GND*%
X226260000Y-113535000D03*
%TD*%
D40*
%TO.P,Y1,1,1*%
%TO.N,Net-(C15-Pad1)*%
X193650464Y-112850273D03*
%TO.P,Y1,2,2*%
%TO.N,Net-(C16-Pad1)*%
X193650464Y-115350273D03*
%TD*%
D41*
%TO.P,J2,1,Pin_1*%
%TO.N,+BATT*%
X228870000Y-93910000D03*
%TO.P,J2,2,Pin_2*%
%TO.N,GND*%
X226870000Y-93910000D03*
%TD*%
D33*
%TO.P,R10,1*%
%TO.N,Vin*%
X192750000Y-93350000D03*
%TO.P,R10,2*%
%TO.N,Net-(R10-Pad2)*%
X194400000Y-93350000D03*
%TD*%
D42*
%TO.P,C13,1*%
%TO.N,Net-(C13-Pad1)*%
X196500000Y-98075000D03*
%TO.P,C13,2*%
%TO.N,GND*%
X196500000Y-96525000D03*
%TD*%
D43*
%TO.P,TP13,1,1*%
%TO.N,Net-(R36-Pad2)*%
X205390000Y-111060000D03*
%TD*%
D44*
%TO.P,F1,1*%
%TO.N,Net-(F1-Pad1)*%
X234095000Y-97760000D03*
%TO.P,F1,2*%
%TO.N,Vin*%
X231085000Y-97760000D03*
%TD*%
D45*
%TO.P,U5,1*%
%TO.N,N/C*%
X197057964Y-115360273D03*
D46*
%TO.P,U5,2,GND*%
%TO.N,GND*%
X198220464Y-115772773D03*
%TO.P,U5,3,VDD*%
%TO.N,+3.3V*%
X198720464Y-115772773D03*
%TO.P,U5,4,~{BOOT}*%
%TO.N,Net-(R8-Pad2)*%
X199220464Y-115772773D03*
%TO.P,U5,5,PS1*%
%TO.N,GND*%
X199720464Y-115772773D03*
D45*
%TO.P,U5,6,PS0/WAKE*%
X200882964Y-115360273D03*
%TO.P,U5,7*%
%TO.N,N/C*%
X200882964Y-114860273D03*
%TO.P,U5,8*%
X200882964Y-114360273D03*
%TO.P,U5,9,CAP*%
%TO.N,Net-(C11-Pad1)*%
X200882964Y-113860273D03*
%TO.P,U5,10,CLKSEL0*%
%TO.N,GND*%
X200882964Y-113360273D03*
%TO.P,U5,11,~{RST}*%
%TO.N,~{BNO_RST}*%
X200882964Y-112860273D03*
%TO.P,U5,12*%
%TO.N,N/C*%
X200882964Y-112360273D03*
%TO.P,U5,13*%
X200882964Y-111860273D03*
%TO.P,U5,14,~{H_INT}*%
%TO.N,BNO_INTERRUPT*%
X200882964Y-111360273D03*
%TO.P,U5,15,ENV_SCL*%
%TO.N,Net-(R15-Pad2)*%
X200882964Y-110860273D03*
D46*
%TO.P,U5,16,ENV_SDA*%
%TO.N,Net-(R16-Pad2)*%
X199720464Y-110447773D03*
%TO.P,U5,17,SA0/H_MOSI*%
%TO.N,GND*%
X199220464Y-110447773D03*
%TO.P,U5,18,~{H_CS}*%
%TO.N,Net-(R7-Pad2)*%
X198720464Y-110447773D03*
%TO.P,U5,19,H_SCL/SCK/RX*%
%TO.N,I2C_SCL*%
X198220464Y-110447773D03*
D45*
%TO.P,U5,20,H_SDA/H_MISO/TX*%
%TO.N,I2C_SDA*%
X197057964Y-110860273D03*
%TO.P,U5,21*%
%TO.N,N/C*%
X197057964Y-111360273D03*
%TO.P,U5,22*%
X197057964Y-111860273D03*
%TO.P,U5,23*%
X197057964Y-112360273D03*
%TO.P,U5,24*%
X197057964Y-112860273D03*
%TO.P,U5,25,GNDIO*%
%TO.N,GND*%
X197057964Y-113360273D03*
%TO.P,U5,26,XOUT32/CLKSEL1*%
%TO.N,Net-(C15-Pad1)*%
X197057964Y-113860273D03*
D47*
%TO.P,U5,27,XIN32*%
%TO.N,Net-(C16-Pad1)*%
X197057964Y-114347773D03*
D45*
%TO.P,U5,28,VDDIO*%
%TO.N,+3.3V*%
X197057964Y-114860273D03*
%TD*%
D43*
%TO.P,TP6,1,1*%
%TO.N,Net-(R33-Pad1)*%
X226660000Y-117790000D03*
%TD*%
D20*
%TO.P,C14,1*%
%TO.N,+3.3V*%
X202025000Y-103350000D03*
%TO.P,C14,2*%
%TO.N,GND*%
X203575000Y-103350000D03*
%TD*%
D48*
%TO.P,D8,1,K*%
%TO.N,~{STDBY}*%
X215315000Y-95180000D03*
%TO.P,D8,2,A*%
%TO.N,Net-(D8-Pad2)*%
X213265000Y-95180000D03*
%TD*%
D49*
%TO.P,H1,1*%
%TO.N,N/C*%
X241633274Y-104533274D03*
X242800000Y-107350000D03*
X244450000Y-105700000D03*
X241633274Y-106866726D03*
X241150000Y-105700000D03*
X243966726Y-106866726D03*
X243966726Y-104533274D03*
D50*
X242800000Y-105700000D03*
D49*
X242800000Y-104050000D03*
%TD*%
D51*
%TO.P,SW4,1,A*%
%TO.N,Net-(D2-Pad1)*%
X237910001Y-94638401D03*
%TO.P,SW4,2,B*%
%TO.N,Net-(F1-Pad1)*%
X234909999Y-94638401D03*
%TO.P,SW4,3*%
%TO.N,N/C*%
X233409999Y-94638401D03*
D52*
%TO.P,SW4,6*%
X239310000Y-93938400D03*
%TO.P,SW4,7*%
X232010000Y-93938400D03*
%TO.P,SW4,8*%
X239310000Y-91838401D03*
%TO.P,SW4,9*%
X232010000Y-91838401D03*
%TD*%
D43*
%TO.P,TP5,1,1*%
%TO.N,Net-(R32-Pad1)*%
X241840000Y-111730000D03*
%TD*%
D25*
%TO.P,R19,1*%
%TO.N,Vin*%
X223795000Y-96040000D03*
%TO.P,R19,2*%
%TO.N,Net-(D5-Pad2)*%
X222145000Y-96040000D03*
%TD*%
D53*
%TO.P,Y2,1,1*%
%TO.N,XTAL_1*%
X217705000Y-100770000D03*
%TO.P,Y2,2,2*%
%TO.N,XTAL_0*%
X220205000Y-100770000D03*
%TD*%
D54*
%TO.P,C12,1*%
%TO.N,Vin*%
X203187500Y-92900000D03*
%TO.P,C12,2*%
%TO.N,GND*%
X206312500Y-92900000D03*
%TD*%
D48*
%TO.P,D7,1,K*%
%TO.N,~{CHRG}*%
X215315000Y-97230000D03*
%TO.P,D7,2,A*%
%TO.N,Net-(D7-Pad2)*%
X213265000Y-97230000D03*
%TD*%
D50*
%TO.P,H3,1*%
%TO.N,N/C*%
X218650000Y-94100000D03*
D49*
X219816726Y-95266726D03*
X217483274Y-95266726D03*
X219816726Y-92933274D03*
X218650000Y-95750000D03*
X220300000Y-94100000D03*
X217000000Y-94100000D03*
X217483274Y-92933274D03*
X218650000Y-92450000D03*
%TD*%
%TO.P,H2,1*%
%TO.N,N/C*%
X194500000Y-104050000D03*
X195666726Y-104533274D03*
X192850000Y-105700000D03*
X193333274Y-104533274D03*
D50*
X194500000Y-105700000D03*
D49*
X195666726Y-106866726D03*
X196150000Y-105700000D03*
X194500000Y-107350000D03*
X193333274Y-106866726D03*
%TD*%
D43*
%TO.P,TP14,1,1*%
%TO.N,Net-(R37-Pad2)*%
X205900000Y-108750000D03*
%TD*%
D55*
%TO.P,C15,1*%
%TO.N,Net-(C15-Pad1)*%
X194146154Y-111270131D03*
%TO.P,C15,2*%
%TO.N,GND*%
X192596154Y-111270131D03*
%TD*%
D56*
%TO.P,D1,1,GND*%
%TO.N,GND*%
X239000000Y-102225000D03*
D57*
%TO.P,D1,2,I/O1*%
%TO.N,USB_D-*%
X239000000Y-100525000D03*
%TO.P,D1,3,I/O2*%
%TO.N,USB_D+*%
X237000000Y-100525000D03*
%TO.P,D1,4,VCC*%
%TO.N,+5V*%
X237000000Y-102425000D03*
%TD*%
D43*
%TO.P,TP15,1,1*%
%TO.N,Net-(R38-Pad2)*%
X199265000Y-119020000D03*
%TD*%
D58*
%TO.P,U1,1,GND*%
%TO.N,GND*%
X220940000Y-112872500D03*
%TO.P,U1,2,GND*%
X220940000Y-112072500D03*
%TO.P,U1,3,3V3*%
%TO.N,+3.3V*%
X220940000Y-111272500D03*
%TO.P,U1,4,I36*%
%TO.N,SESSION_BUTTON*%
X220940000Y-110472500D03*
%TO.P,U1,5,I37*%
%TO.N,unconnected-(U1-Pad5)*%
X220940000Y-109672500D03*
%TO.P,U1,6,I38*%
%TO.N,unconnected-(U1-Pad6)*%
X220940000Y-108872500D03*
%TO.P,U1,7,I39*%
%TO.N,unconnected-(U1-Pad7)*%
X220940000Y-108072500D03*
%TO.P,U1,8,EN*%
%TO.N,~{RESET}*%
X220940000Y-107272500D03*
%TO.P,U1,9,I34*%
%TO.N,unconnected-(U1-Pad9)*%
X220940000Y-106472500D03*
%TO.P,U1,10,I35*%
%TO.N,BATT_READ*%
X220940000Y-105672500D03*
%TO.P,U1,11,GND*%
%TO.N,GND*%
X220940000Y-104872500D03*
D59*
%TO.P,U1,12,IO32*%
%TO.N,XTAL_0*%
X219390000Y-103422500D03*
%TO.P,U1,13,IO33*%
%TO.N,XTAL_1*%
X218590000Y-103422500D03*
%TO.P,U1,14,GND*%
%TO.N,GND*%
X217790000Y-103422500D03*
%TO.P,U1,15,IO25*%
%TO.N,RGB_BLUE*%
X216990000Y-103422500D03*
%TO.P,U1,16,IO26*%
%TO.N,RGB_GREEN*%
X216190000Y-103422500D03*
%TO.P,U1,17,IO27*%
%TO.N,RGB_RED*%
X215390000Y-103422500D03*
%TO.P,U1,18,IO14*%
%TO.N,JTAG_TMS*%
X214590000Y-103422500D03*
%TO.P,U1,19,IO12*%
%TO.N,JTAG_TDI*%
X213790000Y-103422500D03*
%TO.P,U1,20,IO13*%
%TO.N,JTAG_TCK*%
X212990000Y-103422500D03*
%TO.P,U1,21,IO15*%
%TO.N,JTAG_TDO*%
X212190000Y-103422500D03*
%TO.P,U1,22,IO2*%
%TO.N,Net-(R3-Pad2)*%
X211390000Y-103422500D03*
%TO.P,U1,23,IO0*%
%TO.N,GPIO0*%
X210590000Y-103422500D03*
%TO.P,U1,24,IO4*%
%TO.N,unconnected-(U1-Pad24)*%
X209790000Y-103422500D03*
D58*
%TO.P,U1,25,NC*%
%TO.N,unconnected-(U1-Pad25)*%
X208240000Y-104872500D03*
%TO.P,U1,26,IO20*%
%TO.N,I2C_SCL*%
X208240000Y-105672500D03*
%TO.P,U1,27,IO7*%
%TO.N,unconnected-(U1-Pad27)*%
X208240000Y-106472500D03*
%TO.P,U1,28,IO8*%
%TO.N,unconnected-(U1-Pad28)*%
X208240000Y-107272500D03*
%TO.P,U1,29,IO5*%
%TO.N,unconnected-(U1-Pad29)*%
X208240000Y-108072500D03*
%TO.P,U1,30,RXD0*%
%TO.N,PROG_TX*%
X208240000Y-108872500D03*
%TO.P,U1,31,TXD0*%
%TO.N,PROG_RX*%
X208240000Y-109672500D03*
%TO.P,U1,32,NC*%
%TO.N,unconnected-(U1-Pad32)*%
X208240000Y-110472500D03*
%TO.P,U1,33,IO19*%
%TO.N,BNO_INTERRUPT*%
X208240000Y-111272500D03*
%TO.P,U1,34,IO22*%
%TO.N,I2C_SDA*%
X208240000Y-112072500D03*
%TO.P,U1,35,IO21*%
%TO.N,~{BNO_RST}*%
X208240000Y-112872500D03*
D60*
%TO.P,U1,36,GND*%
%TO.N,GND*%
X209790000Y-113772500D03*
%TO.P,U1,37,GND*%
X210590000Y-113772500D03*
%TO.P,U1,38,GND*%
X211390000Y-113772500D03*
%TO.P,U1,39,GND*%
X212190000Y-113772500D03*
%TO.P,U1,40,GND*%
X212990000Y-113772500D03*
%TO.P,U1,41,GND*%
X213790000Y-113772500D03*
%TO.P,U1,42,GND*%
X214590000Y-113772500D03*
%TO.P,U1,43,GND*%
X215390000Y-113772500D03*
%TO.P,U1,44,GND*%
X216190000Y-113772500D03*
%TO.P,U1,45,GND*%
X216990000Y-113772500D03*
%TO.P,U1,46,GND*%
X217790000Y-113772500D03*
%TO.P,U1,47,GND*%
X218590000Y-113772500D03*
%TO.P,U1,48,GND*%
X219390000Y-113772500D03*
D61*
%TO.P,U1,49,GND*%
X214590000Y-108872500D03*
D62*
%TO.P,U1,50,GND*%
X208190000Y-113822500D03*
%TO.P,U1,51,GND*%
X208190000Y-103922500D03*
%TO.P,U1,52,GND*%
X220990000Y-103922500D03*
D63*
%TO.P,U1,53,GND*%
X220990000Y-113772500D03*
D61*
%TO.P,U1,54,GND*%
X216540000Y-108872500D03*
%TO.P,U1,55,GND*%
X216540000Y-106922500D03*
%TO.P,U1,56,GND*%
X214590000Y-106922500D03*
%TO.P,U1,57,GND*%
X212640000Y-106922500D03*
%TO.P,U1,58,GND*%
X212640000Y-108872500D03*
%TO.P,U1,59,GND*%
X212640000Y-110822500D03*
%TO.P,U1,60,GND*%
X214590000Y-110822500D03*
D64*
%TO.P,U1,61,GND*%
X216540000Y-110822500D03*
%TD*%
D43*
%TO.P,TP11,1,1*%
%TO.N,Net-(R29-Pad1)*%
X224510000Y-117770000D03*
%TD*%
%TO.P,TP3,1,1*%
%TO.N,Vin*%
X223790000Y-97830000D03*
%TD*%
D42*
%TO.P,C18,1*%
%TO.N,XTAL_1*%
X216030000Y-100770000D03*
%TO.P,C18,2*%
%TO.N,GND*%
X216030000Y-99220000D03*
%TD*%
D24*
%TO.P,R9,1*%
%TO.N,Net-(R13-Pad2)*%
X193875000Y-101875000D03*
%TO.P,R9,2*%
%TO.N,GND*%
X193875000Y-100225000D03*
%TD*%
D33*
%TO.P,R40,1*%
%TO.N,unconnected-(R40-Pad1)*%
X212865000Y-100750000D03*
%TO.P,R40,2*%
%TO.N,JTAG_TCK*%
X214515000Y-100750000D03*
%TD*%
%TO.P,R22,1*%
%TO.N,+5V*%
X210065000Y-97010000D03*
%TO.P,R22,2*%
%TO.N,Net-(D7-Pad2)*%
X211715000Y-97010000D03*
%TD*%
D42*
%TO.P,C19,1*%
%TO.N,XTAL_0*%
X221880000Y-100770000D03*
%TO.P,C19,2*%
%TO.N,GND*%
X221880000Y-99220000D03*
%TD*%
D33*
%TO.P,R29,1*%
%TO.N,Net-(R29-Pad1)*%
X224515000Y-115910000D03*
%TO.P,R29,2*%
%TO.N,~{RESET}*%
X226165000Y-115910000D03*
%TD*%
D65*
%TO.P,Q3,1,G*%
%TO.N,GND*%
X237917500Y-98470000D03*
%TO.P,Q3,2,S*%
%TO.N,Net-(D2-Pad1)*%
X237917500Y-96570000D03*
%TO.P,Q3,3,D*%
%TO.N,+BATT*%
X236042500Y-97520000D03*
%TD*%
D33*
%TO.P,R30,1*%
%TO.N,Net-(R30-Pad1)*%
X227525000Y-101400000D03*
%TO.P,R30,2*%
%TO.N,GPIO0*%
X229175000Y-101400000D03*
%TD*%
D39*
%TO.P,C5,1*%
%TO.N,+3.3V*%
X223110000Y-111985000D03*
%TO.P,C5,2*%
%TO.N,GND*%
X223110000Y-113535000D03*
%TD*%
D66*
%TO.P,D2,1,K*%
%TO.N,Net-(D2-Pad1)*%
X241300000Y-92470000D03*
%TO.P,D2,2,A*%
%TO.N,+5V*%
X244100000Y-92470000D03*
%TD*%
D43*
%TO.P,TP8,1,1*%
%TO.N,Net-(R35-Pad1)*%
X244510000Y-109040000D03*
%TD*%
D55*
%TO.P,C16,1*%
%TO.N,Net-(C16-Pad1)*%
X194156154Y-116930131D03*
%TO.P,C16,2*%
%TO.N,GND*%
X192606154Y-116930131D03*
%TD*%
D28*
%TO.P,C17,1*%
%TO.N,+3.3V*%
X201875000Y-105350000D03*
%TO.P,C17,2*%
%TO.N,GND*%
X204825000Y-105350000D03*
%TD*%
D33*
%TO.P,R23,1*%
%TO.N,+5V*%
X210055000Y-95400000D03*
%TO.P,R23,2*%
%TO.N,Net-(D8-Pad2)*%
X211705000Y-95400000D03*
%TD*%
D67*
%TO.P,SW2,1,1*%
%TO.N,GND*%
X229960000Y-105336263D03*
X225810000Y-105336263D03*
%TO.P,SW2,2,2*%
%TO.N,GPIO0*%
X225835000Y-103186263D03*
X229960000Y-103186263D03*
%TD*%
%TO.P,SW1,1,1*%
%TO.N,GND*%
X229935000Y-106980000D03*
X225785000Y-106980000D03*
%TO.P,SW1,2,2*%
%TO.N,~{RESET}*%
X229910000Y-109130000D03*
X225785000Y-109130000D03*
%TD*%
D39*
%TO.P,C6,1*%
%TO.N,+3.3V*%
X224685000Y-111985000D03*
%TO.P,C6,2*%
%TO.N,GND*%
X224685000Y-113535000D03*
%TD*%
D24*
%TO.P,R33,1*%
%TO.N,Net-(R33-Pad1)*%
X228450000Y-117455000D03*
%TO.P,R33,2*%
%TO.N,PROG_RTS*%
X228450000Y-115805000D03*
%TD*%
D43*
%TO.P,TP12,1,1*%
%TO.N,Net-(R30-Pad1)*%
X225710000Y-101355000D03*
%TD*%
%TO.P,TP4,1,1*%
%TO.N,Net-(R31-Pad1)*%
X241790000Y-109130000D03*
%TD*%
D20*
%TO.P,C27,1*%
%TO.N,+3.3V*%
X202025000Y-101800000D03*
%TO.P,C27,2*%
%TO.N,GND*%
X203575000Y-101800000D03*
%TD*%
D25*
%TO.P,R36,1*%
%TO.N,I2C_SDA*%
X206225000Y-113490000D03*
%TO.P,R36,2*%
%TO.N,Net-(R36-Pad2)*%
X204575000Y-113490000D03*
%TD*%
D68*
%TO.N,+3.3V*%
X206890000Y-116480000D03*
%TO.N,GND*%
X192610000Y-118060000D03*
X192610000Y-110080000D03*
%TO.N,+3.3V*%
X193570000Y-118910000D03*
%TO.N,Net-(R8-Pad2)*%
X196300000Y-117980000D03*
%TO.N,BNO_INTERRUPT*%
X199450000Y-112040000D03*
%TO.N,GND*%
X198430000Y-111720000D03*
%TO.N,I2C_SCL*%
X205000000Y-109600000D03*
X196870000Y-109200000D03*
%TO.N,Net-(R15-Pad2)*%
X200990000Y-108164500D03*
%TO.N,I2C_SDA*%
X202970000Y-112276889D03*
X202970000Y-110400000D03*
X197050000Y-110200000D03*
%TO.N,Net-(R16-Pad2)*%
X199510000Y-108169500D03*
%TO.N,Net-(R7-Pad2)*%
X197930000Y-108154500D03*
%TO.N,GND*%
X202150000Y-115360000D03*
%TO.N,Net-(C11-Pad1)*%
X202150000Y-113860000D03*
%TO.N,~{BNO_RST}*%
X202130000Y-112870000D03*
%TO.N,BNO_INTERRUPT*%
X206840000Y-111260000D03*
X202120000Y-111360000D03*
%TO.N,I2C_SDA*%
X206254754Y-112226389D03*
%TO.N,Net-(R38-Pad2)*%
X198455000Y-119450000D03*
%TO.N,USB_D+*%
X239510000Y-107924500D03*
X239510378Y-106500378D03*
%TO.N,+5V*%
X208550496Y-92442987D03*
X227892345Y-92417655D03*
X229340000Y-91660000D03*
X242900000Y-91940000D03*
X239897372Y-99801872D03*
X211840000Y-98084500D03*
X221510000Y-92264500D03*
X237080000Y-101650000D03*
X221210000Y-96800000D03*
%TO.N,GPIO0*%
X224967457Y-102491185D03*
X210290000Y-104840000D03*
%TO.N,~{RESET}*%
X222310000Y-107280000D03*
%TO.N,+BATT*%
X213800000Y-92190000D03*
X236090000Y-93910000D03*
%TO.N,Net-(R5-Pad2)*%
X235850500Y-104164500D03*
D69*
%TO.N,Vin*%
X201290000Y-94450000D03*
X198624500Y-96360000D03*
X201290000Y-93210000D03*
X201290000Y-95080000D03*
X201290000Y-93830000D03*
D68*
%TO.N,+3.3V*%
X222800000Y-109205500D03*
X227331435Y-113238972D03*
D69*
X201110000Y-100350000D03*
D68*
X206630000Y-110200000D03*
X195801203Y-115047273D03*
D69*
X201110000Y-100970000D03*
D68*
X206520000Y-103960000D03*
X241180000Y-113880000D03*
D69*
X200950000Y-104250000D03*
X201110000Y-101590000D03*
D68*
X202155000Y-107255000D03*
X198520964Y-117160273D03*
X234851018Y-104158075D03*
X238511191Y-106525500D03*
%TO.N,RGB_RED*%
X217076892Y-112100982D03*
X218162933Y-106465234D03*
X215037823Y-105205997D03*
%TO.N,RGB_GREEN*%
X216026464Y-105059047D03*
X218030000Y-111800000D03*
X218770381Y-105671502D03*
%TO.N,RGB_BLUE*%
X219490498Y-104972002D03*
X217020000Y-104950000D03*
X218790998Y-111012682D03*
%TO.N,~{CHRG}*%
X216477844Y-97105812D03*
%TO.N,~{STDBY}*%
X217315937Y-96561197D03*
%TO.N,Net-(R3-Pad2)*%
X211250743Y-104768426D03*
%TO.N,~{BNO_RST}*%
X209750000Y-112520000D03*
%TO.N,SESSION_BUTTON*%
X223300000Y-114740000D03*
X223320000Y-119660000D03*
X219490498Y-112772998D03*
%TO.N,I2C_SCL*%
X206820000Y-105660000D03*
X205350000Y-107200000D03*
%TO.N,PROG_DTR*%
X231100000Y-103260000D03*
X231070000Y-108950500D03*
X236050000Y-110840000D03*
%TO.N,BATT_READ*%
X222948453Y-98895317D03*
%TO.N,PROG_RTS*%
X232022286Y-111167214D03*
X233230000Y-109650000D03*
X228099500Y-111004500D03*
%TO.N,PROG_TX*%
X234882691Y-111161752D03*
X210398907Y-110604500D03*
%TO.N,PROG_RX*%
X234050000Y-112074000D03*
X209630000Y-109930000D03*
X234010000Y-110674500D03*
%TO.N,PROG_CTS*%
X231769500Y-104890000D03*
%TO.N,GND*%
X208480000Y-93440000D03*
X227372362Y-114237637D03*
D69*
X193310000Y-96320000D03*
D68*
X232700000Y-98500000D03*
D69*
X205980000Y-94940000D03*
D68*
X220720000Y-99050000D03*
X197390464Y-116950273D03*
D69*
X200171110Y-100472067D03*
X205980000Y-94340000D03*
D68*
X211495649Y-92292141D03*
X238682748Y-108485445D03*
X224721622Y-104847739D03*
D69*
X205530000Y-103410000D03*
D68*
X200470464Y-116750273D03*
D69*
X205530000Y-100950000D03*
X199370000Y-95624500D03*
D68*
X223960000Y-100220000D03*
X217150000Y-99020000D03*
D69*
X205530000Y-101560000D03*
D68*
X224850000Y-92814500D03*
X237910000Y-102940000D03*
X195770962Y-112920273D03*
D69*
X205530000Y-102790000D03*
D68*
X208180000Y-103045500D03*
D69*
X193840000Y-96800000D03*
X193830000Y-95780000D03*
D68*
X210965656Y-98661093D03*
X234100000Y-101970000D03*
X236630000Y-98500000D03*
X220980000Y-102970000D03*
X244880000Y-98050000D03*
X198460000Y-93340000D03*
X197935000Y-98865000D03*
D69*
X205530000Y-102170000D03*
D70*
%TO.N,Net-(L1-Pad1)*%
X205760000Y-97160000D03*
X203210000Y-97080000D03*
X202190000Y-97080000D03*
X202700000Y-97090000D03*
X205760000Y-96130000D03*
X205770000Y-96650000D03*
%TO.N,Net-(L1-Pad2)*%
X203210000Y-98470000D03*
X205740000Y-98880000D03*
X205740000Y-98360000D03*
X205740000Y-99400000D03*
X202200000Y-98490000D03*
X202710000Y-98490000D03*
D68*
%TO.N,Net-(R31-Pad1)*%
X241780000Y-109930000D03*
%TO.N,Net-(R32-Pad1)*%
X241810000Y-112650000D03*
%TO.N,Net-(R35-Pad1)*%
X243600000Y-108940000D03*
%TO.N,Net-(R37-Pad2)*%
X206750000Y-108750000D03*
%TO.N,JTAG_TDI*%
X213175188Y-105009119D03*
%TO.N,JTAG_TDO*%
X212200000Y-104790000D03*
D71*
%TO.N,unconnected-(R39-Pad1)*%
X211729357Y-100510547D03*
%TO.N,unconnected-(R40-Pad1)*%
X211740000Y-101660000D03*
%TO.N,unconnected-(R41-Pad1)*%
X210579898Y-100520540D03*
%TO.N,unconnected-(R42-Pad1)*%
X210570000Y-101670000D03*
%TD*%
D72*
%TO.N,I2C_SDA*%
X206254754Y-113460246D02*
X206225000Y-113490000D01*
X206254754Y-112226389D02*
X206254754Y-113460246D01*
%TO.N,Net-(R36-Pad2)*%
X205390000Y-112675000D02*
X205390000Y-111060000D01*
X204575000Y-113490000D02*
X205390000Y-112675000D01*
%TO.N,GND*%
X192606154Y-118056154D02*
X192610000Y-118060000D01*
X192606154Y-116930131D02*
X192606154Y-118056154D01*
X192596154Y-110093846D02*
X192610000Y-110080000D01*
X192596154Y-111270131D02*
X192596154Y-110093846D01*
%TO.N,Net-(R8-Pad2)*%
X198910000Y-117980000D02*
X196300000Y-117980000D01*
X199160000Y-117730000D02*
X198910000Y-117980000D01*
X199220464Y-117669536D02*
X199160000Y-117730000D01*
X199220464Y-115772773D02*
X199220464Y-117669536D01*
%TO.N,GND*%
X198430000Y-112180000D02*
X198430000Y-111720000D01*
X199610273Y-113360273D02*
X198430000Y-112180000D01*
%TO.N,BNO_INTERRUPT*%
X200129727Y-111360273D02*
X199450000Y-112040000D01*
X200882964Y-111360273D02*
X200129727Y-111360273D01*
%TO.N,GND*%
X198785737Y-111720000D02*
X198430000Y-111720000D01*
X199220464Y-111285273D02*
X198785737Y-111720000D01*
X199220464Y-110447773D02*
X199220464Y-111285273D01*
X200882964Y-113360273D02*
X199610273Y-113360273D01*
%TO.N,I2C_SCL*%
X205000000Y-107550000D02*
X205350000Y-107200000D01*
X205000000Y-109600000D02*
X205000000Y-107550000D01*
X196972691Y-109200000D02*
X196870000Y-109200000D01*
X198220464Y-110447773D02*
X196972691Y-109200000D01*
%TO.N,Net-(R15-Pad2)*%
X200882964Y-108271536D02*
X200990000Y-108164500D01*
X200882964Y-110860273D02*
X200882964Y-108271536D01*
%TO.N,I2C_SDA*%
X202970000Y-112130000D02*
X202970000Y-112276889D01*
X202970000Y-110400000D02*
X202970000Y-112130000D01*
X197057964Y-110207964D02*
X197050000Y-110200000D01*
X197057964Y-110860273D02*
X197057964Y-110207964D01*
%TO.N,Net-(R16-Pad2)*%
X199720464Y-108379964D02*
X199510000Y-108169500D01*
X199720464Y-110447773D02*
X199720464Y-108379964D01*
%TO.N,Net-(R7-Pad2)*%
X198720464Y-108944964D02*
X197930000Y-108154500D01*
X198720464Y-110447773D02*
X198720464Y-108944964D01*
%TO.N,GND*%
X200883237Y-115360000D02*
X200882964Y-115360273D01*
X202150000Y-115360000D02*
X200883237Y-115360000D01*
%TO.N,Net-(C11-Pad1)*%
X200883237Y-113860000D02*
X200882964Y-113860273D01*
X202150000Y-113860000D02*
X200883237Y-113860000D01*
%TO.N,~{BNO_RST}*%
X200892691Y-112870000D02*
X200882964Y-112860273D01*
X202130000Y-112870000D02*
X200892691Y-112870000D01*
%TO.N,BNO_INTERRUPT*%
X200883237Y-111360000D02*
X200882964Y-111360273D01*
X202120000Y-111360000D02*
X200883237Y-111360000D01*
X206852500Y-111272500D02*
X206840000Y-111260000D01*
X208240000Y-111272500D02*
X206852500Y-111272500D01*
D73*
%TO.N,Net-(R38-Pad2)*%
X198835000Y-119450000D02*
X199265000Y-119020000D01*
X198455000Y-119450000D02*
X198835000Y-119450000D01*
%TO.N,Net-(C13-Pad1)*%
X199351150Y-98012050D02*
X196562950Y-98012050D01*
X196562950Y-98012050D02*
X196500000Y-98075000D01*
D72*
%TO.N,USB_D+*%
X241390000Y-98425000D02*
X239336396Y-98425000D01*
X239730000Y-101505000D02*
X239730000Y-106280756D01*
X237367500Y-107720000D02*
X237362500Y-107725000D01*
X238520000Y-101310000D02*
X239535000Y-101310000D01*
X237000000Y-100525000D02*
X237735000Y-100525000D01*
X239510000Y-107924500D02*
X239364500Y-107924500D01*
X237735000Y-100525000D02*
X238520000Y-101310000D01*
X239730000Y-106280756D02*
X239510378Y-106500378D01*
X237236396Y-100525000D02*
X237000000Y-100525000D01*
X239160000Y-107720000D02*
X237367500Y-107720000D01*
X239336396Y-98425000D02*
X237236396Y-100525000D01*
X239535000Y-101310000D02*
X239730000Y-101505000D01*
X239364500Y-107924500D02*
X239160000Y-107720000D01*
%TO.N,USB_D-*%
X237362500Y-107225000D02*
X239775706Y-107225000D01*
X240210378Y-106190378D02*
X240130000Y-106110000D01*
X239000000Y-99710000D02*
X239000000Y-100525000D01*
X239775706Y-107225000D02*
X240210378Y-106790328D01*
X240130000Y-106110000D02*
X240130000Y-100870000D01*
X240130000Y-100870000D02*
X239785000Y-100525000D01*
X239635000Y-99075000D02*
X239000000Y-99710000D01*
X240210378Y-106790328D02*
X240210378Y-106190378D01*
X241390000Y-99075000D02*
X239635000Y-99075000D01*
X239785000Y-100525000D02*
X239000000Y-100525000D01*
D74*
%TO.N,+5V*%
X242725000Y-93675000D02*
X243930000Y-92470000D01*
D72*
X236200000Y-103090000D02*
X235635000Y-103090000D01*
D74*
X243930000Y-92470000D02*
X244100000Y-92470000D01*
X221510000Y-92264500D02*
X221370000Y-92404500D01*
D72*
X236300000Y-102425000D02*
X235635000Y-103090000D01*
D74*
X221370000Y-96640000D02*
X221210000Y-96800000D01*
D72*
X236550000Y-105412500D02*
X236550000Y-103440000D01*
X241265000Y-99725000D02*
X239974244Y-99725000D01*
D74*
X221370000Y-92404500D02*
X221370000Y-96640000D01*
X210055000Y-93918984D02*
X210055000Y-95400000D01*
D72*
X237080000Y-102345000D02*
X237000000Y-102425000D01*
D75*
X211444500Y-98084500D02*
X210370000Y-97010000D01*
D74*
X210065000Y-95410000D02*
X210055000Y-95400000D01*
X208550496Y-92442987D02*
X208579003Y-92442987D01*
X242900000Y-91940000D02*
X243570000Y-91940000D01*
X210065000Y-97010000D02*
X210065000Y-95410000D01*
X242725000Y-99355000D02*
X242355000Y-99725000D01*
X243570000Y-91940000D02*
X244100000Y-92470000D01*
X229340000Y-91660000D02*
X228650000Y-91660000D01*
D75*
X210370000Y-97010000D02*
X210065000Y-97010000D01*
X211840000Y-98084500D02*
X211444500Y-98084500D01*
D72*
X239974244Y-99725000D02*
X239897372Y-99801872D01*
X237000000Y-102425000D02*
X236300000Y-102425000D01*
X237080000Y-101650000D02*
X237080000Y-102345000D01*
X236550000Y-103440000D02*
X236200000Y-103090000D01*
D74*
X242355000Y-99725000D02*
X241390000Y-99725000D01*
X228650000Y-91660000D02*
X227892345Y-92417655D01*
X208579003Y-92442987D02*
X210055000Y-93918984D01*
X242725000Y-93675000D02*
X242725000Y-99355000D01*
%TO.N,Net-(D2-Pad1)*%
X241300000Y-92470000D02*
X241300000Y-94020000D01*
X237910001Y-94638401D02*
X237910001Y-96562501D01*
X241300000Y-94020000D02*
X240600200Y-94719800D01*
X237991400Y-94719800D02*
X237910001Y-94638401D01*
X237910001Y-96562501D02*
X237917500Y-96570000D01*
X240600200Y-94719800D02*
X237991400Y-94719800D01*
D72*
%TO.N,GPIO0*%
X224967457Y-102491185D02*
X225139922Y-102491185D01*
D73*
X229175000Y-102401263D02*
X229960000Y-103186263D01*
D72*
X225835000Y-103186263D02*
X229960000Y-103186263D01*
X210590000Y-103422500D02*
X210590000Y-104540000D01*
X210590000Y-104540000D02*
X210290000Y-104840000D01*
X225139922Y-102491185D02*
X225835000Y-103186263D01*
D73*
X229175000Y-101400000D02*
X229175000Y-102401263D01*
D72*
%TO.N,~{RESET}*%
X225785000Y-109130000D02*
X224160000Y-109130000D01*
X222310000Y-107280000D02*
X220947500Y-107280000D01*
X225785000Y-109130000D02*
X227400000Y-110745000D01*
X225785000Y-109130000D02*
X229910000Y-109130000D01*
X228072362Y-114527638D02*
X226690000Y-115910000D01*
X227399500Y-112317087D02*
X228072362Y-112989949D01*
X220947500Y-107280000D02*
X220940000Y-107272500D01*
X227399500Y-110745000D02*
X227399500Y-112317087D01*
X224160000Y-109130000D02*
X222310000Y-107280000D01*
X226690000Y-115910000D02*
X226165000Y-115910000D01*
X228072362Y-112989949D02*
X228072362Y-114527638D01*
D74*
%TO.N,+BATT*%
X215365000Y-92980000D02*
X214590000Y-92980000D01*
X214590000Y-92980000D02*
X213800000Y-92190000D01*
X236042500Y-93957500D02*
X236090000Y-93910000D01*
X236042500Y-97520000D02*
X236042500Y-93957500D01*
D72*
%TO.N,Net-(C15-Pad1)*%
X197057964Y-113860273D02*
X194660464Y-113860273D01*
X194120464Y-111285273D02*
X194120464Y-112380273D01*
X194660464Y-113860273D02*
X193650464Y-112850273D01*
X194120464Y-112380273D02*
X193650464Y-112850273D01*
%TO.N,Net-(R5-Pad2)*%
X235850500Y-104164500D02*
X236050000Y-104364000D01*
X236050000Y-104364000D02*
X236050000Y-105412500D01*
D74*
%TO.N,Vin*%
X224650000Y-93750000D02*
X224150000Y-93250000D01*
X222285000Y-91943484D02*
X221756516Y-91415000D01*
X224650000Y-94900000D02*
X224650000Y-93750000D01*
X224995000Y-99035000D02*
X223790000Y-97830000D01*
X223795000Y-95755000D02*
X224650000Y-94900000D01*
X222650000Y-93250000D02*
X222285000Y-92885000D01*
X223795000Y-96040000D02*
X223795000Y-95755000D01*
D73*
X192750000Y-93350000D02*
X192750000Y-92175000D01*
X198690000Y-96770000D02*
X198574500Y-96654500D01*
X198574500Y-96654500D02*
X198574500Y-96410000D01*
D74*
X228010000Y-99035000D02*
X224995000Y-99035000D01*
X223790000Y-96045000D02*
X223795000Y-96040000D01*
D73*
X198943750Y-97023750D02*
X198690000Y-96770000D01*
D74*
X224150000Y-93250000D02*
X222650000Y-93250000D01*
D73*
X198574500Y-96410000D02*
X198624500Y-96360000D01*
X199351150Y-97023750D02*
X198943750Y-97023750D01*
D74*
X231085000Y-97760000D02*
X229285000Y-97760000D01*
X222285000Y-92885000D02*
X222285000Y-91943484D01*
X223790000Y-97830000D02*
X223790000Y-96045000D01*
X229285000Y-97760000D02*
X228010000Y-99035000D01*
X221756516Y-91415000D02*
X192695000Y-91415000D01*
D72*
%TO.N,Net-(C16-Pad1)*%
X197057964Y-114347773D02*
X194652964Y-114347773D01*
X194120464Y-115820273D02*
X193650464Y-115350273D01*
X194120464Y-116860273D02*
X194120464Y-115820273D01*
X194652964Y-114347773D02*
X193650464Y-115350273D01*
%TO.N,XTAL_1*%
X218590000Y-103422500D02*
X218590000Y-101655000D01*
X216030000Y-100770000D02*
X217705000Y-100770000D01*
X218590000Y-101655000D02*
X217705000Y-100770000D01*
%TO.N,XTAL_0*%
X219390000Y-101585000D02*
X220205000Y-100770000D01*
X219390000Y-103422500D02*
X219390000Y-101585000D01*
X221880000Y-100770000D02*
X220205000Y-100770000D01*
%TO.N,+3.3V*%
X238511191Y-106525500D02*
X237562000Y-106525500D01*
X195988203Y-114860273D02*
X197057964Y-114860273D01*
X198720464Y-116960773D02*
X198520964Y-117160273D01*
D75*
X226260000Y-111985000D02*
X226260000Y-112167537D01*
D72*
X235550000Y-105412500D02*
X235550000Y-104857057D01*
X198720464Y-115772773D02*
X198720464Y-116960773D01*
X195801203Y-115047273D02*
X195988203Y-114860273D01*
X237362500Y-106225000D02*
X237362500Y-106725000D01*
X235550000Y-104857057D02*
X234851018Y-104158075D01*
D75*
X226260000Y-111985000D02*
X223110000Y-111985000D01*
X220940000Y-111272500D02*
X222397500Y-111272500D01*
X222397500Y-111272500D02*
X223110000Y-111985000D01*
X226260000Y-112167537D02*
X227331435Y-113238972D01*
D72*
X237562000Y-106525500D02*
X237362500Y-106725000D01*
%TO.N,Net-(D5-Pad2)*%
X223420000Y-94287500D02*
X223420000Y-94765000D01*
X223420000Y-94765000D02*
X222145000Y-96040000D01*
%TO.N,RGB_RED*%
X215390000Y-103422500D02*
X215390000Y-104350000D01*
X218694368Y-106996669D02*
X218162933Y-106465234D01*
X217630000Y-110618044D02*
X218694368Y-109553676D01*
X215037823Y-104702177D02*
X215390000Y-104350000D01*
X217076892Y-111763158D02*
X217630000Y-111210050D01*
X218694368Y-109553676D02*
X218694368Y-106996669D01*
X217076892Y-112100982D02*
X217076892Y-111763158D01*
X217630000Y-111210050D02*
X217630000Y-110618044D01*
X215037823Y-105205997D02*
X215037823Y-104702177D01*
%TO.N,RGB_GREEN*%
X218030000Y-111800000D02*
X218030000Y-110783730D01*
X216190000Y-103422500D02*
X216190000Y-104895511D01*
X216190000Y-104895511D02*
X216026464Y-105059047D01*
X219094368Y-105995489D02*
X218770381Y-105671502D01*
X219094368Y-109719361D02*
X219094368Y-105995489D01*
X218030000Y-110783730D02*
X219094368Y-109719361D01*
%TO.N,RGB_BLUE*%
X218790998Y-111009002D02*
X219494368Y-110305632D01*
X218790998Y-111012682D02*
X218790998Y-111009002D01*
X217020000Y-103452500D02*
X216990000Y-103422500D01*
X219494368Y-104975872D02*
X219490498Y-104972002D01*
X219494368Y-110305632D02*
X219494368Y-104975872D01*
X217020000Y-104950000D02*
X217020000Y-103452500D01*
%TO.N,Net-(D7-Pad2)*%
X211935000Y-97230000D02*
X211715000Y-97010000D01*
X213265000Y-97230000D02*
X211935000Y-97230000D01*
%TO.N,~{CHRG}*%
X216353656Y-97230000D02*
X216477844Y-97105812D01*
X215315000Y-97230000D02*
X216353656Y-97230000D01*
%TO.N,Net-(D8-Pad2)*%
X211925000Y-95180000D02*
X211705000Y-95400000D01*
X213265000Y-95180000D02*
X211925000Y-95180000D01*
%TO.N,~{STDBY}*%
X216194466Y-95180000D02*
X217315937Y-96301471D01*
X215315000Y-95180000D02*
X216194466Y-95180000D01*
X217315937Y-96301471D02*
X217315937Y-96561197D01*
%TO.N,Net-(R3-Pad2)*%
X211390000Y-103422500D02*
X211390000Y-104629169D01*
X211390000Y-104629169D02*
X211250743Y-104768426D01*
%TO.N,~{BNO_RST}*%
X209397500Y-112872500D02*
X209750000Y-112520000D01*
X208240000Y-112872500D02*
X209397500Y-112872500D01*
%TO.N,SESSION_BUTTON*%
X223300000Y-114740000D02*
X223300000Y-119640000D01*
X219490498Y-110969502D02*
X219490498Y-112772998D01*
X223300000Y-119640000D02*
X223320000Y-119660000D01*
X220940000Y-110472500D02*
X219987500Y-110472500D01*
X219987500Y-110472500D02*
X219490498Y-110969502D01*
%TO.N,I2C_SDA*%
X206408643Y-112072500D02*
X206254754Y-112226389D01*
X208240000Y-112072500D02*
X206408643Y-112072500D01*
%TO.N,I2C_SCL*%
X208240000Y-105672500D02*
X206832500Y-105672500D01*
%TO.N,PROG_DTR*%
X236050000Y-109537500D02*
X236050000Y-110840000D01*
X231070000Y-108950500D02*
X231070000Y-103290000D01*
X231070000Y-103290000D02*
X231100000Y-103260000D01*
%TO.N,BATT_READ*%
X222910000Y-98900000D02*
X222943770Y-98900000D01*
X222187500Y-105672500D02*
X222910000Y-104950000D01*
X222910000Y-104950000D02*
X222910000Y-98900000D01*
X220940000Y-105672500D02*
X222187500Y-105672500D01*
X222943770Y-98900000D02*
X222948453Y-98895317D01*
%TO.N,PROG_RTS*%
X234050000Y-109537500D02*
X233342500Y-109537500D01*
X228472362Y-112824264D02*
X228472362Y-115782638D01*
X233342500Y-109537500D02*
X233230000Y-109650000D01*
X228472362Y-115782638D02*
X228450000Y-115805000D01*
X232022286Y-111167214D02*
X232022286Y-110857714D01*
X232022286Y-110857714D02*
X233230000Y-109650000D01*
X228099500Y-111004500D02*
X228099500Y-112451401D01*
X228099500Y-112451401D02*
X228472362Y-112824264D01*
%TO.N,Net-(R29-Pad1)*%
X224515000Y-117765000D02*
X224510000Y-117770000D01*
X224515000Y-115910000D02*
X224515000Y-117765000D01*
%TO.N,PROG_TX*%
X210398907Y-110604500D02*
X210398907Y-109498907D01*
X209772500Y-108872500D02*
X208240000Y-108872500D01*
X235050000Y-110994443D02*
X234882691Y-111161752D01*
X210398907Y-109498907D02*
X209772500Y-108872500D01*
X235050000Y-109537500D02*
X235050000Y-110994443D01*
%TO.N,PROG_RX*%
X234010000Y-110674500D02*
X234010000Y-112034000D01*
X209372500Y-109672500D02*
X209630000Y-109930000D01*
X234550000Y-109537500D02*
X234550000Y-110134500D01*
X208240000Y-109672500D02*
X209372500Y-109672500D01*
X234010000Y-112034000D02*
X234050000Y-112074000D01*
X234550000Y-110134500D02*
X234010000Y-110674500D01*
%TO.N,PROG_CTS*%
X232135000Y-108725000D02*
X231550000Y-108140000D01*
X233237500Y-108725000D02*
X232135000Y-108725000D01*
X231550000Y-105109500D02*
X231769500Y-104890000D01*
X231550000Y-108140000D02*
X231550000Y-105109500D01*
D74*
%TO.N,Net-(F1-Pad1)*%
X234909999Y-94638401D02*
X234909999Y-96945001D01*
X234909999Y-96945001D02*
X234095000Y-97760000D01*
D72*
%TO.N,GND*%
X225810000Y-106955000D02*
X225785000Y-106980000D01*
X225785000Y-106980000D02*
X229935000Y-106980000D01*
X200882964Y-115360273D02*
X200132964Y-115360273D01*
D74*
X226335000Y-94445000D02*
X226870000Y-93910000D01*
X212183508Y-92980000D02*
X211495649Y-92292141D01*
D72*
X197057964Y-113360273D02*
X196210962Y-113360273D01*
D75*
X212640000Y-110822500D02*
X212640000Y-106922500D01*
X214590000Y-106922500D02*
X214590000Y-110822500D01*
D73*
X197935000Y-98865000D02*
X197550000Y-99250000D01*
D75*
X217790000Y-103422500D02*
X217790000Y-105240661D01*
D72*
X234085000Y-103090000D02*
X234085000Y-101985000D01*
X196210962Y-113360273D02*
X195770962Y-112920273D01*
D75*
X220990000Y-103922500D02*
X220990000Y-104822500D01*
D74*
X236660000Y-98470000D02*
X236630000Y-98500000D01*
D73*
X210590000Y-113772500D02*
X211390000Y-113772500D01*
X199851250Y-96271250D02*
X199851250Y-96105750D01*
D72*
X200132964Y-115360273D02*
X199720464Y-115772773D01*
X238285000Y-102940000D02*
X239000000Y-102225000D01*
D74*
X241265000Y-97125000D02*
X239262500Y-97125000D01*
D73*
X198276250Y-98523750D02*
X197935000Y-98865000D01*
D72*
X237910000Y-102940000D02*
X238285000Y-102940000D01*
X216030000Y-99220000D02*
X216950000Y-99220000D01*
X229960000Y-106955000D02*
X229935000Y-106980000D01*
D75*
X220940000Y-112872500D02*
X220940000Y-113722500D01*
D72*
X225810000Y-105336263D02*
X225810000Y-106955000D01*
D74*
X212415000Y-92980000D02*
X212183508Y-92980000D01*
D75*
X220940000Y-113722500D02*
X220990000Y-113772500D01*
D72*
X216950000Y-99220000D02*
X217150000Y-99020000D01*
D73*
X201251750Y-97773750D02*
X204006250Y-97773750D01*
D74*
X244050000Y-101850000D02*
X244050000Y-99575000D01*
X226335000Y-97760000D02*
X226335000Y-94445000D01*
D75*
X208240000Y-113772500D02*
X208190000Y-113822500D01*
X220940000Y-112072500D02*
X220940000Y-112872500D01*
X216540000Y-106490661D02*
X216540000Y-106922500D01*
D72*
X198220464Y-115772773D02*
X198220464Y-116120273D01*
D75*
X208190000Y-103055500D02*
X208180000Y-103045500D01*
X217790000Y-105240661D02*
X216540000Y-106490661D01*
X226260000Y-113535000D02*
X226260000Y-113560000D01*
D72*
X199720464Y-116000273D02*
X200470464Y-116750273D01*
D75*
X216540000Y-106922500D02*
X216540000Y-110822500D01*
X214590000Y-110822500D02*
X214590000Y-113772500D01*
D73*
X209740000Y-113822500D02*
X209790000Y-113772500D01*
D75*
X212640000Y-106922500D02*
X216540000Y-106922500D01*
D72*
X199720464Y-115772773D02*
X199720464Y-116000273D01*
X234085000Y-101985000D02*
X234100000Y-101970000D01*
X198220464Y-116120273D02*
X197390464Y-116950273D01*
D75*
X220990000Y-102980000D02*
X220980000Y-102970000D01*
D74*
X244050000Y-96875000D02*
X244050000Y-99575000D01*
D75*
X218590000Y-113772500D02*
X217790000Y-113772500D01*
D74*
X239262500Y-97125000D02*
X237917500Y-98470000D01*
X244050000Y-95000000D02*
X244050000Y-96875000D01*
D72*
X225210146Y-105336263D02*
X224721622Y-104847739D01*
D75*
X220990000Y-104822500D02*
X220940000Y-104872500D01*
X223110000Y-113535000D02*
X226260000Y-113535000D01*
D73*
X198450000Y-93350000D02*
X198460000Y-93340000D01*
D75*
X220990000Y-113772500D02*
X219390000Y-113772500D01*
D73*
X195362500Y-99462500D02*
X194800000Y-100025000D01*
D74*
X244050000Y-97220000D02*
X244880000Y-98050000D01*
D75*
X216540000Y-110822500D02*
X212640000Y-110822500D01*
D73*
X199851250Y-96105750D02*
X199370000Y-95624500D01*
D72*
X238422303Y-108225000D02*
X238682748Y-108485445D01*
D73*
X197450000Y-93350000D02*
X198450000Y-93350000D01*
D72*
X225810000Y-105336263D02*
X225210146Y-105336263D01*
D74*
X241265000Y-97125000D02*
X241265000Y-96022500D01*
D72*
X237362500Y-108225000D02*
X238422303Y-108225000D01*
D75*
X208190000Y-103922500D02*
X208190000Y-103055500D01*
X223110000Y-113535000D02*
X221227500Y-113535000D01*
D72*
X224273000Y-92237500D02*
X224850000Y-92814500D01*
D73*
X208290000Y-113822500D02*
X209740000Y-113822500D01*
D74*
X241350000Y-100912500D02*
X243112500Y-100912500D01*
D75*
X226937637Y-114237637D02*
X227372362Y-114237637D01*
X226260000Y-113560000D02*
X226937637Y-114237637D01*
X217790000Y-113772500D02*
X208240000Y-113772500D01*
X220990000Y-103922500D02*
X220990000Y-102980000D01*
D74*
X241265000Y-96022500D02*
X241350000Y-95937500D01*
D75*
X221227500Y-113535000D02*
X220990000Y-113772500D01*
D73*
X204006250Y-97773750D02*
X204010000Y-97770000D01*
D72*
X221880000Y-99220000D02*
X220890000Y-99220000D01*
X229960000Y-105336263D02*
X229960000Y-106955000D01*
D75*
X216540000Y-108872500D02*
X212640000Y-108872500D01*
D73*
X199351150Y-98523750D02*
X198276250Y-98523750D01*
D74*
X244050000Y-96875000D02*
X244050000Y-97220000D01*
D75*
X219390000Y-113772500D02*
X218590000Y-113772500D01*
D73*
X195575000Y-99250000D02*
X195362500Y-99462500D01*
D74*
X243112500Y-100912500D02*
X244050000Y-101850000D01*
X237917500Y-98470000D02*
X236660000Y-98470000D01*
D73*
X197550000Y-99250000D02*
X195575000Y-99250000D01*
D72*
X223420000Y-92237500D02*
X224273000Y-92237500D01*
D73*
X200350450Y-100292727D02*
X200171110Y-100472067D01*
X209790000Y-113772500D02*
X210590000Y-113772500D01*
D72*
X236050000Y-108225000D02*
X235300000Y-107475000D01*
D73*
X200350450Y-99276250D02*
X200350450Y-100292727D01*
D72*
X237362500Y-108225000D02*
X236050000Y-108225000D01*
X220890000Y-99220000D02*
X220720000Y-99050000D01*
D73*
%TO.N,Net-(R13-Pad2)*%
X194050000Y-102050000D02*
X193875000Y-101875000D01*
X199851250Y-99276250D02*
X199851250Y-99908750D01*
X198685000Y-101075000D02*
X198200000Y-101075000D01*
X198200000Y-101075000D02*
X196500000Y-101075000D01*
X196500000Y-101075000D02*
X196150000Y-101425000D01*
X196150000Y-101925000D02*
X196025000Y-102050000D01*
X196150000Y-101425000D02*
X196150000Y-101925000D01*
X196025000Y-102050000D02*
X194050000Y-102050000D01*
X199851250Y-99908750D02*
X198685000Y-101075000D01*
%TO.N,Net-(R10-Pad2)*%
X198300000Y-95000000D02*
X199800000Y-95000000D01*
X198200000Y-94900000D02*
X198300000Y-95000000D01*
X198200000Y-94900000D02*
X198100000Y-94800000D01*
X200351250Y-95551250D02*
X200351250Y-96271250D01*
X197875000Y-94250000D02*
X197825000Y-94250000D01*
X197825000Y-94250000D02*
X196125000Y-94250000D01*
X199800000Y-95000000D02*
X200351250Y-95551250D01*
X198100000Y-94800000D02*
X198100000Y-94475000D01*
X198100000Y-94475000D02*
X197875000Y-94250000D01*
%TO.N,Net-(R14-Pad2)*%
X196450000Y-103150000D02*
X197900000Y-104600000D01*
X192325000Y-95100000D02*
X191950000Y-95475000D01*
X198000000Y-95500000D02*
X197600000Y-95100000D01*
X197900000Y-104600000D02*
X197900000Y-104775000D01*
X192500000Y-103150000D02*
X196450000Y-103150000D01*
X191950000Y-102600000D02*
X192500000Y-103150000D01*
X199351150Y-97523750D02*
X198398750Y-97523750D01*
X198000000Y-97125000D02*
X198000000Y-95500000D01*
X191950000Y-95475000D02*
X191950000Y-102600000D01*
X197600000Y-95100000D02*
X192325000Y-95100000D01*
X198398750Y-97523750D02*
X198000000Y-97125000D01*
%TO.N,Net-(L1-Pad1)*%
X201426750Y-97271150D02*
X201858850Y-97271150D01*
X202050000Y-97080000D02*
X202200000Y-97080000D01*
X201858850Y-97271150D02*
X202040000Y-97090000D01*
X202040000Y-97090000D02*
X202050000Y-97080000D01*
X202200000Y-97080000D02*
X203210000Y-97080000D01*
%TO.N,Net-(L1-Pad2)*%
X202150000Y-98470000D02*
X203210000Y-98470000D01*
X202110000Y-98430000D02*
X202150000Y-98470000D01*
X201426750Y-98273750D02*
X201953750Y-98273750D01*
X201953750Y-98273750D02*
X202110000Y-98430000D01*
%TO.N,Net-(R30-Pad1)*%
X227525000Y-101400000D02*
X225755000Y-101400000D01*
X225755000Y-101400000D02*
X225710000Y-101355000D01*
D72*
%TO.N,Net-(R31-Pad1)*%
X241780000Y-109140000D02*
X241790000Y-109130000D01*
X241780000Y-109930000D02*
X241780000Y-109140000D01*
%TO.N,Net-(R32-Pad1)*%
X241810000Y-111760000D02*
X241840000Y-111730000D01*
X241810000Y-112650000D02*
X241810000Y-111760000D01*
%TO.N,Net-(R33-Pad1)*%
X228450000Y-117455000D02*
X226995000Y-117455000D01*
X226995000Y-117455000D02*
X226660000Y-117790000D01*
%TO.N,Net-(R35-Pad1)*%
X243600000Y-108940000D02*
X244410000Y-108940000D01*
X244410000Y-108940000D02*
X244510000Y-109040000D01*
%TO.N,Net-(R37-Pad2)*%
X206750000Y-108750000D02*
X205900000Y-108750000D01*
%TO.N,JTAG_TDI*%
X213790000Y-103422500D02*
X213790000Y-104394307D01*
X213790000Y-104394307D02*
X213175188Y-105009119D01*
%TO.N,JTAG_TCK*%
X212990000Y-102275000D02*
X214515000Y-100750000D01*
X212990000Y-103422500D02*
X212990000Y-102275000D01*
%TO.N,JTAG_TMS*%
X214590000Y-103422500D02*
X214590000Y-101857107D01*
X215215000Y-101232107D02*
X215215000Y-99920000D01*
X215215000Y-99920000D02*
X214515000Y-99220000D01*
X214590000Y-101857107D02*
X215215000Y-101232107D01*
%TO.N,JTAG_TDO*%
X212190000Y-104780000D02*
X212200000Y-104790000D01*
X212190000Y-103422500D02*
X212190000Y-104780000D01*
%TO.N,unconnected-(R40-Pad1)*%
X212865000Y-100750000D02*
X212865000Y-101425000D01*
X212865000Y-101425000D02*
X212530000Y-101760000D01*
X212530000Y-101760000D02*
X211840000Y-101760000D01*
X211840000Y-101760000D02*
X211740000Y-101660000D01*
%TO.N,unconnected-(R41-Pad1)*%
X211880438Y-99220000D02*
X210579898Y-100520540D01*
X212865000Y-99220000D02*
X211880438Y-99220000D01*
%TD*%
%TA.AperFunction,Conductor*%
%TO.N,Vin*%
G36*
X203769191Y-91519407D02*
G01*
X203805155Y-91568907D01*
X203810000Y-91599500D01*
X203810000Y-91608539D01*
X203791093Y-91666730D01*
X203741593Y-91702694D01*
X203699107Y-91706822D01*
X203645699Y-91700359D01*
X203639743Y-91700000D01*
X203453180Y-91700000D01*
X203440495Y-91704122D01*
X203437500Y-91708243D01*
X203437500Y-94019320D01*
X203441622Y-94032005D01*
X203445743Y-94035000D01*
X203521000Y-94035000D01*
X203579191Y-94053907D01*
X203615155Y-94103407D01*
X203620000Y-94134000D01*
X203620000Y-95001000D01*
X203601093Y-95059191D01*
X203551593Y-95095155D01*
X203521000Y-95100000D01*
X202635681Y-95100000D01*
X202622996Y-95104122D01*
X202620001Y-95108243D01*
X202620001Y-95137799D01*
X202620360Y-95143757D01*
X202629597Y-95220094D01*
X202632702Y-95232319D01*
X202680827Y-95353872D01*
X202687393Y-95365525D01*
X202766196Y-95469342D01*
X202775658Y-95478804D01*
X202857514Y-95540937D01*
X202892433Y-95591180D01*
X202896656Y-95620390D01*
X202896392Y-95663970D01*
X202891648Y-96447693D01*
X202872389Y-96505768D01*
X202822672Y-96541432D01*
X202779729Y-96545247D01*
X202700000Y-96534750D01*
X202693567Y-96535597D01*
X202562722Y-96552823D01*
X202562720Y-96552824D01*
X202556291Y-96553670D01*
X202521835Y-96567942D01*
X202494957Y-96579075D01*
X202433960Y-96583876D01*
X202419187Y-96579075D01*
X202339709Y-96546155D01*
X202339707Y-96546155D01*
X202333709Y-96543670D01*
X202190000Y-96524750D01*
X202183567Y-96525597D01*
X202052722Y-96542823D01*
X202052720Y-96542824D01*
X202046291Y-96543670D01*
X201952509Y-96582515D01*
X201891515Y-96587316D01*
X201839346Y-96555346D01*
X201824152Y-96528215D01*
X201818007Y-96523750D01*
X200950250Y-96523750D01*
X200892059Y-96504843D01*
X200856095Y-96455343D01*
X200851250Y-96424750D01*
X200851250Y-96008070D01*
X201351250Y-96008070D01*
X201355372Y-96020755D01*
X201359493Y-96023750D01*
X201810570Y-96023750D01*
X201823255Y-96019628D01*
X201826250Y-96015507D01*
X201826250Y-95806847D01*
X201825827Y-95800393D01*
X201821160Y-95764945D01*
X201816973Y-95750579D01*
X201776587Y-95663970D01*
X201766804Y-95649998D01*
X201700002Y-95583196D01*
X201686030Y-95573413D01*
X201599421Y-95533027D01*
X201585055Y-95528840D01*
X201549607Y-95524173D01*
X201543153Y-95523750D01*
X201366930Y-95523750D01*
X201354245Y-95527872D01*
X201351250Y-95531993D01*
X201351250Y-96008070D01*
X200851250Y-96008070D01*
X200851250Y-95539430D01*
X200847128Y-95526745D01*
X200836136Y-95518758D01*
X200792532Y-95496541D01*
X200764754Y-95442022D01*
X200762189Y-95425822D01*
X200762188Y-95425817D01*
X200760969Y-95418124D01*
X200749110Y-95394848D01*
X200743168Y-95380503D01*
X200738301Y-95365525D01*
X200735099Y-95355669D01*
X200719744Y-95334535D01*
X200711633Y-95321297D01*
X200700591Y-95299625D01*
X200689801Y-95254694D01*
X200689719Y-94644983D01*
X200689717Y-94629301D01*
X200681467Y-94629297D01*
X200041854Y-94629009D01*
X199999155Y-94618748D01*
X199995581Y-94616151D01*
X199970744Y-94608081D01*
X199956402Y-94602140D01*
X199933126Y-94590281D01*
X199925430Y-94589062D01*
X199907335Y-94586196D01*
X199892233Y-94582570D01*
X199874804Y-94576907D01*
X199874798Y-94576906D01*
X199867393Y-94574500D01*
X199088754Y-94574500D01*
X199030563Y-94555593D01*
X198994599Y-94506093D01*
X198989754Y-94475396D01*
X198990429Y-93834094D01*
X199009032Y-93776428D01*
X199078361Y-93679947D01*
X199114623Y-93589743D01*
X202225000Y-93589743D01*
X202225359Y-93595699D01*
X202235090Y-93676113D01*
X202238195Y-93688340D01*
X202288842Y-93816260D01*
X202295408Y-93827913D01*
X202378352Y-93937186D01*
X202387814Y-93946648D01*
X202497087Y-94029592D01*
X202508740Y-94036158D01*
X202636660Y-94086805D01*
X202648886Y-94089910D01*
X202682908Y-94094027D01*
X202738405Y-94119788D01*
X202768162Y-94173250D01*
X202760811Y-94233993D01*
X202749870Y-94252166D01*
X202687393Y-94334475D01*
X202680827Y-94346128D01*
X202632703Y-94467679D01*
X202629597Y-94479907D01*
X202620359Y-94556245D01*
X202620000Y-94562199D01*
X202620000Y-94584320D01*
X202624122Y-94597005D01*
X202628243Y-94600000D01*
X203104320Y-94600000D01*
X203117005Y-94595878D01*
X203120000Y-94591757D01*
X203120000Y-94155680D01*
X203115878Y-94142995D01*
X203111757Y-94140000D01*
X203036500Y-94140000D01*
X202978309Y-94121093D01*
X202942345Y-94071593D01*
X202937500Y-94041000D01*
X202937500Y-93165680D01*
X202933378Y-93152995D01*
X202929257Y-93150000D01*
X202240680Y-93150000D01*
X202227995Y-93154122D01*
X202225000Y-93158243D01*
X202225000Y-93589743D01*
X199114623Y-93589743D01*
X199141601Y-93522634D01*
X199165490Y-93354778D01*
X199165645Y-93340000D01*
X199145276Y-93171680D01*
X199085345Y-93013077D01*
X199008878Y-92901817D01*
X198991468Y-92845644D01*
X198991690Y-92634320D01*
X202225000Y-92634320D01*
X202229122Y-92647005D01*
X202233243Y-92650000D01*
X202921820Y-92650000D01*
X202934505Y-92645878D01*
X202937500Y-92641757D01*
X202937500Y-91715680D01*
X202933378Y-91702995D01*
X202929257Y-91700000D01*
X202735257Y-91700000D01*
X202729301Y-91700359D01*
X202648887Y-91710090D01*
X202636660Y-91713195D01*
X202508740Y-91763842D01*
X202497087Y-91770408D01*
X202387814Y-91853352D01*
X202378352Y-91862814D01*
X202295408Y-91972087D01*
X202288842Y-91983740D01*
X202238195Y-92111660D01*
X202235090Y-92123887D01*
X202225359Y-92204301D01*
X202225000Y-92210257D01*
X202225000Y-92634320D01*
X198991690Y-92634320D01*
X198991930Y-92405823D01*
X198983762Y-92405868D01*
X198983761Y-92405868D01*
X192363084Y-92442688D01*
X192304789Y-92424105D01*
X192268550Y-92374806D01*
X192263534Y-92344198D01*
X192262816Y-92204301D01*
X192260260Y-91706822D01*
X192260117Y-91678908D01*
X192278726Y-91620621D01*
X192312448Y-91591090D01*
X192373715Y-91558342D01*
X192391643Y-91550916D01*
X192504206Y-91516771D01*
X192523237Y-91512985D01*
X192619616Y-91503493D01*
X192632811Y-91503997D01*
X192632811Y-91503632D01*
X192641469Y-91503632D01*
X192650000Y-91505136D01*
X192667764Y-91502004D01*
X192684953Y-91500500D01*
X203711000Y-91500500D01*
X203769191Y-91519407D01*
G37*
%TD.AperFunction*%
%TD*%
%TA.AperFunction,Conductor*%
%TO.N,GND*%
G36*
X195434191Y-98643907D02*
G01*
X195470155Y-98693407D01*
X195475000Y-98724000D01*
X195475000Y-100726000D01*
X195456093Y-100784191D01*
X195406593Y-100820155D01*
X195376000Y-100825000D01*
X194672826Y-100825000D01*
X194614635Y-100806093D01*
X194578671Y-100756593D01*
X194578671Y-100695407D01*
X194585988Y-100678459D01*
X194595558Y-100660978D01*
X194641178Y-100539287D01*
X194644029Y-100527298D01*
X194648017Y-100490588D01*
X194645289Y-100477531D01*
X194643514Y-100475922D01*
X194639215Y-100475000D01*
X193115970Y-100475000D01*
X193103285Y-100479122D01*
X193101875Y-100481062D01*
X193101423Y-100485432D01*
X193105971Y-100527298D01*
X193108822Y-100539287D01*
X193154442Y-100660978D01*
X193164012Y-100678459D01*
X193175371Y-100738580D01*
X193149223Y-100793897D01*
X193095554Y-100823279D01*
X193077174Y-100825000D01*
X192974000Y-100825000D01*
X192915809Y-100806093D01*
X192879845Y-100756593D01*
X192875000Y-100726000D01*
X192875000Y-99959412D01*
X193101983Y-99959412D01*
X193104711Y-99972469D01*
X193106486Y-99974078D01*
X193110785Y-99975000D01*
X193609320Y-99975000D01*
X193622005Y-99970878D01*
X193625000Y-99966757D01*
X193625000Y-99959320D01*
X194125000Y-99959320D01*
X194129122Y-99972005D01*
X194133243Y-99975000D01*
X194634030Y-99975000D01*
X194646715Y-99970878D01*
X194648125Y-99968938D01*
X194648577Y-99964568D01*
X194644029Y-99922702D01*
X194641178Y-99910713D01*
X194595557Y-99789018D01*
X194588857Y-99776781D01*
X194511419Y-99673455D01*
X194501545Y-99663581D01*
X194398219Y-99586143D01*
X194385982Y-99579443D01*
X194264287Y-99533822D01*
X194252298Y-99530971D01*
X194199991Y-99525289D01*
X194194657Y-99525000D01*
X194140680Y-99525000D01*
X194127995Y-99529122D01*
X194125000Y-99533243D01*
X194125000Y-99959320D01*
X193625000Y-99959320D01*
X193625000Y-99540680D01*
X193620878Y-99527995D01*
X193616757Y-99525000D01*
X193555343Y-99525000D01*
X193550009Y-99525289D01*
X193497702Y-99530971D01*
X193485713Y-99533822D01*
X193364018Y-99579443D01*
X193351781Y-99586143D01*
X193248455Y-99663581D01*
X193238581Y-99673455D01*
X193161143Y-99776781D01*
X193154443Y-99789018D01*
X193108822Y-99910713D01*
X193105971Y-99922702D01*
X193101983Y-99959412D01*
X192875000Y-99959412D01*
X192875000Y-98724000D01*
X192893907Y-98665809D01*
X192943407Y-98629845D01*
X192974000Y-98625000D01*
X195376000Y-98625000D01*
X195434191Y-98643907D01*
G37*
%TD.AperFunction*%
%TD*%
%TA.AperFunction,Conductor*%
%TO.N,GND*%
G36*
X197440935Y-95544407D02*
G01*
X197452748Y-95554496D01*
X197521004Y-95622752D01*
X197548781Y-95677269D01*
X197550000Y-95692756D01*
X197550000Y-97201000D01*
X197531093Y-97259191D01*
X197481593Y-97295155D01*
X197451000Y-97300000D01*
X197187154Y-97300000D01*
X197128963Y-97281093D01*
X197092999Y-97231593D01*
X197092999Y-97170407D01*
X197117150Y-97130996D01*
X197128804Y-97119342D01*
X197207607Y-97015525D01*
X197214173Y-97003872D01*
X197262297Y-96882321D01*
X197265403Y-96870093D01*
X197274641Y-96793755D01*
X197274854Y-96790230D01*
X197270878Y-96777995D01*
X197266757Y-96775000D01*
X195740681Y-96775000D01*
X195727996Y-96779122D01*
X195725001Y-96783243D01*
X195725001Y-96787799D01*
X195725360Y-96793757D01*
X195734597Y-96870094D01*
X195737702Y-96882319D01*
X195785827Y-97003872D01*
X195792393Y-97015525D01*
X195871196Y-97119342D01*
X195882850Y-97130996D01*
X195910627Y-97185513D01*
X195901056Y-97245945D01*
X195857791Y-97289210D01*
X195812846Y-97300000D01*
X192924000Y-97300000D01*
X192865809Y-97281093D01*
X192829845Y-97231593D01*
X192825000Y-97201000D01*
X192825000Y-96259770D01*
X195725146Y-96259770D01*
X195729122Y-96272005D01*
X195733243Y-96275000D01*
X196234320Y-96275000D01*
X196247005Y-96270878D01*
X196250000Y-96266757D01*
X196250000Y-96259320D01*
X196750000Y-96259320D01*
X196754122Y-96272005D01*
X196758243Y-96275000D01*
X197259319Y-96275000D01*
X197272004Y-96270878D01*
X197274999Y-96266757D01*
X197274999Y-96262201D01*
X197274640Y-96256243D01*
X197265403Y-96179906D01*
X197262298Y-96167681D01*
X197214173Y-96046128D01*
X197207607Y-96034475D01*
X197128804Y-95930658D01*
X197119342Y-95921196D01*
X197015525Y-95842393D01*
X197003872Y-95835827D01*
X196882321Y-95787703D01*
X196870093Y-95784597D01*
X196793755Y-95775359D01*
X196787801Y-95775000D01*
X196765680Y-95775000D01*
X196752995Y-95779122D01*
X196750000Y-95783243D01*
X196750000Y-96259320D01*
X196250000Y-96259320D01*
X196250000Y-95790681D01*
X196245878Y-95777996D01*
X196241757Y-95775001D01*
X196212201Y-95775001D01*
X196206243Y-95775360D01*
X196129906Y-95784597D01*
X196117681Y-95787702D01*
X195996128Y-95835827D01*
X195984475Y-95842393D01*
X195880658Y-95921196D01*
X195871196Y-95930658D01*
X195792393Y-96034475D01*
X195785827Y-96046128D01*
X195737703Y-96167679D01*
X195734597Y-96179907D01*
X195725359Y-96256245D01*
X195725146Y-96259770D01*
X192825000Y-96259770D01*
X192825000Y-95624500D01*
X192843907Y-95566309D01*
X192893407Y-95530345D01*
X192924000Y-95525500D01*
X197382744Y-95525500D01*
X197440935Y-95544407D01*
G37*
%TD.AperFunction*%
%TD*%
%TA.AperFunction,Conductor*%
%TO.N,Net-(R10-Pad2)*%
G36*
X196009191Y-93118907D02*
G01*
X196045155Y-93168407D01*
X196050000Y-93199000D01*
X196050000Y-94109030D01*
X196054122Y-94121715D01*
X196056062Y-94123125D01*
X196060432Y-94123577D01*
X196102298Y-94119029D01*
X196114290Y-94116177D01*
X196241249Y-94068583D01*
X196302373Y-94065861D01*
X196353424Y-94099586D01*
X196375000Y-94161283D01*
X196375000Y-94575500D01*
X196356093Y-94633691D01*
X196306593Y-94669655D01*
X196276000Y-94674500D01*
X193899000Y-94674500D01*
X193840809Y-94655593D01*
X193804845Y-94606093D01*
X193800000Y-94575500D01*
X193800000Y-94147826D01*
X193818907Y-94089635D01*
X193868407Y-94053671D01*
X193929593Y-94053671D01*
X193946541Y-94060988D01*
X193964022Y-94070558D01*
X194085713Y-94116178D01*
X194097702Y-94119029D01*
X194134412Y-94123017D01*
X194147469Y-94120289D01*
X194149078Y-94118514D01*
X194150000Y-94114215D01*
X194150000Y-94109030D01*
X194650000Y-94109030D01*
X194654122Y-94121715D01*
X194656062Y-94123125D01*
X194660432Y-94123577D01*
X194702298Y-94119029D01*
X194714287Y-94116178D01*
X194835982Y-94070557D01*
X194848219Y-94063857D01*
X194951545Y-93986419D01*
X194961419Y-93976545D01*
X195020779Y-93897341D01*
X195070807Y-93862116D01*
X195131986Y-93863024D01*
X195179221Y-93897341D01*
X195238581Y-93976545D01*
X195248455Y-93986419D01*
X195351781Y-94063857D01*
X195364018Y-94070557D01*
X195485713Y-94116178D01*
X195497702Y-94119029D01*
X195534412Y-94123017D01*
X195547469Y-94120289D01*
X195549078Y-94118514D01*
X195550000Y-94114215D01*
X195550000Y-93615680D01*
X195545878Y-93602995D01*
X195541757Y-93600000D01*
X194665680Y-93600000D01*
X194652995Y-93604122D01*
X194650000Y-93608243D01*
X194650000Y-94109030D01*
X194150000Y-94109030D01*
X194150000Y-93199000D01*
X194168907Y-93140809D01*
X194218407Y-93104845D01*
X194249000Y-93100000D01*
X195951000Y-93100000D01*
X196009191Y-93118907D01*
G37*
%TD.AperFunction*%
%TD*%
%TA.AperFunction,Conductor*%
%TO.N,Net-(R13-Pad2)*%
G36*
X199134191Y-100168907D02*
G01*
X199170155Y-100218407D01*
X199175000Y-100249000D01*
X199175000Y-101676000D01*
X199156093Y-101734191D01*
X199106593Y-101770155D01*
X199076000Y-101775000D01*
X198923073Y-101775000D01*
X198864882Y-101756093D01*
X198828918Y-101706593D01*
X198828918Y-101645407D01*
X198843852Y-101616627D01*
X198913857Y-101523219D01*
X198920557Y-101510982D01*
X198966178Y-101389287D01*
X198969029Y-101377298D01*
X198973017Y-101340588D01*
X198970289Y-101327531D01*
X198968514Y-101325922D01*
X198964215Y-101325000D01*
X197440970Y-101325000D01*
X197428285Y-101329122D01*
X197426875Y-101331062D01*
X197426423Y-101335432D01*
X197430971Y-101377298D01*
X197433822Y-101389287D01*
X197479443Y-101510982D01*
X197486143Y-101523219D01*
X197556148Y-101616627D01*
X197575916Y-101674531D01*
X197557874Y-101732996D01*
X197508913Y-101769690D01*
X197476927Y-101775000D01*
X197274000Y-101775000D01*
X197215809Y-101756093D01*
X197179845Y-101706593D01*
X197175000Y-101676000D01*
X197175000Y-100809412D01*
X197426983Y-100809412D01*
X197429711Y-100822469D01*
X197431486Y-100824078D01*
X197435785Y-100825000D01*
X197934320Y-100825000D01*
X197947005Y-100820878D01*
X197950000Y-100816757D01*
X197950000Y-100809320D01*
X198450000Y-100809320D01*
X198454122Y-100822005D01*
X198458243Y-100825000D01*
X198959030Y-100825000D01*
X198971715Y-100820878D01*
X198973125Y-100818938D01*
X198973577Y-100814568D01*
X198969029Y-100772702D01*
X198966178Y-100760713D01*
X198920557Y-100639018D01*
X198913857Y-100626781D01*
X198836419Y-100523455D01*
X198826545Y-100513581D01*
X198723219Y-100436143D01*
X198710982Y-100429443D01*
X198589287Y-100383822D01*
X198577298Y-100380971D01*
X198524991Y-100375289D01*
X198519657Y-100375000D01*
X198465680Y-100375000D01*
X198452995Y-100379122D01*
X198450000Y-100383243D01*
X198450000Y-100809320D01*
X197950000Y-100809320D01*
X197950000Y-100390680D01*
X197945878Y-100377995D01*
X197941757Y-100375000D01*
X197880343Y-100375000D01*
X197875009Y-100375289D01*
X197822702Y-100380971D01*
X197810713Y-100383822D01*
X197689018Y-100429443D01*
X197676781Y-100436143D01*
X197573455Y-100513581D01*
X197563581Y-100523455D01*
X197486143Y-100626781D01*
X197479443Y-100639018D01*
X197433822Y-100760713D01*
X197430971Y-100772702D01*
X197426983Y-100809412D01*
X197175000Y-100809412D01*
X197175000Y-100249000D01*
X197193907Y-100190809D01*
X197243407Y-100154845D01*
X197274000Y-100150000D01*
X199076000Y-100150000D01*
X199134191Y-100168907D01*
G37*
%TD.AperFunction*%
%TD*%
%TA.AperFunction,Conductor*%
%TO.N,Net-(L1-Pad2)*%
G36*
X205965400Y-97989946D02*
G01*
X206023591Y-98008853D01*
X206059555Y-98058354D01*
X206064400Y-98088946D01*
X206064400Y-98649520D01*
X206068522Y-98662205D01*
X206072643Y-98665200D01*
X207359920Y-98665200D01*
X207372605Y-98661078D01*
X207375600Y-98656957D01*
X207375600Y-98088948D01*
X207394507Y-98030757D01*
X207444007Y-97994793D01*
X207474596Y-97989949D01*
X208026017Y-97989950D01*
X208180679Y-97989950D01*
X208238870Y-98008857D01*
X208274834Y-98058358D01*
X208279679Y-98088964D01*
X208279418Y-99877024D01*
X208260502Y-99935212D01*
X208210997Y-99971169D01*
X208181027Y-99976007D01*
X207561168Y-99979804D01*
X207469317Y-99980366D01*
X207411012Y-99961815D01*
X207374745Y-99912537D01*
X207373373Y-99861799D01*
X207372611Y-99861710D01*
X207373228Y-99856421D01*
X207373198Y-99855324D01*
X207373473Y-99854314D01*
X207375268Y-99838920D01*
X207375600Y-99833208D01*
X207375600Y-99180880D01*
X207371478Y-99168195D01*
X207367357Y-99165200D01*
X206080080Y-99165200D01*
X206067395Y-99169322D01*
X206064400Y-99173443D01*
X206064400Y-99833139D01*
X206064746Y-99838985D01*
X206066634Y-99854851D01*
X206069227Y-99864284D01*
X206066418Y-99925405D01*
X206028220Y-99973202D01*
X205974373Y-99989521D01*
X205592098Y-99991862D01*
X205483754Y-99992526D01*
X205425449Y-99973976D01*
X205389183Y-99924697D01*
X205384148Y-99893514D01*
X205384151Y-99877024D01*
X205384409Y-98088931D01*
X205403325Y-98030743D01*
X205452830Y-97994786D01*
X205483408Y-97989945D01*
X205965400Y-97989946D01*
G37*
%TD.AperFunction*%
%TD*%
%TA.AperFunction,Conductor*%
%TO.N,Net-(R13-Pad2)*%
G36*
X193231219Y-101168907D02*
G01*
X193267183Y-101218407D01*
X193267183Y-101279593D01*
X193243032Y-101319004D01*
X193238581Y-101323455D01*
X193161143Y-101426781D01*
X193154443Y-101439018D01*
X193108822Y-101560713D01*
X193105971Y-101572702D01*
X193101983Y-101609412D01*
X193104711Y-101622469D01*
X193106486Y-101624078D01*
X193110785Y-101625000D01*
X194634030Y-101625000D01*
X194646715Y-101620878D01*
X194648125Y-101618938D01*
X194648577Y-101614568D01*
X194644029Y-101572702D01*
X194641178Y-101560713D01*
X194595557Y-101439018D01*
X194588857Y-101426781D01*
X194511419Y-101323455D01*
X194506968Y-101319004D01*
X194479191Y-101264487D01*
X194488762Y-101204055D01*
X194532027Y-101160790D01*
X194576972Y-101150000D01*
X195401000Y-101150000D01*
X195459191Y-101168907D01*
X195495155Y-101218407D01*
X195500000Y-101249000D01*
X195500000Y-102625500D01*
X195481093Y-102683691D01*
X195431593Y-102719655D01*
X195401000Y-102724500D01*
X194388075Y-102724500D01*
X194329884Y-102705593D01*
X194293920Y-102656093D01*
X194293920Y-102594907D01*
X194329884Y-102545407D01*
X194353324Y-102532800D01*
X194385980Y-102520558D01*
X194398219Y-102513857D01*
X194501545Y-102436419D01*
X194511419Y-102426545D01*
X194588857Y-102323219D01*
X194595557Y-102310982D01*
X194641178Y-102189287D01*
X194644029Y-102177298D01*
X194648017Y-102140588D01*
X194645289Y-102127531D01*
X194643514Y-102125922D01*
X194639215Y-102125000D01*
X193115970Y-102125000D01*
X193103285Y-102129122D01*
X193101875Y-102131062D01*
X193101423Y-102135432D01*
X193105971Y-102177298D01*
X193108822Y-102189287D01*
X193154443Y-102310982D01*
X193161143Y-102323219D01*
X193238581Y-102426545D01*
X193248455Y-102436419D01*
X193351781Y-102513857D01*
X193364020Y-102520558D01*
X193396676Y-102532800D01*
X193444527Y-102570930D01*
X193460827Y-102629905D01*
X193439349Y-102687196D01*
X193388298Y-102720922D01*
X193361925Y-102724500D01*
X192974000Y-102724500D01*
X192915809Y-102705593D01*
X192879845Y-102656093D01*
X192875000Y-102625500D01*
X192875000Y-101249000D01*
X192893907Y-101190809D01*
X192943407Y-101154845D01*
X192974000Y-101150000D01*
X193173028Y-101150000D01*
X193231219Y-101168907D01*
G37*
%TD.AperFunction*%
%TD*%
%TA.AperFunction,Conductor*%
%TO.N,GND*%
G36*
X205442292Y-91859407D02*
G01*
X205478256Y-91908907D01*
X205478256Y-91970093D01*
X205463321Y-91998873D01*
X205461145Y-92001776D01*
X205454443Y-92014018D01*
X205408822Y-92135713D01*
X205405971Y-92147702D01*
X205400289Y-92200009D01*
X205400000Y-92205343D01*
X205400000Y-92634320D01*
X205404122Y-92647005D01*
X205408243Y-92650000D01*
X207209320Y-92650000D01*
X207222005Y-92645878D01*
X207225000Y-92641757D01*
X207225000Y-92205343D01*
X207224711Y-92200009D01*
X207219029Y-92147702D01*
X207216178Y-92135713D01*
X207170557Y-92014018D01*
X207163855Y-92001776D01*
X207161679Y-91998873D01*
X207160707Y-91996027D01*
X207160466Y-91995586D01*
X207160542Y-91995544D01*
X207141910Y-91940970D01*
X207159951Y-91882505D01*
X207208912Y-91845810D01*
X207240899Y-91840500D01*
X207506176Y-91840500D01*
X207564367Y-91859407D01*
X207600331Y-91908907D01*
X207605176Y-91939500D01*
X207605176Y-93820118D01*
X209205888Y-93820118D01*
X209264079Y-93839025D01*
X209300043Y-93888525D01*
X209304888Y-93919405D01*
X209300541Y-95419146D01*
X209300541Y-101520146D01*
X209281634Y-101578337D01*
X209232134Y-101614301D01*
X209201541Y-101619146D01*
X205900541Y-101619146D01*
X205900541Y-103739355D01*
X205893780Y-103775312D01*
X205885309Y-103797039D01*
X205864758Y-103953138D01*
X205865413Y-103959071D01*
X205865413Y-103959075D01*
X205881301Y-104102988D01*
X205882035Y-104109633D01*
X205884086Y-104115237D01*
X205894511Y-104143724D01*
X205900541Y-104177747D01*
X205900541Y-106420146D01*
X205881634Y-106478337D01*
X205832134Y-106514301D01*
X205801541Y-106519146D01*
X205582826Y-106519146D01*
X205524635Y-106500239D01*
X205488671Y-106450739D01*
X205488671Y-106389553D01*
X205508090Y-106357864D01*
X205507189Y-106357189D01*
X205588857Y-106248219D01*
X205595557Y-106235982D01*
X205641178Y-106114287D01*
X205644029Y-106102298D01*
X205649711Y-106049991D01*
X205650000Y-106044657D01*
X205650000Y-105615680D01*
X205645878Y-105602995D01*
X205641757Y-105600000D01*
X204015680Y-105600000D01*
X204002995Y-105604122D01*
X204000000Y-105608243D01*
X204000000Y-106044657D01*
X204000289Y-106049991D01*
X204005971Y-106102298D01*
X204008822Y-106114287D01*
X204054443Y-106235982D01*
X204061143Y-106248219D01*
X204142811Y-106357189D01*
X204141333Y-106358297D01*
X204164955Y-106404659D01*
X204155384Y-106465091D01*
X204112119Y-106508356D01*
X204067174Y-106519146D01*
X203200119Y-106519146D01*
X203141928Y-106500239D01*
X203105964Y-106450739D01*
X203101121Y-106419570D01*
X203108895Y-105084320D01*
X204000000Y-105084320D01*
X204004122Y-105097005D01*
X204008243Y-105100000D01*
X204559320Y-105100000D01*
X204572005Y-105095878D01*
X204575000Y-105091757D01*
X204575000Y-105084320D01*
X205075000Y-105084320D01*
X205079122Y-105097005D01*
X205083243Y-105100000D01*
X205634320Y-105100000D01*
X205647005Y-105095878D01*
X205650000Y-105091757D01*
X205650000Y-104655343D01*
X205649711Y-104650009D01*
X205644029Y-104597702D01*
X205641178Y-104585713D01*
X205595557Y-104464018D01*
X205588857Y-104451781D01*
X205511419Y-104348455D01*
X205501545Y-104338581D01*
X205398219Y-104261143D01*
X205385982Y-104254443D01*
X205264287Y-104208822D01*
X205252298Y-104205971D01*
X205199991Y-104200289D01*
X205194657Y-104200000D01*
X205090680Y-104200000D01*
X205077995Y-104204122D01*
X205075000Y-104208243D01*
X205075000Y-105084320D01*
X204575000Y-105084320D01*
X204575000Y-104215680D01*
X204570878Y-104202995D01*
X204566757Y-104200000D01*
X204455343Y-104200000D01*
X204450009Y-104200289D01*
X204397702Y-104205971D01*
X204385713Y-104208822D01*
X204264018Y-104254443D01*
X204251781Y-104261143D01*
X204148455Y-104338581D01*
X204138581Y-104348455D01*
X204061143Y-104451781D01*
X204054443Y-104464018D01*
X204008822Y-104585713D01*
X204005971Y-104597702D01*
X204000289Y-104650009D01*
X204000000Y-104655343D01*
X204000000Y-105084320D01*
X203108895Y-105084320D01*
X203114270Y-104161068D01*
X203133515Y-104102988D01*
X203183224Y-104067313D01*
X203236170Y-104065329D01*
X203253126Y-104069361D01*
X203302375Y-104074711D01*
X203307709Y-104075000D01*
X203309320Y-104075000D01*
X203322005Y-104070878D01*
X203325000Y-104066757D01*
X203325000Y-104059320D01*
X203825000Y-104059320D01*
X203829122Y-104072005D01*
X203833243Y-104075000D01*
X203842291Y-104075000D01*
X203847625Y-104074711D01*
X203896880Y-104069360D01*
X203908859Y-104066511D01*
X204023850Y-104023404D01*
X204036093Y-104016701D01*
X204133682Y-103943563D01*
X204143563Y-103933682D01*
X204216701Y-103836093D01*
X204223404Y-103823850D01*
X204266511Y-103708859D01*
X204269360Y-103696880D01*
X204274711Y-103647625D01*
X204275000Y-103642291D01*
X204275000Y-103615680D01*
X204270878Y-103602995D01*
X204266757Y-103600000D01*
X203840680Y-103600000D01*
X203827995Y-103604122D01*
X203825000Y-103608243D01*
X203825000Y-104059320D01*
X203325000Y-104059320D01*
X203325000Y-103199000D01*
X203343907Y-103140809D01*
X203393407Y-103104845D01*
X203424000Y-103100000D01*
X204259320Y-103100000D01*
X204272005Y-103095878D01*
X204275000Y-103091757D01*
X204275000Y-103057709D01*
X204274711Y-103052375D01*
X204269360Y-103003120D01*
X204266511Y-102991141D01*
X204223404Y-102876150D01*
X204216701Y-102863907D01*
X204143563Y-102766318D01*
X204133682Y-102756437D01*
X204036093Y-102683299D01*
X204023850Y-102676596D01*
X204000119Y-102667700D01*
X203952268Y-102629570D01*
X203935968Y-102570596D01*
X203957445Y-102513304D01*
X204000119Y-102482300D01*
X204023850Y-102473404D01*
X204036093Y-102466701D01*
X204133682Y-102393563D01*
X204143563Y-102383682D01*
X204216701Y-102286093D01*
X204223404Y-102273850D01*
X204266511Y-102158859D01*
X204269360Y-102146880D01*
X204274711Y-102097625D01*
X204275000Y-102092291D01*
X204275000Y-102065680D01*
X204270878Y-102052995D01*
X204266757Y-102050000D01*
X203424000Y-102050000D01*
X203365809Y-102031093D01*
X203329845Y-101981593D01*
X203325000Y-101951000D01*
X203325000Y-101534320D01*
X203825000Y-101534320D01*
X203829122Y-101547005D01*
X203833243Y-101550000D01*
X204259320Y-101550000D01*
X204272005Y-101545878D01*
X204275000Y-101541757D01*
X204275000Y-101507709D01*
X204274711Y-101502375D01*
X204269360Y-101453120D01*
X204266511Y-101441141D01*
X204223404Y-101326150D01*
X204216701Y-101313907D01*
X204143563Y-101216318D01*
X204133682Y-101206437D01*
X204036093Y-101133299D01*
X204023850Y-101126596D01*
X203908859Y-101083489D01*
X203896880Y-101080640D01*
X203847625Y-101075289D01*
X203842291Y-101075000D01*
X203840680Y-101075000D01*
X203827995Y-101079122D01*
X203825000Y-101083243D01*
X203825000Y-101534320D01*
X203325000Y-101534320D01*
X203325000Y-101090680D01*
X203320878Y-101077995D01*
X203316757Y-101075000D01*
X203307709Y-101075000D01*
X203302375Y-101075289D01*
X203246952Y-101081310D01*
X203246770Y-101079633D01*
X203193681Y-101075338D01*
X203147243Y-101035499D01*
X203132770Y-100983381D01*
X203134603Y-100668542D01*
X203153848Y-100610462D01*
X203203557Y-100574787D01*
X203233601Y-100570118D01*
X203865176Y-100570118D01*
X203904721Y-100570034D01*
X203904723Y-100570033D01*
X203920400Y-100570000D01*
X203234020Y-100570000D01*
X203226787Y-100567650D01*
X205020002Y-100567650D01*
X206707091Y-100564045D01*
X208529497Y-100560152D01*
X208529499Y-100560151D01*
X208545176Y-100560118D01*
X208545176Y-98540118D01*
X208546047Y-96668442D01*
X208535222Y-95269660D01*
X205717852Y-95255219D01*
X205659759Y-95236013D01*
X205624050Y-95186330D01*
X205620423Y-95150351D01*
X205619566Y-95150305D01*
X205620000Y-95142291D01*
X205620000Y-95115680D01*
X205615878Y-95102995D01*
X205611757Y-95100000D01*
X205185680Y-95100000D01*
X205172995Y-95104122D01*
X205170000Y-95108243D01*
X205170000Y-95252411D01*
X205030966Y-95251698D01*
X205025165Y-95440672D01*
X205021712Y-98870118D01*
X205020002Y-100567650D01*
X203226787Y-100567650D01*
X203175829Y-100551093D01*
X203139865Y-100501593D01*
X203135020Y-100470990D01*
X203135156Y-99070073D01*
X203154069Y-99011884D01*
X203203572Y-98975925D01*
X203235970Y-98971100D01*
X203251038Y-98971377D01*
X203265446Y-98971641D01*
X203265448Y-98971641D01*
X203272499Y-98971770D01*
X203279302Y-98969915D01*
X203279304Y-98969915D01*
X203365591Y-98946390D01*
X203410817Y-98934060D01*
X203491123Y-98884752D01*
X203542924Y-98870118D01*
X203785176Y-98870118D01*
X203785176Y-95819118D01*
X203804083Y-95760927D01*
X203853583Y-95724963D01*
X203884176Y-95720118D01*
X204375176Y-95720118D01*
X204374729Y-95630591D01*
X204393346Y-95572308D01*
X204442666Y-95536097D01*
X204508479Y-95537398D01*
X204586141Y-95566511D01*
X204598120Y-95569360D01*
X204647375Y-95574711D01*
X204652709Y-95575000D01*
X204654320Y-95575000D01*
X204667005Y-95570878D01*
X204670000Y-95566757D01*
X204670000Y-94584320D01*
X205170000Y-94584320D01*
X205174122Y-94597005D01*
X205178243Y-94600000D01*
X205604320Y-94600000D01*
X205617005Y-94595878D01*
X205620000Y-94591757D01*
X205620000Y-94557709D01*
X205619711Y-94552375D01*
X205614360Y-94503120D01*
X205611511Y-94491141D01*
X205568404Y-94376150D01*
X205561701Y-94363907D01*
X205488563Y-94266318D01*
X205478682Y-94256437D01*
X205381093Y-94183299D01*
X205368850Y-94176596D01*
X205253859Y-94133489D01*
X205241880Y-94130640D01*
X205192625Y-94125289D01*
X205187291Y-94125000D01*
X205185680Y-94125000D01*
X205172995Y-94129122D01*
X205170000Y-94133243D01*
X205170000Y-94584320D01*
X204670000Y-94584320D01*
X204670000Y-94140680D01*
X204665878Y-94127995D01*
X204661757Y-94125000D01*
X204652709Y-94125000D01*
X204647375Y-94125289D01*
X204598120Y-94130640D01*
X204586141Y-94133489D01*
X204500712Y-94165514D01*
X204439588Y-94168236D01*
X204388537Y-94134511D01*
X204366962Y-94073308D01*
X204366846Y-94050000D01*
X204364575Y-93594657D01*
X205400000Y-93594657D01*
X205400289Y-93599991D01*
X205405971Y-93652298D01*
X205408822Y-93664287D01*
X205454443Y-93785982D01*
X205461143Y-93798219D01*
X205538581Y-93901545D01*
X205548455Y-93911419D01*
X205651781Y-93988857D01*
X205664018Y-93995557D01*
X205785713Y-94041178D01*
X205797702Y-94044029D01*
X205850009Y-94049711D01*
X205855343Y-94050000D01*
X206046820Y-94050000D01*
X206059505Y-94045878D01*
X206062500Y-94041757D01*
X206062500Y-94034320D01*
X206562500Y-94034320D01*
X206566622Y-94047005D01*
X206570743Y-94050000D01*
X206769657Y-94050000D01*
X206774991Y-94049711D01*
X206827298Y-94044029D01*
X206839287Y-94041178D01*
X206960982Y-93995557D01*
X206973219Y-93988857D01*
X207076545Y-93911419D01*
X207086419Y-93901545D01*
X207163857Y-93798219D01*
X207170557Y-93785982D01*
X207216178Y-93664287D01*
X207219029Y-93652298D01*
X207224711Y-93599991D01*
X207225000Y-93594657D01*
X207225000Y-93165680D01*
X207220878Y-93152995D01*
X207216757Y-93150000D01*
X206578180Y-93150000D01*
X206565495Y-93154122D01*
X206562500Y-93158243D01*
X206562500Y-94034320D01*
X206062500Y-94034320D01*
X206062500Y-93165680D01*
X206058378Y-93152995D01*
X206054257Y-93150000D01*
X205415680Y-93150000D01*
X205402995Y-93154122D01*
X205400000Y-93158243D01*
X205400000Y-93594657D01*
X204364575Y-93594657D01*
X204356323Y-91939992D01*
X204374939Y-91881709D01*
X204424259Y-91845499D01*
X204455321Y-91840500D01*
X205384101Y-91840500D01*
X205442292Y-91859407D01*
G37*
%TD.AperFunction*%
%TD*%
%TA.AperFunction,Conductor*%
%TO.N,+3.3V*%
G36*
X201874546Y-99125696D02*
G01*
X201874547Y-99125696D01*
X202701460Y-99129542D01*
X202759563Y-99148720D01*
X202795296Y-99198387D01*
X202800000Y-99228541D01*
X202800000Y-101112846D01*
X202781093Y-101171037D01*
X202731593Y-101207001D01*
X202670407Y-101207001D01*
X202630996Y-101182850D01*
X202619342Y-101171196D01*
X202515525Y-101092393D01*
X202503872Y-101085827D01*
X202382321Y-101037703D01*
X202370093Y-101034597D01*
X202293755Y-101025359D01*
X202290230Y-101025146D01*
X202277995Y-101029122D01*
X202275000Y-101033243D01*
X202275000Y-104066000D01*
X202256093Y-104124191D01*
X202206593Y-104160155D01*
X202176000Y-104165000D01*
X202140680Y-104165000D01*
X202127995Y-104169122D01*
X202125000Y-104173243D01*
X202125000Y-106534320D01*
X202129122Y-106547005D01*
X202133243Y-106550000D01*
X202239743Y-106550000D01*
X202245699Y-106549641D01*
X202326113Y-106539910D01*
X202338340Y-106536805D01*
X202466260Y-106486158D01*
X202477913Y-106479592D01*
X202587186Y-106396648D01*
X202596648Y-106387186D01*
X202622144Y-106353597D01*
X202672387Y-106318678D01*
X202733559Y-106319960D01*
X202782294Y-106356953D01*
X202800000Y-106413453D01*
X202800000Y-107000000D01*
X202800971Y-107205826D01*
X202782338Y-107264105D01*
X202733009Y-107300302D01*
X202702439Y-107305292D01*
X199963177Y-107318213D01*
X197223917Y-107331134D01*
X197165638Y-107312501D01*
X197129441Y-107263171D01*
X197124451Y-107232602D01*
X197123696Y-107072562D01*
X197142329Y-107014283D01*
X197191658Y-106978086D01*
X197252843Y-106977797D01*
X197282068Y-106992874D01*
X197376781Y-107063857D01*
X197389018Y-107070557D01*
X197510713Y-107116178D01*
X197522702Y-107119029D01*
X197575009Y-107124711D01*
X197580343Y-107125000D01*
X197634320Y-107125000D01*
X197647005Y-107120878D01*
X197650000Y-107116757D01*
X197650000Y-107109320D01*
X198150000Y-107109320D01*
X198154122Y-107122005D01*
X198158243Y-107125000D01*
X198219657Y-107125000D01*
X198224991Y-107124711D01*
X198277298Y-107119029D01*
X198289287Y-107116178D01*
X198410982Y-107070557D01*
X198423219Y-107063857D01*
X198526545Y-106986419D01*
X198536419Y-106976545D01*
X198613857Y-106873219D01*
X198620557Y-106860982D01*
X198666178Y-106739287D01*
X198669029Y-106727298D01*
X198673017Y-106690588D01*
X198670289Y-106677531D01*
X198668514Y-106675922D01*
X198664215Y-106675000D01*
X198165680Y-106675000D01*
X198152995Y-106679122D01*
X198150000Y-106683243D01*
X198150000Y-107109320D01*
X197650000Y-107109320D01*
X197650000Y-106274000D01*
X197668907Y-106215809D01*
X197718407Y-106179845D01*
X197749000Y-106175000D01*
X198659030Y-106175000D01*
X198671715Y-106170878D01*
X198673125Y-106168938D01*
X198673577Y-106164568D01*
X198669029Y-106122702D01*
X198666178Y-106110713D01*
X198639573Y-106039743D01*
X201000000Y-106039743D01*
X201000359Y-106045699D01*
X201010090Y-106126113D01*
X201013195Y-106138340D01*
X201063842Y-106266260D01*
X201070408Y-106277913D01*
X201153352Y-106387186D01*
X201162814Y-106396648D01*
X201272087Y-106479592D01*
X201283740Y-106486158D01*
X201411660Y-106536805D01*
X201423887Y-106539910D01*
X201504301Y-106549641D01*
X201510257Y-106550000D01*
X201609320Y-106550000D01*
X201622005Y-106545878D01*
X201625000Y-106541757D01*
X201625000Y-105615680D01*
X201620878Y-105602995D01*
X201616757Y-105600000D01*
X201015680Y-105600000D01*
X201002995Y-105604122D01*
X201000000Y-105608243D01*
X201000000Y-106039743D01*
X198639573Y-106039743D01*
X198620557Y-105989018D01*
X198613857Y-105976781D01*
X198536419Y-105873455D01*
X198526545Y-105863581D01*
X198432664Y-105793221D01*
X198397439Y-105743192D01*
X198398347Y-105682014D01*
X198435041Y-105633053D01*
X198492037Y-105615000D01*
X199000000Y-105615000D01*
X199000000Y-105084320D01*
X201000000Y-105084320D01*
X201004122Y-105097005D01*
X201008243Y-105100000D01*
X201609320Y-105100000D01*
X201622005Y-105095878D01*
X201625000Y-105091757D01*
X201625000Y-104209000D01*
X201643907Y-104150809D01*
X201693407Y-104114845D01*
X201724000Y-104110000D01*
X201759320Y-104110000D01*
X201772005Y-104105878D01*
X201775000Y-104101757D01*
X201775000Y-103615680D01*
X201770878Y-103602995D01*
X201766757Y-103600000D01*
X201290681Y-103600000D01*
X201277996Y-103604122D01*
X201275001Y-103608243D01*
X201275001Y-103637799D01*
X201275360Y-103643757D01*
X201284597Y-103720094D01*
X201287702Y-103732319D01*
X201335827Y-103853872D01*
X201342393Y-103865525D01*
X201421196Y-103969342D01*
X201430658Y-103978804D01*
X201444250Y-103989121D01*
X201479169Y-104039364D01*
X201477887Y-104100536D01*
X201440894Y-104149271D01*
X201417257Y-104160055D01*
X201417573Y-104160854D01*
X201283740Y-104213842D01*
X201272087Y-104220408D01*
X201162814Y-104303352D01*
X201153352Y-104312814D01*
X201070408Y-104422087D01*
X201063842Y-104433740D01*
X201013195Y-104561660D01*
X201010090Y-104573887D01*
X201000359Y-104654301D01*
X201000000Y-104660257D01*
X201000000Y-105084320D01*
X199000000Y-105084320D01*
X199000000Y-103775000D01*
X197717756Y-103775000D01*
X197659565Y-103756093D01*
X197647752Y-103746004D01*
X197403996Y-103502248D01*
X197376219Y-103447731D01*
X197375000Y-103432244D01*
X197375000Y-103322095D01*
X197393907Y-103263904D01*
X197443407Y-103227940D01*
X197504593Y-103227940D01*
X197553220Y-103262722D01*
X197563577Y-103276541D01*
X197573455Y-103286419D01*
X197676781Y-103363857D01*
X197689018Y-103370557D01*
X197810713Y-103416178D01*
X197822702Y-103419029D01*
X197875009Y-103424711D01*
X197880343Y-103425000D01*
X197934320Y-103425000D01*
X197947005Y-103420878D01*
X197950000Y-103416757D01*
X197950000Y-103409320D01*
X198450000Y-103409320D01*
X198454122Y-103422005D01*
X198458243Y-103425000D01*
X198519657Y-103425000D01*
X198524991Y-103424711D01*
X198577298Y-103419029D01*
X198589287Y-103416178D01*
X198710982Y-103370557D01*
X198723219Y-103363857D01*
X198826545Y-103286419D01*
X198836419Y-103276545D01*
X198913857Y-103173219D01*
X198920557Y-103160982D01*
X198949296Y-103084320D01*
X201275000Y-103084320D01*
X201279122Y-103097005D01*
X201283243Y-103100000D01*
X201759320Y-103100000D01*
X201772005Y-103095878D01*
X201775000Y-103091757D01*
X201775000Y-102065680D01*
X201770878Y-102052995D01*
X201766757Y-102050000D01*
X201290681Y-102050000D01*
X201277996Y-102054122D01*
X201275001Y-102058243D01*
X201275001Y-102087799D01*
X201275360Y-102093757D01*
X201284597Y-102170094D01*
X201287702Y-102182319D01*
X201335827Y-102303872D01*
X201342393Y-102315525D01*
X201421196Y-102419342D01*
X201430658Y-102428804D01*
X201519374Y-102496144D01*
X201554293Y-102546386D01*
X201553011Y-102607558D01*
X201519374Y-102653856D01*
X201430658Y-102721196D01*
X201421196Y-102730658D01*
X201342393Y-102834475D01*
X201335827Y-102846128D01*
X201287703Y-102967679D01*
X201284597Y-102979907D01*
X201275359Y-103056245D01*
X201275000Y-103062199D01*
X201275000Y-103084320D01*
X198949296Y-103084320D01*
X198966178Y-103039287D01*
X198969029Y-103027298D01*
X198973017Y-102990588D01*
X198970289Y-102977531D01*
X198968514Y-102975922D01*
X198964215Y-102975000D01*
X198465680Y-102975000D01*
X198452995Y-102979122D01*
X198450000Y-102983243D01*
X198450000Y-103409320D01*
X197950000Y-103409320D01*
X197950000Y-102574000D01*
X197968907Y-102515809D01*
X198018407Y-102479845D01*
X198049000Y-102475000D01*
X198959030Y-102475000D01*
X198971715Y-102470878D01*
X198973125Y-102468938D01*
X198973577Y-102464568D01*
X198969029Y-102422702D01*
X198966178Y-102410713D01*
X198920557Y-102289018D01*
X198913857Y-102276781D01*
X198881325Y-102233373D01*
X198861557Y-102175469D01*
X198879599Y-102117004D01*
X198928560Y-102080310D01*
X198960546Y-102075000D01*
X200650000Y-102075000D01*
X200650000Y-101534320D01*
X201275000Y-101534320D01*
X201279122Y-101547005D01*
X201283243Y-101550000D01*
X201759320Y-101550000D01*
X201772005Y-101545878D01*
X201775000Y-101541757D01*
X201775000Y-101040681D01*
X201770878Y-101027996D01*
X201766757Y-101025001D01*
X201762201Y-101025001D01*
X201756243Y-101025360D01*
X201679906Y-101034597D01*
X201667681Y-101037702D01*
X201546128Y-101085827D01*
X201534475Y-101092393D01*
X201430658Y-101171196D01*
X201421196Y-101180658D01*
X201342393Y-101284475D01*
X201335827Y-101296128D01*
X201287703Y-101417679D01*
X201284597Y-101429907D01*
X201275359Y-101506245D01*
X201275000Y-101512199D01*
X201275000Y-101534320D01*
X200650000Y-101534320D01*
X200650000Y-100868001D01*
X200670458Y-100807734D01*
X200691695Y-100780057D01*
X200695646Y-100774908D01*
X200756154Y-100628829D01*
X200776792Y-100472067D01*
X200768985Y-100412766D01*
X200772433Y-100375244D01*
X200772324Y-100375227D01*
X200772588Y-100373561D01*
X200772984Y-100369250D01*
X200773543Y-100367530D01*
X200773544Y-100367526D01*
X200775950Y-100360120D01*
X200775950Y-100115050D01*
X200794857Y-100056859D01*
X200844357Y-100020896D01*
X200848254Y-100019630D01*
X200851250Y-100015507D01*
X200851250Y-100008070D01*
X201351250Y-100008070D01*
X201355372Y-100020755D01*
X201359493Y-100023750D01*
X201543153Y-100023750D01*
X201549607Y-100023327D01*
X201585055Y-100018660D01*
X201599421Y-100014473D01*
X201686030Y-99974087D01*
X201700002Y-99964304D01*
X201766804Y-99897502D01*
X201776587Y-99883530D01*
X201816973Y-99796921D01*
X201821160Y-99782555D01*
X201825827Y-99747107D01*
X201826250Y-99740653D01*
X201826250Y-99539430D01*
X201822128Y-99526745D01*
X201818007Y-99523750D01*
X201366930Y-99523750D01*
X201354245Y-99527872D01*
X201351250Y-99531993D01*
X201351250Y-100008070D01*
X200851250Y-100008070D01*
X200851250Y-99122750D01*
X200851838Y-99120939D01*
X201874546Y-99125696D01*
G37*
%TD.AperFunction*%
%TD*%
%TA.AperFunction,Conductor*%
%TO.N,Net-(L1-Pad1)*%
G36*
X205649658Y-95673893D02*
G01*
X205975965Y-95674012D01*
X206034149Y-95692941D01*
X206070095Y-95742454D01*
X206071443Y-95799053D01*
X206066527Y-95817085D01*
X206064732Y-95832480D01*
X206064400Y-95838192D01*
X206064400Y-96490520D01*
X206068522Y-96503205D01*
X206072643Y-96506200D01*
X207359920Y-96506200D01*
X207372605Y-96502078D01*
X207375600Y-96497957D01*
X207375600Y-95838261D01*
X207375254Y-95832415D01*
X207373365Y-95816543D01*
X207368761Y-95799793D01*
X207371569Y-95738672D01*
X207409766Y-95690875D01*
X207464256Y-95674554D01*
X208161010Y-95674807D01*
X208219194Y-95693735D01*
X208255140Y-95743249D01*
X208259974Y-95773805D01*
X208260001Y-97010322D01*
X208260013Y-97590970D01*
X208241107Y-97649161D01*
X208191608Y-97685126D01*
X208160978Y-97689972D01*
X207474563Y-97689722D01*
X207416380Y-97670793D01*
X207380434Y-97621280D01*
X207375600Y-97590722D01*
X207375600Y-97021880D01*
X207371478Y-97009195D01*
X207367357Y-97006200D01*
X206080080Y-97006200D01*
X206067395Y-97010322D01*
X206064400Y-97014443D01*
X206064400Y-97590171D01*
X206045493Y-97648362D01*
X205995993Y-97684326D01*
X205965364Y-97689171D01*
X205591283Y-97689035D01*
X205493630Y-97688999D01*
X205435446Y-97670070D01*
X205399500Y-97620557D01*
X205394666Y-97590298D01*
X205389368Y-95838192D01*
X205389171Y-95773132D01*
X205407903Y-95714886D01*
X205457294Y-95678772D01*
X205488206Y-95673834D01*
X205649658Y-95673893D01*
G37*
%TD.AperFunction*%
%TD*%
M02*
