%TF.GenerationSoftware,KiCad,Pcbnew,(6.0.7)*%
%TF.CreationDate,2022-10-19T13:05:16-04:00*%
%TF.ProjectId,PCB,5043422e-6b69-4636-9164-5f7063625858,rev?*%
%TF.SameCoordinates,Original*%
%TF.FileFunction,Legend,Top*%
%TF.FilePolarity,Positive*%
%FSLAX46Y46*%
G04 Gerber Fmt 4.6, Leading zero omitted, Abs format (unit mm)*
G04 Created by KiCad (PCBNEW (6.0.7)) date 2022-10-19 13:05:16*
%MOMM*%
%LPD*%
G01*
G04 APERTURE LIST*
%ADD10C,0.150000*%
%ADD11C,0.250000*%
%ADD12C,0.100000*%
%ADD13C,0.120000*%
%ADD14C,0.127000*%
%ADD15C,0.200000*%
G04 APERTURE END LIST*
D10*
X204913357Y-116266360D02*
X204563357Y-116716360D01*
X203288357Y-118516360D02*
X203113357Y-118316360D01*
X206167351Y-118316360D02*
G75*
G03*
X206167351Y-118316360I-1253994J0D01*
G01*
X203338357Y-118316360D02*
X202888357Y-118316360D01*
X205013357Y-116516360D02*
X205063357Y-116666360D01*
X204613357Y-116716360D02*
X204563357Y-116716360D01*
X205063357Y-116666360D02*
X204913357Y-116491360D01*
X203288357Y-118166360D02*
X203113357Y-118316360D01*
X216413852Y-98030000D02*
G75*
G03*
X216413852Y-98030000I-53852J0D01*
G01*
X204913357Y-117037367D02*
X204913357Y-116741360D01*
X240280000Y-91540000D02*
G75*
G03*
X240280000Y-91540000I-60000J0D01*
G01*
X204913357Y-116716360D02*
X205263357Y-116716360D01*
X203338357Y-118616360D02*
X203338357Y-118666360D01*
X216423852Y-96000000D02*
G75*
G03*
X216423852Y-96000000I-53852J0D01*
G01*
X204713357Y-116666360D02*
X204913357Y-116491360D01*
X238220554Y-109110000D02*
G75*
G03*
X238220554Y-109110000I-90554J0D01*
G01*
X203138357Y-118216360D02*
X203288357Y-118166360D01*
X204913357Y-116716360D02*
X204913357Y-116266360D01*
X205263357Y-116716360D02*
X204613357Y-116716360D01*
X204913357Y-116266360D02*
X205263357Y-116716360D01*
X202888357Y-118316360D02*
X203338357Y-117966360D01*
X203338357Y-118316360D02*
X203338357Y-117966360D01*
X203659364Y-118316360D02*
X203363357Y-118316360D01*
X202888357Y-118316360D02*
X203338357Y-118666360D01*
X203338357Y-117966360D02*
X203338357Y-118616360D01*
X203026666Y-108933333D02*
X203126666Y-108966666D01*
X203293333Y-108966666D01*
X203360000Y-108933333D01*
X203393333Y-108900000D01*
X203426666Y-108833333D01*
X203426666Y-108766666D01*
X203393333Y-108700000D01*
X203360000Y-108666666D01*
X203293333Y-108633333D01*
X203160000Y-108600000D01*
X203093333Y-108566666D01*
X203060000Y-108533333D01*
X203026666Y-108466666D01*
X203026666Y-108400000D01*
X203060000Y-108333333D01*
X203093333Y-108300000D01*
X203160000Y-108266666D01*
X203326666Y-108266666D01*
X203426666Y-108300000D01*
X204126666Y-108900000D02*
X204093333Y-108933333D01*
X203993333Y-108966666D01*
X203926666Y-108966666D01*
X203826666Y-108933333D01*
X203760000Y-108866666D01*
X203726666Y-108800000D01*
X203693333Y-108666666D01*
X203693333Y-108566666D01*
X203726666Y-108433333D01*
X203760000Y-108366666D01*
X203826666Y-108300000D01*
X203926666Y-108266666D01*
X203993333Y-108266666D01*
X204093333Y-108300000D01*
X204126666Y-108333333D01*
X204760000Y-108966666D02*
X204426666Y-108966666D01*
X204426666Y-108266666D01*
X202620000Y-111603333D02*
X202720000Y-111636666D01*
X202886666Y-111636666D01*
X202953333Y-111603333D01*
X202986666Y-111570000D01*
X203020000Y-111503333D01*
X203020000Y-111436666D01*
X202986666Y-111370000D01*
X202953333Y-111336666D01*
X202886666Y-111303333D01*
X202753333Y-111270000D01*
X202686666Y-111236666D01*
X202653333Y-111203333D01*
X202620000Y-111136666D01*
X202620000Y-111070000D01*
X202653333Y-111003333D01*
X202686666Y-110970000D01*
X202753333Y-110936666D01*
X202920000Y-110936666D01*
X203020000Y-110970000D01*
X203320000Y-111636666D02*
X203320000Y-110936666D01*
X203486666Y-110936666D01*
X203586666Y-110970000D01*
X203653333Y-111036666D01*
X203686666Y-111103333D01*
X203720000Y-111236666D01*
X203720000Y-111336666D01*
X203686666Y-111470000D01*
X203653333Y-111536666D01*
X203586666Y-111603333D01*
X203486666Y-111636666D01*
X203320000Y-111636666D01*
X203986666Y-111436666D02*
X204320000Y-111436666D01*
X203920000Y-111636666D02*
X204153333Y-110936666D01*
X204386666Y-111636666D01*
X210006666Y-94170000D02*
X209773333Y-94170000D01*
X209773333Y-94536666D02*
X209773333Y-93836666D01*
X210106666Y-93836666D01*
X210673333Y-94070000D02*
X210673333Y-94536666D01*
X210373333Y-94070000D02*
X210373333Y-94436666D01*
X210406666Y-94503333D01*
X210473333Y-94536666D01*
X210573333Y-94536666D01*
X210640000Y-94503333D01*
X210673333Y-94470000D01*
X211106666Y-94536666D02*
X211040000Y-94503333D01*
X211006666Y-94436666D01*
X211006666Y-93836666D01*
X211473333Y-94536666D02*
X211406666Y-94503333D01*
X211373333Y-94436666D01*
X211373333Y-93836666D01*
X223313333Y-99006666D02*
X223546666Y-99706666D01*
X223780000Y-99006666D01*
X224013333Y-99706666D02*
X224013333Y-99006666D01*
X224346666Y-99706666D02*
X224346666Y-99006666D01*
X224746666Y-99706666D01*
X224746666Y-99006666D01*
X224856666Y-109106666D02*
X224523333Y-109340000D01*
X224856666Y-109506666D02*
X224156666Y-109506666D01*
X224156666Y-109240000D01*
X224190000Y-109173333D01*
X224223333Y-109140000D01*
X224290000Y-109106666D01*
X224390000Y-109106666D01*
X224456666Y-109140000D01*
X224490000Y-109173333D01*
X224523333Y-109240000D01*
X224523333Y-109506666D01*
X224490000Y-108806666D02*
X224490000Y-108573333D01*
X224856666Y-108473333D02*
X224856666Y-108806666D01*
X224156666Y-108806666D01*
X224156666Y-108473333D01*
X224823333Y-108206666D02*
X224856666Y-108106666D01*
X224856666Y-107940000D01*
X224823333Y-107873333D01*
X224790000Y-107840000D01*
X224723333Y-107806666D01*
X224656666Y-107806666D01*
X224590000Y-107840000D01*
X224556666Y-107873333D01*
X224523333Y-107940000D01*
X224490000Y-108073333D01*
X224456666Y-108140000D01*
X224423333Y-108173333D01*
X224356666Y-108206666D01*
X224290000Y-108206666D01*
X224223333Y-108173333D01*
X224190000Y-108140000D01*
X224156666Y-108073333D01*
X224156666Y-107906666D01*
X224190000Y-107806666D01*
X224490000Y-107506666D02*
X224490000Y-107273333D01*
X224856666Y-107173333D02*
X224856666Y-107506666D01*
X224156666Y-107506666D01*
X224156666Y-107173333D01*
X224156666Y-106973333D02*
X224156666Y-106573333D01*
X224856666Y-106773333D02*
X224156666Y-106773333D01*
X240073333Y-112156666D02*
X239840000Y-111823333D01*
X239673333Y-112156666D02*
X239673333Y-111456666D01*
X239940000Y-111456666D01*
X240006666Y-111490000D01*
X240040000Y-111523333D01*
X240073333Y-111590000D01*
X240073333Y-111690000D01*
X240040000Y-111756666D01*
X240006666Y-111790000D01*
X239940000Y-111823333D01*
X239673333Y-111823333D01*
X240306666Y-111456666D02*
X240773333Y-112156666D01*
X240773333Y-111456666D02*
X240306666Y-112156666D01*
X196695000Y-118079000D02*
X197028333Y-118079000D01*
X196861666Y-118976666D02*
X196861666Y-118276666D01*
X197028333Y-118079000D02*
X197761666Y-118079000D01*
X197195000Y-118976666D02*
X197195000Y-118276666D01*
X197595000Y-118976666D01*
X197595000Y-118276666D01*
X197761666Y-118079000D02*
X198295000Y-118079000D01*
X197828333Y-118276666D02*
X198228333Y-118276666D01*
X198028333Y-118976666D02*
X198028333Y-118276666D01*
D11*
X204141928Y-118816360D02*
X204141928Y-117816360D01*
X205641928Y-118816360D01*
X205641928Y-117816360D01*
D10*
X239656666Y-108746666D02*
X240056666Y-108746666D01*
X239856666Y-109446666D02*
X239856666Y-108746666D01*
X240223333Y-108746666D02*
X240690000Y-109446666D01*
X240690000Y-108746666D02*
X240223333Y-109446666D01*
X225460000Y-94986666D02*
X225493333Y-94886666D01*
X225526666Y-94853333D01*
X225593333Y-94820000D01*
X225693333Y-94820000D01*
X225760000Y-94853333D01*
X225793333Y-94886666D01*
X225826666Y-94953333D01*
X225826666Y-95220000D01*
X225126666Y-95220000D01*
X225126666Y-94986666D01*
X225160000Y-94920000D01*
X225193333Y-94886666D01*
X225260000Y-94853333D01*
X225326666Y-94853333D01*
X225393333Y-94886666D01*
X225426666Y-94920000D01*
X225460000Y-94986666D01*
X225460000Y-95220000D01*
X225626666Y-94553333D02*
X225626666Y-94220000D01*
X225826666Y-94620000D02*
X225126666Y-94386666D01*
X225826666Y-94153333D01*
X225126666Y-94020000D02*
X225126666Y-93620000D01*
X225826666Y-93820000D02*
X225126666Y-93820000D01*
X225126666Y-93486666D02*
X225126666Y-93086666D01*
X225826666Y-93286666D02*
X225126666Y-93286666D01*
X225560000Y-92853333D02*
X225560000Y-92320000D01*
X210046666Y-98480000D02*
X210013333Y-98513333D01*
X209913333Y-98546666D01*
X209846666Y-98546666D01*
X209746666Y-98513333D01*
X209680000Y-98446666D01*
X209646666Y-98380000D01*
X209613333Y-98246666D01*
X209613333Y-98146666D01*
X209646666Y-98013333D01*
X209680000Y-97946666D01*
X209746666Y-97880000D01*
X209846666Y-97846666D01*
X209913333Y-97846666D01*
X210013333Y-97880000D01*
X210046666Y-97913333D01*
X210346666Y-98546666D02*
X210346666Y-97846666D01*
X210646666Y-98546666D02*
X210646666Y-98180000D01*
X210613333Y-98113333D01*
X210546666Y-98080000D01*
X210446666Y-98080000D01*
X210380000Y-98113333D01*
X210346666Y-98146666D01*
X210980000Y-98546666D02*
X210980000Y-98080000D01*
X210980000Y-98213333D02*
X211013333Y-98146666D01*
X211046666Y-98113333D01*
X211113333Y-98080000D01*
X211180000Y-98080000D01*
X211713333Y-98080000D02*
X211713333Y-98646666D01*
X211680000Y-98713333D01*
X211646666Y-98746666D01*
X211580000Y-98780000D01*
X211480000Y-98780000D01*
X211413333Y-98746666D01*
X211713333Y-98513333D02*
X211646666Y-98546666D01*
X211513333Y-98546666D01*
X211446666Y-98513333D01*
X211413333Y-98480000D01*
X211380000Y-98413333D01*
X211380000Y-98213333D01*
X211413333Y-98146666D01*
X211446666Y-98113333D01*
X211513333Y-98080000D01*
X211646666Y-98080000D01*
X211713333Y-98113333D01*
D11*
X201777642Y-118316360D02*
X202491928Y-118316360D01*
X200991928Y-118816360D02*
X201777642Y-118316360D01*
X200991928Y-117816360D01*
X204141928Y-116166360D02*
X205641928Y-115166360D01*
X204141928Y-115166360D02*
X205641928Y-116166360D01*
D10*
X225536666Y-99550000D02*
X225470000Y-99516666D01*
X225370000Y-99516666D01*
X225270000Y-99550000D01*
X225203333Y-99616666D01*
X225170000Y-99683333D01*
X225136666Y-99816666D01*
X225136666Y-99916666D01*
X225170000Y-100050000D01*
X225203333Y-100116666D01*
X225270000Y-100183333D01*
X225370000Y-100216666D01*
X225436666Y-100216666D01*
X225536666Y-100183333D01*
X225570000Y-100150000D01*
X225570000Y-99916666D01*
X225436666Y-99916666D01*
X225870000Y-100216666D02*
X225870000Y-99516666D01*
X226136666Y-99516666D01*
X226203333Y-99550000D01*
X226236666Y-99583333D01*
X226270000Y-99650000D01*
X226270000Y-99750000D01*
X226236666Y-99816666D01*
X226203333Y-99850000D01*
X226136666Y-99883333D01*
X225870000Y-99883333D01*
X226570000Y-100216666D02*
X226570000Y-99516666D01*
X227036666Y-99516666D02*
X227170000Y-99516666D01*
X227236666Y-99550000D01*
X227303333Y-99616666D01*
X227336666Y-99750000D01*
X227336666Y-99983333D01*
X227303333Y-100116666D01*
X227236666Y-100183333D01*
X227170000Y-100216666D01*
X227036666Y-100216666D01*
X226970000Y-100183333D01*
X226903333Y-100116666D01*
X226870000Y-99983333D01*
X226870000Y-99750000D01*
X226903333Y-99616666D01*
X226970000Y-99550000D01*
X227036666Y-99516666D01*
X227770000Y-99516666D02*
X227836666Y-99516666D01*
X227903333Y-99550000D01*
X227936666Y-99583333D01*
X227970000Y-99650000D01*
X228003333Y-99783333D01*
X228003333Y-99950000D01*
X227970000Y-100083333D01*
X227936666Y-100150000D01*
X227903333Y-100183333D01*
X227836666Y-100216666D01*
X227770000Y-100216666D01*
X227703333Y-100183333D01*
X227670000Y-100150000D01*
X227636666Y-100083333D01*
X227603333Y-99950000D01*
X227603333Y-99783333D01*
X227636666Y-99650000D01*
X227670000Y-99583333D01*
X227703333Y-99550000D01*
X227770000Y-99516666D01*
X222439000Y-119153333D02*
X222439000Y-118453333D01*
X223336666Y-118586666D02*
X223003333Y-118820000D01*
X223336666Y-118986666D02*
X222636666Y-118986666D01*
X222636666Y-118720000D01*
X222670000Y-118653333D01*
X222703333Y-118620000D01*
X222770000Y-118586666D01*
X222870000Y-118586666D01*
X222936666Y-118620000D01*
X222970000Y-118653333D01*
X223003333Y-118720000D01*
X223003333Y-118986666D01*
X222439000Y-118453333D02*
X222439000Y-117820000D01*
X222970000Y-118286666D02*
X222970000Y-118053333D01*
X223336666Y-117953333D02*
X223336666Y-118286666D01*
X222636666Y-118286666D01*
X222636666Y-117953333D01*
X222439000Y-117820000D02*
X222439000Y-117153333D01*
X223303333Y-117686666D02*
X223336666Y-117586666D01*
X223336666Y-117420000D01*
X223303333Y-117353333D01*
X223270000Y-117320000D01*
X223203333Y-117286666D01*
X223136666Y-117286666D01*
X223070000Y-117320000D01*
X223036666Y-117353333D01*
X223003333Y-117420000D01*
X222970000Y-117553333D01*
X222936666Y-117620000D01*
X222903333Y-117653333D01*
X222836666Y-117686666D01*
X222770000Y-117686666D01*
X222703333Y-117653333D01*
X222670000Y-117620000D01*
X222636666Y-117553333D01*
X222636666Y-117386666D01*
X222670000Y-117286666D01*
X222439000Y-117153333D02*
X222439000Y-116520000D01*
X222970000Y-116986666D02*
X222970000Y-116753333D01*
X223336666Y-116653333D02*
X223336666Y-116986666D01*
X222636666Y-116986666D01*
X222636666Y-116653333D01*
X222439000Y-116520000D02*
X222439000Y-115986666D01*
X222636666Y-116453333D02*
X222636666Y-116053333D01*
X223336666Y-116253333D02*
X222636666Y-116253333D01*
X222306666Y-94743333D02*
X221606666Y-94743333D01*
X221606666Y-94476666D01*
X221640000Y-94410000D01*
X221673333Y-94376666D01*
X221740000Y-94343333D01*
X221840000Y-94343333D01*
X221906666Y-94376666D01*
X221940000Y-94410000D01*
X221973333Y-94476666D01*
X221973333Y-94743333D01*
X222306666Y-93943333D02*
X222273333Y-94010000D01*
X222240000Y-94043333D01*
X222173333Y-94076666D01*
X221973333Y-94076666D01*
X221906666Y-94043333D01*
X221873333Y-94010000D01*
X221840000Y-93943333D01*
X221840000Y-93843333D01*
X221873333Y-93776666D01*
X221906666Y-93743333D01*
X221973333Y-93710000D01*
X222173333Y-93710000D01*
X222240000Y-93743333D01*
X222273333Y-93776666D01*
X222306666Y-93843333D01*
X222306666Y-93943333D01*
X221840000Y-93476666D02*
X222306666Y-93343333D01*
X221973333Y-93210000D01*
X222306666Y-93076666D01*
X221840000Y-92943333D01*
X222273333Y-92410000D02*
X222306666Y-92476666D01*
X222306666Y-92610000D01*
X222273333Y-92676666D01*
X222206666Y-92710000D01*
X221940000Y-92710000D01*
X221873333Y-92676666D01*
X221840000Y-92610000D01*
X221840000Y-92476666D01*
X221873333Y-92410000D01*
X221940000Y-92376666D01*
X222006666Y-92376666D01*
X222073333Y-92710000D01*
X222306666Y-92076666D02*
X221840000Y-92076666D01*
X221973333Y-92076666D02*
X221906666Y-92043333D01*
X221873333Y-92010000D01*
X221840000Y-91943333D01*
X221840000Y-91876666D01*
X226306666Y-119686666D02*
X226073333Y-119353333D01*
X225906666Y-119686666D02*
X225906666Y-118986666D01*
X226173333Y-118986666D01*
X226240000Y-119020000D01*
X226273333Y-119053333D01*
X226306666Y-119120000D01*
X226306666Y-119220000D01*
X226273333Y-119286666D01*
X226240000Y-119320000D01*
X226173333Y-119353333D01*
X225906666Y-119353333D01*
X226506666Y-118986666D02*
X226906666Y-118986666D01*
X226706666Y-119686666D02*
X226706666Y-118986666D01*
X227106666Y-119653333D02*
X227206666Y-119686666D01*
X227373333Y-119686666D01*
X227440000Y-119653333D01*
X227473333Y-119620000D01*
X227506666Y-119553333D01*
X227506666Y-119486666D01*
X227473333Y-119420000D01*
X227440000Y-119386666D01*
X227373333Y-119353333D01*
X227240000Y-119320000D01*
X227173333Y-119286666D01*
X227140000Y-119253333D01*
X227106666Y-119186666D01*
X227106666Y-119120000D01*
X227140000Y-119053333D01*
X227173333Y-119020000D01*
X227240000Y-118986666D01*
X227406666Y-118986666D01*
X227506666Y-119020000D01*
X243720000Y-110886666D02*
X243720000Y-110186666D01*
X243886666Y-110186666D01*
X243986666Y-110220000D01*
X244053333Y-110286666D01*
X244086666Y-110353333D01*
X244120000Y-110486666D01*
X244120000Y-110586666D01*
X244086666Y-110720000D01*
X244053333Y-110786666D01*
X243986666Y-110853333D01*
X243886666Y-110886666D01*
X243720000Y-110886666D01*
X244320000Y-110186666D02*
X244720000Y-110186666D01*
X244520000Y-110886666D02*
X244520000Y-110186666D01*
X245353333Y-110886666D02*
X245120000Y-110553333D01*
X244953333Y-110886666D02*
X244953333Y-110186666D01*
X245220000Y-110186666D01*
X245286666Y-110220000D01*
X245320000Y-110253333D01*
X245353333Y-110320000D01*
X245353333Y-110420000D01*
X245320000Y-110486666D01*
X245286666Y-110520000D01*
X245220000Y-110553333D01*
X244953333Y-110553333D01*
X224210000Y-105433333D02*
X224176666Y-105500000D01*
X224176666Y-105600000D01*
X224210000Y-105700000D01*
X224276666Y-105766666D01*
X224343333Y-105800000D01*
X224476666Y-105833333D01*
X224576666Y-105833333D01*
X224710000Y-105800000D01*
X224776666Y-105766666D01*
X224843333Y-105700000D01*
X224876666Y-105600000D01*
X224876666Y-105533333D01*
X224843333Y-105433333D01*
X224810000Y-105400000D01*
X224576666Y-105400000D01*
X224576666Y-105533333D01*
X224876666Y-105100000D02*
X224176666Y-105100000D01*
X224176666Y-104833333D01*
X224210000Y-104766666D01*
X224243333Y-104733333D01*
X224310000Y-104700000D01*
X224410000Y-104700000D01*
X224476666Y-104733333D01*
X224510000Y-104766666D01*
X224543333Y-104833333D01*
X224543333Y-105100000D01*
X224876666Y-104400000D02*
X224176666Y-104400000D01*
X224176666Y-103933333D02*
X224176666Y-103800000D01*
X224210000Y-103733333D01*
X224276666Y-103666666D01*
X224410000Y-103633333D01*
X224643333Y-103633333D01*
X224776666Y-103666666D01*
X224843333Y-103733333D01*
X224876666Y-103800000D01*
X224876666Y-103933333D01*
X224843333Y-104000000D01*
X224776666Y-104066666D01*
X224643333Y-104100000D01*
X224410000Y-104100000D01*
X224276666Y-104066666D01*
X224210000Y-104000000D01*
X224176666Y-103933333D01*
X224176666Y-103200000D02*
X224176666Y-103133333D01*
X224210000Y-103066666D01*
X224243333Y-103033333D01*
X224310000Y-103000000D01*
X224443333Y-102966666D01*
X224610000Y-102966666D01*
X224743333Y-103000000D01*
X224810000Y-103033333D01*
X224843333Y-103066666D01*
X224876666Y-103133333D01*
X224876666Y-103200000D01*
X224843333Y-103266666D01*
X224810000Y-103300000D01*
X224743333Y-103333333D01*
X224610000Y-103366666D01*
X224443333Y-103366666D01*
X224310000Y-103333333D01*
X224243333Y-103300000D01*
X224210000Y-103266666D01*
X224176666Y-103200000D01*
X230241428Y-94956666D02*
X230273809Y-94856666D01*
X230306190Y-94823333D01*
X230370952Y-94790000D01*
X230468095Y-94790000D01*
X230532857Y-94823333D01*
X230565238Y-94856666D01*
X230597619Y-94923333D01*
X230597619Y-95190000D01*
X229917619Y-95190000D01*
X229917619Y-94956666D01*
X229950000Y-94890000D01*
X229982380Y-94856666D01*
X230047142Y-94823333D01*
X230111904Y-94823333D01*
X230176666Y-94856666D01*
X230209047Y-94890000D01*
X230241428Y-94956666D01*
X230241428Y-95190000D01*
X230403333Y-94523333D02*
X230403333Y-94190000D01*
X230597619Y-94590000D02*
X229917619Y-94356666D01*
X230597619Y-94123333D01*
X229917619Y-93990000D02*
X229917619Y-93590000D01*
X230597619Y-93790000D02*
X229917619Y-93790000D01*
X229917619Y-93456666D02*
X229917619Y-93056666D01*
X230597619Y-93256666D02*
X229917619Y-93256666D01*
X230338571Y-92823333D02*
X230338571Y-92290000D01*
X230597619Y-92556666D02*
X230079523Y-92556666D01*
D12*
%TO.C,C26*%
X203758571Y-96148571D02*
X203734761Y-96172380D01*
X203663333Y-96196190D01*
X203615714Y-96196190D01*
X203544285Y-96172380D01*
X203496666Y-96124761D01*
X203472857Y-96077142D01*
X203449047Y-95981904D01*
X203449047Y-95910476D01*
X203472857Y-95815238D01*
X203496666Y-95767619D01*
X203544285Y-95720000D01*
X203615714Y-95696190D01*
X203663333Y-95696190D01*
X203734761Y-95720000D01*
X203758571Y-95743809D01*
X203949047Y-95743809D02*
X203972857Y-95720000D01*
X204020476Y-95696190D01*
X204139523Y-95696190D01*
X204187142Y-95720000D01*
X204210952Y-95743809D01*
X204234761Y-95791428D01*
X204234761Y-95839047D01*
X204210952Y-95910476D01*
X203925238Y-96196190D01*
X204234761Y-96196190D01*
X204663333Y-95696190D02*
X204568095Y-95696190D01*
X204520476Y-95720000D01*
X204496666Y-95743809D01*
X204449047Y-95815238D01*
X204425238Y-95910476D01*
X204425238Y-96100952D01*
X204449047Y-96148571D01*
X204472857Y-96172380D01*
X204520476Y-96196190D01*
X204615714Y-96196190D01*
X204663333Y-96172380D01*
X204687142Y-96148571D01*
X204710952Y-96100952D01*
X204710952Y-95981904D01*
X204687142Y-95934285D01*
X204663333Y-95910476D01*
X204615714Y-95886666D01*
X204520476Y-95886666D01*
X204472857Y-95910476D01*
X204449047Y-95934285D01*
X204425238Y-95981904D01*
%TO.C,SW3*%
X239953333Y-115922380D02*
X240024761Y-115946190D01*
X240143809Y-115946190D01*
X240191428Y-115922380D01*
X240215238Y-115898571D01*
X240239047Y-115850952D01*
X240239047Y-115803333D01*
X240215238Y-115755714D01*
X240191428Y-115731904D01*
X240143809Y-115708095D01*
X240048571Y-115684285D01*
X240000952Y-115660476D01*
X239977142Y-115636666D01*
X239953333Y-115589047D01*
X239953333Y-115541428D01*
X239977142Y-115493809D01*
X240000952Y-115470000D01*
X240048571Y-115446190D01*
X240167619Y-115446190D01*
X240239047Y-115470000D01*
X240405714Y-115446190D02*
X240524761Y-115946190D01*
X240620000Y-115589047D01*
X240715238Y-115946190D01*
X240834285Y-115446190D01*
X240977142Y-115446190D02*
X241286666Y-115446190D01*
X241120000Y-115636666D01*
X241191428Y-115636666D01*
X241239047Y-115660476D01*
X241262857Y-115684285D01*
X241286666Y-115731904D01*
X241286666Y-115850952D01*
X241262857Y-115898571D01*
X241239047Y-115922380D01*
X241191428Y-115946190D01*
X241048571Y-115946190D01*
X241000952Y-115922380D01*
X240977142Y-115898571D01*
%TO.C,C21*%
X211318571Y-93376428D02*
X211342380Y-93400238D01*
X211366190Y-93471666D01*
X211366190Y-93519285D01*
X211342380Y-93590714D01*
X211294761Y-93638333D01*
X211247142Y-93662142D01*
X211151904Y-93685952D01*
X211080476Y-93685952D01*
X210985238Y-93662142D01*
X210937619Y-93638333D01*
X210890000Y-93590714D01*
X210866190Y-93519285D01*
X210866190Y-93471666D01*
X210890000Y-93400238D01*
X210913809Y-93376428D01*
X210913809Y-93185952D02*
X210890000Y-93162142D01*
X210866190Y-93114523D01*
X210866190Y-92995476D01*
X210890000Y-92947857D01*
X210913809Y-92924047D01*
X210961428Y-92900238D01*
X211009047Y-92900238D01*
X211080476Y-92924047D01*
X211366190Y-93209761D01*
X211366190Y-92900238D01*
X211366190Y-92424047D02*
X211366190Y-92709761D01*
X211366190Y-92566904D02*
X210866190Y-92566904D01*
X210937619Y-92614523D01*
X210985238Y-92662142D01*
X211009047Y-92709761D01*
%TO.C,R14*%
X199246190Y-105921428D02*
X199008095Y-106088095D01*
X199246190Y-106207142D02*
X198746190Y-106207142D01*
X198746190Y-106016666D01*
X198770000Y-105969047D01*
X198793809Y-105945238D01*
X198841428Y-105921428D01*
X198912857Y-105921428D01*
X198960476Y-105945238D01*
X198984285Y-105969047D01*
X199008095Y-106016666D01*
X199008095Y-106207142D01*
X199246190Y-105445238D02*
X199246190Y-105730952D01*
X199246190Y-105588095D02*
X198746190Y-105588095D01*
X198817619Y-105635714D01*
X198865238Y-105683333D01*
X198889047Y-105730952D01*
X198912857Y-105016666D02*
X199246190Y-105016666D01*
X198722380Y-105135714D02*
X199079523Y-105254761D01*
X199079523Y-104945238D01*
%TO.C,R12*%
X196288571Y-92496190D02*
X196121904Y-92258095D01*
X196002857Y-92496190D02*
X196002857Y-91996190D01*
X196193333Y-91996190D01*
X196240952Y-92020000D01*
X196264761Y-92043809D01*
X196288571Y-92091428D01*
X196288571Y-92162857D01*
X196264761Y-92210476D01*
X196240952Y-92234285D01*
X196193333Y-92258095D01*
X196002857Y-92258095D01*
X196764761Y-92496190D02*
X196479047Y-92496190D01*
X196621904Y-92496190D02*
X196621904Y-91996190D01*
X196574285Y-92067619D01*
X196526666Y-92115238D01*
X196479047Y-92139047D01*
X196955238Y-92043809D02*
X196979047Y-92020000D01*
X197026666Y-91996190D01*
X197145714Y-91996190D01*
X197193333Y-92020000D01*
X197217142Y-92043809D01*
X197240952Y-92091428D01*
X197240952Y-92139047D01*
X197217142Y-92210476D01*
X196931428Y-92496190D01*
X197240952Y-92496190D01*
%TO.C,D6*%
X235716190Y-117379047D02*
X235216190Y-117379047D01*
X235216190Y-117260000D01*
X235240000Y-117188571D01*
X235287619Y-117140952D01*
X235335238Y-117117142D01*
X235430476Y-117093333D01*
X235501904Y-117093333D01*
X235597142Y-117117142D01*
X235644761Y-117140952D01*
X235692380Y-117188571D01*
X235716190Y-117260000D01*
X235716190Y-117379047D01*
X235216190Y-116664761D02*
X235216190Y-116760000D01*
X235240000Y-116807619D01*
X235263809Y-116831428D01*
X235335238Y-116879047D01*
X235430476Y-116902857D01*
X235620952Y-116902857D01*
X235668571Y-116879047D01*
X235692380Y-116855238D01*
X235716190Y-116807619D01*
X235716190Y-116712380D01*
X235692380Y-116664761D01*
X235668571Y-116640952D01*
X235620952Y-116617142D01*
X235501904Y-116617142D01*
X235454285Y-116640952D01*
X235430476Y-116664761D01*
X235406666Y-116712380D01*
X235406666Y-116807619D01*
X235430476Y-116855238D01*
X235454285Y-116879047D01*
X235501904Y-116902857D01*
%TO.C,C7*%
X229476666Y-99498571D02*
X229452857Y-99522380D01*
X229381428Y-99546190D01*
X229333809Y-99546190D01*
X229262380Y-99522380D01*
X229214761Y-99474761D01*
X229190952Y-99427142D01*
X229167142Y-99331904D01*
X229167142Y-99260476D01*
X229190952Y-99165238D01*
X229214761Y-99117619D01*
X229262380Y-99070000D01*
X229333809Y-99046190D01*
X229381428Y-99046190D01*
X229452857Y-99070000D01*
X229476666Y-99093809D01*
X229643333Y-99046190D02*
X229976666Y-99046190D01*
X229762380Y-99546190D01*
%TO.C,C8*%
X234851666Y-102218571D02*
X234827857Y-102242380D01*
X234756428Y-102266190D01*
X234708809Y-102266190D01*
X234637380Y-102242380D01*
X234589761Y-102194761D01*
X234565952Y-102147142D01*
X234542142Y-102051904D01*
X234542142Y-101980476D01*
X234565952Y-101885238D01*
X234589761Y-101837619D01*
X234637380Y-101790000D01*
X234708809Y-101766190D01*
X234756428Y-101766190D01*
X234827857Y-101790000D01*
X234851666Y-101813809D01*
X235137380Y-101980476D02*
X235089761Y-101956666D01*
X235065952Y-101932857D01*
X235042142Y-101885238D01*
X235042142Y-101861428D01*
X235065952Y-101813809D01*
X235089761Y-101790000D01*
X235137380Y-101766190D01*
X235232619Y-101766190D01*
X235280238Y-101790000D01*
X235304047Y-101813809D01*
X235327857Y-101861428D01*
X235327857Y-101885238D01*
X235304047Y-101932857D01*
X235280238Y-101956666D01*
X235232619Y-101980476D01*
X235137380Y-101980476D01*
X235089761Y-102004285D01*
X235065952Y-102028095D01*
X235042142Y-102075714D01*
X235042142Y-102170952D01*
X235065952Y-102218571D01*
X235089761Y-102242380D01*
X235137380Y-102266190D01*
X235232619Y-102266190D01*
X235280238Y-102242380D01*
X235304047Y-102218571D01*
X235327857Y-102170952D01*
X235327857Y-102075714D01*
X235304047Y-102028095D01*
X235280238Y-102004285D01*
X235232619Y-101980476D01*
%TO.C,R13*%
X197286190Y-102251428D02*
X197048095Y-102418095D01*
X197286190Y-102537142D02*
X196786190Y-102537142D01*
X196786190Y-102346666D01*
X196810000Y-102299047D01*
X196833809Y-102275238D01*
X196881428Y-102251428D01*
X196952857Y-102251428D01*
X197000476Y-102275238D01*
X197024285Y-102299047D01*
X197048095Y-102346666D01*
X197048095Y-102537142D01*
X197286190Y-101775238D02*
X197286190Y-102060952D01*
X197286190Y-101918095D02*
X196786190Y-101918095D01*
X196857619Y-101965714D01*
X196905238Y-102013333D01*
X196929047Y-102060952D01*
X196786190Y-101608571D02*
X196786190Y-101299047D01*
X196976666Y-101465714D01*
X196976666Y-101394285D01*
X197000476Y-101346666D01*
X197024285Y-101322857D01*
X197071904Y-101299047D01*
X197190952Y-101299047D01*
X197238571Y-101322857D01*
X197262380Y-101346666D01*
X197286190Y-101394285D01*
X197286190Y-101537142D01*
X197262380Y-101584761D01*
X197238571Y-101608571D01*
%TO.C,J1*%
X240406190Y-102791666D02*
X240763333Y-102791666D01*
X240834761Y-102815476D01*
X240882380Y-102863095D01*
X240906190Y-102934523D01*
X240906190Y-102982142D01*
X240906190Y-102291666D02*
X240906190Y-102577380D01*
X240906190Y-102434523D02*
X240406190Y-102434523D01*
X240477619Y-102482142D01*
X240525238Y-102529761D01*
X240549047Y-102577380D01*
%TO.C,C4*%
X226141666Y-111108571D02*
X226117857Y-111132380D01*
X226046428Y-111156190D01*
X225998809Y-111156190D01*
X225927380Y-111132380D01*
X225879761Y-111084761D01*
X225855952Y-111037142D01*
X225832142Y-110941904D01*
X225832142Y-110870476D01*
X225855952Y-110775238D01*
X225879761Y-110727619D01*
X225927380Y-110680000D01*
X225998809Y-110656190D01*
X226046428Y-110656190D01*
X226117857Y-110680000D01*
X226141666Y-110703809D01*
X226570238Y-110822857D02*
X226570238Y-111156190D01*
X226451190Y-110632380D02*
X226332142Y-110989523D01*
X226641666Y-110989523D01*
%TO.C,Y1*%
X192099249Y-114338368D02*
X192337344Y-114338368D01*
X191837344Y-114505034D02*
X192099249Y-114338368D01*
X191837344Y-114171701D01*
X192337344Y-113743130D02*
X192337344Y-114028844D01*
X192337344Y-113885987D02*
X191837344Y-113885987D01*
X191908773Y-113933606D01*
X191956392Y-113981225D01*
X191980201Y-114028844D01*
%TO.C,R10*%
X193248571Y-92526190D02*
X193081904Y-92288095D01*
X192962857Y-92526190D02*
X192962857Y-92026190D01*
X193153333Y-92026190D01*
X193200952Y-92050000D01*
X193224761Y-92073809D01*
X193248571Y-92121428D01*
X193248571Y-92192857D01*
X193224761Y-92240476D01*
X193200952Y-92264285D01*
X193153333Y-92288095D01*
X192962857Y-92288095D01*
X193724761Y-92526190D02*
X193439047Y-92526190D01*
X193581904Y-92526190D02*
X193581904Y-92026190D01*
X193534285Y-92097619D01*
X193486666Y-92145238D01*
X193439047Y-92169047D01*
X194034285Y-92026190D02*
X194081904Y-92026190D01*
X194129523Y-92050000D01*
X194153333Y-92073809D01*
X194177142Y-92121428D01*
X194200952Y-92216666D01*
X194200952Y-92335714D01*
X194177142Y-92430952D01*
X194153333Y-92478571D01*
X194129523Y-92502380D01*
X194081904Y-92526190D01*
X194034285Y-92526190D01*
X193986666Y-92502380D01*
X193962857Y-92478571D01*
X193939047Y-92430952D01*
X193915238Y-92335714D01*
X193915238Y-92216666D01*
X193939047Y-92121428D01*
X193962857Y-92073809D01*
X193986666Y-92050000D01*
X194034285Y-92026190D01*
%TO.C,C13*%
X195578571Y-97711428D02*
X195602380Y-97735238D01*
X195626190Y-97806666D01*
X195626190Y-97854285D01*
X195602380Y-97925714D01*
X195554761Y-97973333D01*
X195507142Y-97997142D01*
X195411904Y-98020952D01*
X195340476Y-98020952D01*
X195245238Y-97997142D01*
X195197619Y-97973333D01*
X195150000Y-97925714D01*
X195126190Y-97854285D01*
X195126190Y-97806666D01*
X195150000Y-97735238D01*
X195173809Y-97711428D01*
X195626190Y-97235238D02*
X195626190Y-97520952D01*
X195626190Y-97378095D02*
X195126190Y-97378095D01*
X195197619Y-97425714D01*
X195245238Y-97473333D01*
X195269047Y-97520952D01*
X195126190Y-97068571D02*
X195126190Y-96759047D01*
X195316666Y-96925714D01*
X195316666Y-96854285D01*
X195340476Y-96806666D01*
X195364285Y-96782857D01*
X195411904Y-96759047D01*
X195530952Y-96759047D01*
X195578571Y-96782857D01*
X195602380Y-96806666D01*
X195626190Y-96854285D01*
X195626190Y-96997142D01*
X195602380Y-97044761D01*
X195578571Y-97068571D01*
%TO.C,F1*%
X232403333Y-99264285D02*
X232236666Y-99264285D01*
X232236666Y-99526190D02*
X232236666Y-99026190D01*
X232474761Y-99026190D01*
X232927142Y-99526190D02*
X232641428Y-99526190D01*
X232784285Y-99526190D02*
X232784285Y-99026190D01*
X232736666Y-99097619D01*
X232689047Y-99145238D01*
X232641428Y-99169047D01*
%TO.C,U5*%
X198464154Y-114241225D02*
X198868916Y-114241225D01*
X198916535Y-114217415D01*
X198940344Y-114193606D01*
X198964154Y-114145987D01*
X198964154Y-114050749D01*
X198940344Y-114003130D01*
X198916535Y-113979320D01*
X198868916Y-113955511D01*
X198464154Y-113955511D01*
X198464154Y-113479320D02*
X198464154Y-113717415D01*
X198702249Y-113741225D01*
X198678440Y-113717415D01*
X198654630Y-113669796D01*
X198654630Y-113550749D01*
X198678440Y-113503130D01*
X198702249Y-113479320D01*
X198749868Y-113455511D01*
X198868916Y-113455511D01*
X198916535Y-113479320D01*
X198940344Y-113503130D01*
X198964154Y-113550749D01*
X198964154Y-113669796D01*
X198940344Y-113717415D01*
X198916535Y-113741225D01*
%TO.C,C14*%
X204888571Y-103651428D02*
X204912380Y-103675238D01*
X204936190Y-103746666D01*
X204936190Y-103794285D01*
X204912380Y-103865714D01*
X204864761Y-103913333D01*
X204817142Y-103937142D01*
X204721904Y-103960952D01*
X204650476Y-103960952D01*
X204555238Y-103937142D01*
X204507619Y-103913333D01*
X204460000Y-103865714D01*
X204436190Y-103794285D01*
X204436190Y-103746666D01*
X204460000Y-103675238D01*
X204483809Y-103651428D01*
X204936190Y-103175238D02*
X204936190Y-103460952D01*
X204936190Y-103318095D02*
X204436190Y-103318095D01*
X204507619Y-103365714D01*
X204555238Y-103413333D01*
X204579047Y-103460952D01*
X204602857Y-102746666D02*
X204936190Y-102746666D01*
X204412380Y-102865714D02*
X204769523Y-102984761D01*
X204769523Y-102675238D01*
%TO.C,SW4*%
X236662380Y-93106666D02*
X236686190Y-93035238D01*
X236686190Y-92916190D01*
X236662380Y-92868571D01*
X236638571Y-92844761D01*
X236590952Y-92820952D01*
X236543333Y-92820952D01*
X236495714Y-92844761D01*
X236471904Y-92868571D01*
X236448095Y-92916190D01*
X236424285Y-93011428D01*
X236400476Y-93059047D01*
X236376666Y-93082857D01*
X236329047Y-93106666D01*
X236281428Y-93106666D01*
X236233809Y-93082857D01*
X236210000Y-93059047D01*
X236186190Y-93011428D01*
X236186190Y-92892380D01*
X236210000Y-92820952D01*
X236186190Y-92654285D02*
X236686190Y-92535238D01*
X236329047Y-92440000D01*
X236686190Y-92344761D01*
X236186190Y-92225714D01*
X236352857Y-91820952D02*
X236686190Y-91820952D01*
X236162380Y-91940000D02*
X236519523Y-92059047D01*
X236519523Y-91749523D01*
D10*
X235660000Y-92038881D02*
X235660000Y-92276977D01*
X235421904Y-92181739D02*
X235660000Y-92276977D01*
X235898095Y-92181739D01*
X235517142Y-92467453D02*
X235660000Y-92276977D01*
X235802857Y-92467453D01*
D12*
%TO.C,Y2*%
X218716904Y-99183095D02*
X218716904Y-99421190D01*
X218550238Y-98921190D02*
X218716904Y-99183095D01*
X218883571Y-98921190D01*
X219026428Y-98968809D02*
X219050238Y-98945000D01*
X219097857Y-98921190D01*
X219216904Y-98921190D01*
X219264523Y-98945000D01*
X219288333Y-98968809D01*
X219312142Y-99016428D01*
X219312142Y-99064047D01*
X219288333Y-99135476D01*
X219002619Y-99421190D01*
X219312142Y-99421190D01*
%TO.C,C12*%
X207868571Y-93251428D02*
X207892380Y-93275238D01*
X207916190Y-93346666D01*
X207916190Y-93394285D01*
X207892380Y-93465714D01*
X207844761Y-93513333D01*
X207797142Y-93537142D01*
X207701904Y-93560952D01*
X207630476Y-93560952D01*
X207535238Y-93537142D01*
X207487619Y-93513333D01*
X207440000Y-93465714D01*
X207416190Y-93394285D01*
X207416190Y-93346666D01*
X207440000Y-93275238D01*
X207463809Y-93251428D01*
X207916190Y-92775238D02*
X207916190Y-93060952D01*
X207916190Y-92918095D02*
X207416190Y-92918095D01*
X207487619Y-92965714D01*
X207535238Y-93013333D01*
X207559047Y-93060952D01*
X207463809Y-92584761D02*
X207440000Y-92560952D01*
X207416190Y-92513333D01*
X207416190Y-92394285D01*
X207440000Y-92346666D01*
X207463809Y-92322857D01*
X207511428Y-92299047D01*
X207559047Y-92299047D01*
X207630476Y-92322857D01*
X207916190Y-92608571D01*
X207916190Y-92299047D01*
%TO.C,C15*%
X193518571Y-110278571D02*
X193494761Y-110302380D01*
X193423333Y-110326190D01*
X193375714Y-110326190D01*
X193304285Y-110302380D01*
X193256666Y-110254761D01*
X193232857Y-110207142D01*
X193209047Y-110111904D01*
X193209047Y-110040476D01*
X193232857Y-109945238D01*
X193256666Y-109897619D01*
X193304285Y-109850000D01*
X193375714Y-109826190D01*
X193423333Y-109826190D01*
X193494761Y-109850000D01*
X193518571Y-109873809D01*
X193994761Y-110326190D02*
X193709047Y-110326190D01*
X193851904Y-110326190D02*
X193851904Y-109826190D01*
X193804285Y-109897619D01*
X193756666Y-109945238D01*
X193709047Y-109969047D01*
X194447142Y-109826190D02*
X194209047Y-109826190D01*
X194185238Y-110064285D01*
X194209047Y-110040476D01*
X194256666Y-110016666D01*
X194375714Y-110016666D01*
X194423333Y-110040476D01*
X194447142Y-110064285D01*
X194470952Y-110111904D01*
X194470952Y-110230952D01*
X194447142Y-110278571D01*
X194423333Y-110302380D01*
X194375714Y-110326190D01*
X194256666Y-110326190D01*
X194209047Y-110302380D01*
X194185238Y-110278571D01*
%TO.C,D1*%
X237276190Y-101894047D02*
X236776190Y-101894047D01*
X236776190Y-101775000D01*
X236800000Y-101703571D01*
X236847619Y-101655952D01*
X236895238Y-101632142D01*
X236990476Y-101608333D01*
X237061904Y-101608333D01*
X237157142Y-101632142D01*
X237204761Y-101655952D01*
X237252380Y-101703571D01*
X237276190Y-101775000D01*
X237276190Y-101894047D01*
X237276190Y-101132142D02*
X237276190Y-101417857D01*
X237276190Y-101275000D02*
X236776190Y-101275000D01*
X236847619Y-101322619D01*
X236895238Y-101370238D01*
X236919047Y-101417857D01*
%TO.C,U1*%
X210409047Y-111998690D02*
X210409047Y-112403452D01*
X210432857Y-112451071D01*
X210456666Y-112474880D01*
X210504285Y-112498690D01*
X210599523Y-112498690D01*
X210647142Y-112474880D01*
X210670952Y-112451071D01*
X210694761Y-112403452D01*
X210694761Y-111998690D01*
X211194761Y-112498690D02*
X210909047Y-112498690D01*
X211051904Y-112498690D02*
X211051904Y-111998690D01*
X211004285Y-112070119D01*
X210956666Y-112117738D01*
X210909047Y-112141547D01*
%TO.C,C18*%
X215848571Y-102048571D02*
X215824761Y-102072380D01*
X215753333Y-102096190D01*
X215705714Y-102096190D01*
X215634285Y-102072380D01*
X215586666Y-102024761D01*
X215562857Y-101977142D01*
X215539047Y-101881904D01*
X215539047Y-101810476D01*
X215562857Y-101715238D01*
X215586666Y-101667619D01*
X215634285Y-101620000D01*
X215705714Y-101596190D01*
X215753333Y-101596190D01*
X215824761Y-101620000D01*
X215848571Y-101643809D01*
X216324761Y-102096190D02*
X216039047Y-102096190D01*
X216181904Y-102096190D02*
X216181904Y-101596190D01*
X216134285Y-101667619D01*
X216086666Y-101715238D01*
X216039047Y-101739047D01*
X216610476Y-101810476D02*
X216562857Y-101786666D01*
X216539047Y-101762857D01*
X216515238Y-101715238D01*
X216515238Y-101691428D01*
X216539047Y-101643809D01*
X216562857Y-101620000D01*
X216610476Y-101596190D01*
X216705714Y-101596190D01*
X216753333Y-101620000D01*
X216777142Y-101643809D01*
X216800952Y-101691428D01*
X216800952Y-101715238D01*
X216777142Y-101762857D01*
X216753333Y-101786666D01*
X216705714Y-101810476D01*
X216610476Y-101810476D01*
X216562857Y-101834285D01*
X216539047Y-101858095D01*
X216515238Y-101905714D01*
X216515238Y-102000952D01*
X216539047Y-102048571D01*
X216562857Y-102072380D01*
X216610476Y-102096190D01*
X216705714Y-102096190D01*
X216753333Y-102072380D01*
X216777142Y-102048571D01*
X216800952Y-102000952D01*
X216800952Y-101905714D01*
X216777142Y-101858095D01*
X216753333Y-101834285D01*
X216705714Y-101810476D01*
%TO.C,R9*%
X192956190Y-101103333D02*
X192718095Y-101270000D01*
X192956190Y-101389047D02*
X192456190Y-101389047D01*
X192456190Y-101198571D01*
X192480000Y-101150952D01*
X192503809Y-101127142D01*
X192551428Y-101103333D01*
X192622857Y-101103333D01*
X192670476Y-101127142D01*
X192694285Y-101150952D01*
X192718095Y-101198571D01*
X192718095Y-101389047D01*
X192956190Y-100865238D02*
X192956190Y-100770000D01*
X192932380Y-100722380D01*
X192908571Y-100698571D01*
X192837142Y-100650952D01*
X192741904Y-100627142D01*
X192551428Y-100627142D01*
X192503809Y-100650952D01*
X192480000Y-100674761D01*
X192456190Y-100722380D01*
X192456190Y-100817619D01*
X192480000Y-100865238D01*
X192503809Y-100889047D01*
X192551428Y-100912857D01*
X192670476Y-100912857D01*
X192718095Y-100889047D01*
X192741904Y-100865238D01*
X192765714Y-100817619D01*
X192765714Y-100722380D01*
X192741904Y-100674761D01*
X192718095Y-100650952D01*
X192670476Y-100627142D01*
%TO.C,R22*%
X209216190Y-97331428D02*
X208978095Y-97498095D01*
X209216190Y-97617142D02*
X208716190Y-97617142D01*
X208716190Y-97426666D01*
X208740000Y-97379047D01*
X208763809Y-97355238D01*
X208811428Y-97331428D01*
X208882857Y-97331428D01*
X208930476Y-97355238D01*
X208954285Y-97379047D01*
X208978095Y-97426666D01*
X208978095Y-97617142D01*
X208763809Y-97140952D02*
X208740000Y-97117142D01*
X208716190Y-97069523D01*
X208716190Y-96950476D01*
X208740000Y-96902857D01*
X208763809Y-96879047D01*
X208811428Y-96855238D01*
X208859047Y-96855238D01*
X208930476Y-96879047D01*
X209216190Y-97164761D01*
X209216190Y-96855238D01*
X208763809Y-96664761D02*
X208740000Y-96640952D01*
X208716190Y-96593333D01*
X208716190Y-96474285D01*
X208740000Y-96426666D01*
X208763809Y-96402857D01*
X208811428Y-96379047D01*
X208859047Y-96379047D01*
X208930476Y-96402857D01*
X209216190Y-96688571D01*
X209216190Y-96379047D01*
%TO.C,C19*%
X221418571Y-102078571D02*
X221394761Y-102102380D01*
X221323333Y-102126190D01*
X221275714Y-102126190D01*
X221204285Y-102102380D01*
X221156666Y-102054761D01*
X221132857Y-102007142D01*
X221109047Y-101911904D01*
X221109047Y-101840476D01*
X221132857Y-101745238D01*
X221156666Y-101697619D01*
X221204285Y-101650000D01*
X221275714Y-101626190D01*
X221323333Y-101626190D01*
X221394761Y-101650000D01*
X221418571Y-101673809D01*
X221894761Y-102126190D02*
X221609047Y-102126190D01*
X221751904Y-102126190D02*
X221751904Y-101626190D01*
X221704285Y-101697619D01*
X221656666Y-101745238D01*
X221609047Y-101769047D01*
X222132857Y-102126190D02*
X222228095Y-102126190D01*
X222275714Y-102102380D01*
X222299523Y-102078571D01*
X222347142Y-102007142D01*
X222370952Y-101911904D01*
X222370952Y-101721428D01*
X222347142Y-101673809D01*
X222323333Y-101650000D01*
X222275714Y-101626190D01*
X222180476Y-101626190D01*
X222132857Y-101650000D01*
X222109047Y-101673809D01*
X222085238Y-101721428D01*
X222085238Y-101840476D01*
X222109047Y-101888095D01*
X222132857Y-101911904D01*
X222180476Y-101935714D01*
X222275714Y-101935714D01*
X222323333Y-101911904D01*
X222347142Y-101888095D01*
X222370952Y-101840476D01*
%TO.C,R29*%
X227386190Y-116221428D02*
X227148095Y-116388095D01*
X227386190Y-116507142D02*
X226886190Y-116507142D01*
X226886190Y-116316666D01*
X226910000Y-116269047D01*
X226933809Y-116245238D01*
X226981428Y-116221428D01*
X227052857Y-116221428D01*
X227100476Y-116245238D01*
X227124285Y-116269047D01*
X227148095Y-116316666D01*
X227148095Y-116507142D01*
X226933809Y-116030952D02*
X226910000Y-116007142D01*
X226886190Y-115959523D01*
X226886190Y-115840476D01*
X226910000Y-115792857D01*
X226933809Y-115769047D01*
X226981428Y-115745238D01*
X227029047Y-115745238D01*
X227100476Y-115769047D01*
X227386190Y-116054761D01*
X227386190Y-115745238D01*
X227386190Y-115507142D02*
X227386190Y-115411904D01*
X227362380Y-115364285D01*
X227338571Y-115340476D01*
X227267142Y-115292857D01*
X227171904Y-115269047D01*
X226981428Y-115269047D01*
X226933809Y-115292857D01*
X226910000Y-115316666D01*
X226886190Y-115364285D01*
X226886190Y-115459523D01*
X226910000Y-115507142D01*
X226933809Y-115530952D01*
X226981428Y-115554761D01*
X227100476Y-115554761D01*
X227148095Y-115530952D01*
X227171904Y-115507142D01*
X227195714Y-115459523D01*
X227195714Y-115364285D01*
X227171904Y-115316666D01*
X227148095Y-115292857D01*
X227100476Y-115269047D01*
%TO.C,Q3*%
X237753809Y-97567619D02*
X237730000Y-97615238D01*
X237682380Y-97662857D01*
X237610952Y-97734285D01*
X237587142Y-97781904D01*
X237587142Y-97829523D01*
X237706190Y-97805714D02*
X237682380Y-97853333D01*
X237634761Y-97900952D01*
X237539523Y-97924761D01*
X237372857Y-97924761D01*
X237277619Y-97900952D01*
X237230000Y-97853333D01*
X237206190Y-97805714D01*
X237206190Y-97710476D01*
X237230000Y-97662857D01*
X237277619Y-97615238D01*
X237372857Y-97591428D01*
X237539523Y-97591428D01*
X237634761Y-97615238D01*
X237682380Y-97662857D01*
X237706190Y-97710476D01*
X237706190Y-97805714D01*
X237206190Y-97424761D02*
X237206190Y-97115238D01*
X237396666Y-97281904D01*
X237396666Y-97210476D01*
X237420476Y-97162857D01*
X237444285Y-97139047D01*
X237491904Y-97115238D01*
X237610952Y-97115238D01*
X237658571Y-97139047D01*
X237682380Y-97162857D01*
X237706190Y-97210476D01*
X237706190Y-97353333D01*
X237682380Y-97400952D01*
X237658571Y-97424761D01*
%TO.C,R30*%
X230476190Y-101721428D02*
X230238095Y-101888095D01*
X230476190Y-102007142D02*
X229976190Y-102007142D01*
X229976190Y-101816666D01*
X230000000Y-101769047D01*
X230023809Y-101745238D01*
X230071428Y-101721428D01*
X230142857Y-101721428D01*
X230190476Y-101745238D01*
X230214285Y-101769047D01*
X230238095Y-101816666D01*
X230238095Y-102007142D01*
X229976190Y-101554761D02*
X229976190Y-101245238D01*
X230166666Y-101411904D01*
X230166666Y-101340476D01*
X230190476Y-101292857D01*
X230214285Y-101269047D01*
X230261904Y-101245238D01*
X230380952Y-101245238D01*
X230428571Y-101269047D01*
X230452380Y-101292857D01*
X230476190Y-101340476D01*
X230476190Y-101483333D01*
X230452380Y-101530952D01*
X230428571Y-101554761D01*
X229976190Y-100935714D02*
X229976190Y-100888095D01*
X230000000Y-100840476D01*
X230023809Y-100816666D01*
X230071428Y-100792857D01*
X230166666Y-100769047D01*
X230285714Y-100769047D01*
X230380952Y-100792857D01*
X230428571Y-100816666D01*
X230452380Y-100840476D01*
X230476190Y-100888095D01*
X230476190Y-100935714D01*
X230452380Y-100983333D01*
X230428571Y-101007142D01*
X230380952Y-101030952D01*
X230285714Y-101054761D01*
X230166666Y-101054761D01*
X230071428Y-101030952D01*
X230023809Y-101007142D01*
X230000000Y-100983333D01*
X229976190Y-100935714D01*
%TO.C,C5*%
X223031666Y-111128571D02*
X223007857Y-111152380D01*
X222936428Y-111176190D01*
X222888809Y-111176190D01*
X222817380Y-111152380D01*
X222769761Y-111104761D01*
X222745952Y-111057142D01*
X222722142Y-110961904D01*
X222722142Y-110890476D01*
X222745952Y-110795238D01*
X222769761Y-110747619D01*
X222817380Y-110700000D01*
X222888809Y-110676190D01*
X222936428Y-110676190D01*
X223007857Y-110700000D01*
X223031666Y-110723809D01*
X223484047Y-110676190D02*
X223245952Y-110676190D01*
X223222142Y-110914285D01*
X223245952Y-110890476D01*
X223293571Y-110866666D01*
X223412619Y-110866666D01*
X223460238Y-110890476D01*
X223484047Y-110914285D01*
X223507857Y-110961904D01*
X223507857Y-111080952D01*
X223484047Y-111128571D01*
X223460238Y-111152380D01*
X223412619Y-111176190D01*
X223293571Y-111176190D01*
X223245952Y-111152380D01*
X223222142Y-111128571D01*
%TO.C,R36*%
X205108571Y-114846190D02*
X204941904Y-114608095D01*
X204822857Y-114846190D02*
X204822857Y-114346190D01*
X205013333Y-114346190D01*
X205060952Y-114370000D01*
X205084761Y-114393809D01*
X205108571Y-114441428D01*
X205108571Y-114512857D01*
X205084761Y-114560476D01*
X205060952Y-114584285D01*
X205013333Y-114608095D01*
X204822857Y-114608095D01*
X205275238Y-114346190D02*
X205584761Y-114346190D01*
X205418095Y-114536666D01*
X205489523Y-114536666D01*
X205537142Y-114560476D01*
X205560952Y-114584285D01*
X205584761Y-114631904D01*
X205584761Y-114750952D01*
X205560952Y-114798571D01*
X205537142Y-114822380D01*
X205489523Y-114846190D01*
X205346666Y-114846190D01*
X205299047Y-114822380D01*
X205275238Y-114798571D01*
X206013333Y-114346190D02*
X205918095Y-114346190D01*
X205870476Y-114370000D01*
X205846666Y-114393809D01*
X205799047Y-114465238D01*
X205775238Y-114560476D01*
X205775238Y-114750952D01*
X205799047Y-114798571D01*
X205822857Y-114822380D01*
X205870476Y-114846190D01*
X205965714Y-114846190D01*
X206013333Y-114822380D01*
X206037142Y-114798571D01*
X206060952Y-114750952D01*
X206060952Y-114631904D01*
X206037142Y-114584285D01*
X206013333Y-114560476D01*
X205965714Y-114536666D01*
X205870476Y-114536666D01*
X205822857Y-114560476D01*
X205799047Y-114584285D01*
X205775238Y-114631904D01*
%TO.C,L1*%
X207956190Y-97839033D02*
X207956190Y-98077128D01*
X207456190Y-98077128D01*
X207956190Y-97410461D02*
X207956190Y-97696176D01*
X207956190Y-97553319D02*
X207456190Y-97553319D01*
X207527619Y-97600938D01*
X207575238Y-97648557D01*
X207599047Y-97696176D01*
X205906190Y-98150938D02*
X205906190Y-98436652D01*
X205906190Y-98293795D02*
X205406190Y-98293795D01*
X205477619Y-98341414D01*
X205525238Y-98389033D01*
X205549047Y-98436652D01*
X205572857Y-97722366D02*
X205906190Y-97722366D01*
X205572857Y-97936652D02*
X205834761Y-97936652D01*
X205882380Y-97912842D01*
X205906190Y-97865223D01*
X205906190Y-97793795D01*
X205882380Y-97746176D01*
X205858571Y-97722366D01*
X205906190Y-97484271D02*
X205406190Y-97484271D01*
X205644285Y-97484271D02*
X205644285Y-97198557D01*
X205906190Y-97198557D02*
X205406190Y-97198557D01*
%TO.C,D2*%
X245546190Y-92929047D02*
X245046190Y-92929047D01*
X245046190Y-92810000D01*
X245070000Y-92738571D01*
X245117619Y-92690952D01*
X245165238Y-92667142D01*
X245260476Y-92643333D01*
X245331904Y-92643333D01*
X245427142Y-92667142D01*
X245474761Y-92690952D01*
X245522380Y-92738571D01*
X245546190Y-92810000D01*
X245546190Y-92929047D01*
X245093809Y-92452857D02*
X245070000Y-92429047D01*
X245046190Y-92381428D01*
X245046190Y-92262380D01*
X245070000Y-92214761D01*
X245093809Y-92190952D01*
X245141428Y-92167142D01*
X245189047Y-92167142D01*
X245260476Y-92190952D01*
X245546190Y-92476666D01*
X245546190Y-92167142D01*
%TO.C,C16*%
X193508571Y-118268571D02*
X193484761Y-118292380D01*
X193413333Y-118316190D01*
X193365714Y-118316190D01*
X193294285Y-118292380D01*
X193246666Y-118244761D01*
X193222857Y-118197142D01*
X193199047Y-118101904D01*
X193199047Y-118030476D01*
X193222857Y-117935238D01*
X193246666Y-117887619D01*
X193294285Y-117840000D01*
X193365714Y-117816190D01*
X193413333Y-117816190D01*
X193484761Y-117840000D01*
X193508571Y-117863809D01*
X193984761Y-118316190D02*
X193699047Y-118316190D01*
X193841904Y-118316190D02*
X193841904Y-117816190D01*
X193794285Y-117887619D01*
X193746666Y-117935238D01*
X193699047Y-117959047D01*
X194413333Y-117816190D02*
X194318095Y-117816190D01*
X194270476Y-117840000D01*
X194246666Y-117863809D01*
X194199047Y-117935238D01*
X194175238Y-118030476D01*
X194175238Y-118220952D01*
X194199047Y-118268571D01*
X194222857Y-118292380D01*
X194270476Y-118316190D01*
X194365714Y-118316190D01*
X194413333Y-118292380D01*
X194437142Y-118268571D01*
X194460952Y-118220952D01*
X194460952Y-118101904D01*
X194437142Y-118054285D01*
X194413333Y-118030476D01*
X194365714Y-118006666D01*
X194270476Y-118006666D01*
X194222857Y-118030476D01*
X194199047Y-118054285D01*
X194175238Y-118101904D01*
%TO.C,C17*%
X203058571Y-107078571D02*
X203034761Y-107102380D01*
X202963333Y-107126190D01*
X202915714Y-107126190D01*
X202844285Y-107102380D01*
X202796666Y-107054761D01*
X202772857Y-107007142D01*
X202749047Y-106911904D01*
X202749047Y-106840476D01*
X202772857Y-106745238D01*
X202796666Y-106697619D01*
X202844285Y-106650000D01*
X202915714Y-106626190D01*
X202963333Y-106626190D01*
X203034761Y-106650000D01*
X203058571Y-106673809D01*
X203534761Y-107126190D02*
X203249047Y-107126190D01*
X203391904Y-107126190D02*
X203391904Y-106626190D01*
X203344285Y-106697619D01*
X203296666Y-106745238D01*
X203249047Y-106769047D01*
X203701428Y-106626190D02*
X204034761Y-106626190D01*
X203820476Y-107126190D01*
%TO.C,R23*%
X209256190Y-95721428D02*
X209018095Y-95888095D01*
X209256190Y-96007142D02*
X208756190Y-96007142D01*
X208756190Y-95816666D01*
X208780000Y-95769047D01*
X208803809Y-95745238D01*
X208851428Y-95721428D01*
X208922857Y-95721428D01*
X208970476Y-95745238D01*
X208994285Y-95769047D01*
X209018095Y-95816666D01*
X209018095Y-96007142D01*
X208803809Y-95530952D02*
X208780000Y-95507142D01*
X208756190Y-95459523D01*
X208756190Y-95340476D01*
X208780000Y-95292857D01*
X208803809Y-95269047D01*
X208851428Y-95245238D01*
X208899047Y-95245238D01*
X208970476Y-95269047D01*
X209256190Y-95554761D01*
X209256190Y-95245238D01*
X208756190Y-95078571D02*
X208756190Y-94769047D01*
X208946666Y-94935714D01*
X208946666Y-94864285D01*
X208970476Y-94816666D01*
X208994285Y-94792857D01*
X209041904Y-94769047D01*
X209160952Y-94769047D01*
X209208571Y-94792857D01*
X209232380Y-94816666D01*
X209256190Y-94864285D01*
X209256190Y-95007142D01*
X209232380Y-95054761D01*
X209208571Y-95078571D01*
%TO.C,SW2*%
X227268333Y-104638643D02*
X227339761Y-104662453D01*
X227458809Y-104662453D01*
X227506428Y-104638643D01*
X227530238Y-104614834D01*
X227554047Y-104567215D01*
X227554047Y-104519596D01*
X227530238Y-104471977D01*
X227506428Y-104448167D01*
X227458809Y-104424358D01*
X227363571Y-104400548D01*
X227315952Y-104376739D01*
X227292142Y-104352929D01*
X227268333Y-104305310D01*
X227268333Y-104257691D01*
X227292142Y-104210072D01*
X227315952Y-104186263D01*
X227363571Y-104162453D01*
X227482619Y-104162453D01*
X227554047Y-104186263D01*
X227720714Y-104162453D02*
X227839761Y-104662453D01*
X227935000Y-104305310D01*
X228030238Y-104662453D01*
X228149285Y-104162453D01*
X228315952Y-104210072D02*
X228339761Y-104186263D01*
X228387380Y-104162453D01*
X228506428Y-104162453D01*
X228554047Y-104186263D01*
X228577857Y-104210072D01*
X228601666Y-104257691D01*
X228601666Y-104305310D01*
X228577857Y-104376739D01*
X228292142Y-104662453D01*
X228601666Y-104662453D01*
%TO.C,SW1*%
X227168333Y-108207380D02*
X227239761Y-108231190D01*
X227358809Y-108231190D01*
X227406428Y-108207380D01*
X227430238Y-108183571D01*
X227454047Y-108135952D01*
X227454047Y-108088333D01*
X227430238Y-108040714D01*
X227406428Y-108016904D01*
X227358809Y-107993095D01*
X227263571Y-107969285D01*
X227215952Y-107945476D01*
X227192142Y-107921666D01*
X227168333Y-107874047D01*
X227168333Y-107826428D01*
X227192142Y-107778809D01*
X227215952Y-107755000D01*
X227263571Y-107731190D01*
X227382619Y-107731190D01*
X227454047Y-107755000D01*
X227620714Y-107731190D02*
X227739761Y-108231190D01*
X227835000Y-107874047D01*
X227930238Y-108231190D01*
X228049285Y-107731190D01*
X228501666Y-108231190D02*
X228215952Y-108231190D01*
X228358809Y-108231190D02*
X228358809Y-107731190D01*
X228311190Y-107802619D01*
X228263571Y-107850238D01*
X228215952Y-107874047D01*
%TO.C,C6*%
X224611666Y-111108571D02*
X224587857Y-111132380D01*
X224516428Y-111156190D01*
X224468809Y-111156190D01*
X224397380Y-111132380D01*
X224349761Y-111084761D01*
X224325952Y-111037142D01*
X224302142Y-110941904D01*
X224302142Y-110870476D01*
X224325952Y-110775238D01*
X224349761Y-110727619D01*
X224397380Y-110680000D01*
X224468809Y-110656190D01*
X224516428Y-110656190D01*
X224587857Y-110680000D01*
X224611666Y-110703809D01*
X225040238Y-110656190D02*
X224945000Y-110656190D01*
X224897380Y-110680000D01*
X224873571Y-110703809D01*
X224825952Y-110775238D01*
X224802142Y-110870476D01*
X224802142Y-111060952D01*
X224825952Y-111108571D01*
X224849761Y-111132380D01*
X224897380Y-111156190D01*
X224992619Y-111156190D01*
X225040238Y-111132380D01*
X225064047Y-111108571D01*
X225087857Y-111060952D01*
X225087857Y-110941904D01*
X225064047Y-110894285D01*
X225040238Y-110870476D01*
X224992619Y-110846666D01*
X224897380Y-110846666D01*
X224849761Y-110870476D01*
X224825952Y-110894285D01*
X224802142Y-110941904D01*
%TO.C,R33*%
X228158571Y-115026190D02*
X227991904Y-114788095D01*
X227872857Y-115026190D02*
X227872857Y-114526190D01*
X228063333Y-114526190D01*
X228110952Y-114550000D01*
X228134761Y-114573809D01*
X228158571Y-114621428D01*
X228158571Y-114692857D01*
X228134761Y-114740476D01*
X228110952Y-114764285D01*
X228063333Y-114788095D01*
X227872857Y-114788095D01*
X228325238Y-114526190D02*
X228634761Y-114526190D01*
X228468095Y-114716666D01*
X228539523Y-114716666D01*
X228587142Y-114740476D01*
X228610952Y-114764285D01*
X228634761Y-114811904D01*
X228634761Y-114930952D01*
X228610952Y-114978571D01*
X228587142Y-115002380D01*
X228539523Y-115026190D01*
X228396666Y-115026190D01*
X228349047Y-115002380D01*
X228325238Y-114978571D01*
X228801428Y-114526190D02*
X229110952Y-114526190D01*
X228944285Y-114716666D01*
X229015714Y-114716666D01*
X229063333Y-114740476D01*
X229087142Y-114764285D01*
X229110952Y-114811904D01*
X229110952Y-114930952D01*
X229087142Y-114978571D01*
X229063333Y-115002380D01*
X229015714Y-115026190D01*
X228872857Y-115026190D01*
X228825238Y-115002380D01*
X228801428Y-114978571D01*
%TO.C,C27*%
X204878571Y-102101428D02*
X204902380Y-102125238D01*
X204926190Y-102196666D01*
X204926190Y-102244285D01*
X204902380Y-102315714D01*
X204854761Y-102363333D01*
X204807142Y-102387142D01*
X204711904Y-102410952D01*
X204640476Y-102410952D01*
X204545238Y-102387142D01*
X204497619Y-102363333D01*
X204450000Y-102315714D01*
X204426190Y-102244285D01*
X204426190Y-102196666D01*
X204450000Y-102125238D01*
X204473809Y-102101428D01*
X204473809Y-101910952D02*
X204450000Y-101887142D01*
X204426190Y-101839523D01*
X204426190Y-101720476D01*
X204450000Y-101672857D01*
X204473809Y-101649047D01*
X204521428Y-101625238D01*
X204569047Y-101625238D01*
X204640476Y-101649047D01*
X204926190Y-101934761D01*
X204926190Y-101625238D01*
X204426190Y-101458571D02*
X204426190Y-101125238D01*
X204926190Y-101339523D01*
D13*
%TO.C,C26*%
X204004420Y-94340000D02*
X204285580Y-94340000D01*
X204004420Y-95360000D02*
X204285580Y-95360000D01*
%TO.C,SW3*%
X237820000Y-116430000D02*
X237280000Y-116430000D01*
X244480000Y-120100000D02*
X236760000Y-120100000D01*
X244480000Y-113600000D02*
X244480000Y-113090000D01*
X237280000Y-113090000D02*
X236760000Y-113090000D01*
X242320000Y-116430000D02*
X238920000Y-116430000D01*
X236760000Y-113600000D02*
X236760000Y-113090000D01*
X237280000Y-116430000D02*
X237280000Y-116200000D01*
X244480000Y-113090000D02*
X243960000Y-113090000D01*
X236760000Y-120100000D02*
X236760000Y-116200000D01*
X243960000Y-113600000D02*
X243960000Y-113090000D01*
X243960000Y-116430000D02*
X243420000Y-116430000D01*
X244480000Y-120100000D02*
X244480000Y-116200000D01*
X243960000Y-116430000D02*
X243960000Y-116200000D01*
X237280000Y-113600000D02*
X237280000Y-113090000D01*
%TO.C,C21*%
X214601252Y-93890000D02*
X213178748Y-93890000D01*
X214601252Y-92070000D02*
X213178748Y-92070000D01*
%TO.C,R14*%
X197377500Y-105837258D02*
X197377500Y-105362742D01*
X198422500Y-105837258D02*
X198422500Y-105362742D01*
%TO.C,R12*%
X196862258Y-92827500D02*
X196387742Y-92827500D01*
X196862258Y-93872500D02*
X196387742Y-93872500D01*
%TO.C,D6*%
X229945000Y-115525000D02*
X229945000Y-115990000D01*
X229945000Y-118150000D02*
X229945000Y-118615000D01*
X229945000Y-118614830D02*
G75*
G03*
X235292815Y-118150827I2560000J1544830D01*
G01*
X234759479Y-115989571D02*
G75*
G03*
X230250316Y-115990000I-2254479J-1080429D01*
G01*
X235292815Y-115989173D02*
G75*
G03*
X229945000Y-115525170I-2787815J-1080827D01*
G01*
X230250316Y-118150000D02*
G75*
G03*
X234759479Y-118150429I2254684J1080000D01*
G01*
%TO.C,C7*%
X227098748Y-96850000D02*
X228521252Y-96850000D01*
X227098748Y-98670000D02*
X228521252Y-98670000D01*
%TO.C,C8*%
X234719420Y-102580000D02*
X235000580Y-102580000D01*
X234719420Y-103600000D02*
X235000580Y-103600000D01*
%TO.C,R13*%
X197677500Y-102137258D02*
X197677500Y-101662742D01*
X198722500Y-102137258D02*
X198722500Y-101662742D01*
%TO.C,U2*%
X233190000Y-105365000D02*
X233190000Y-105840000D01*
X233665000Y-109585000D02*
X233190000Y-109585000D01*
X233665000Y-105365000D02*
X233190000Y-105365000D01*
X237410000Y-105365000D02*
X237410000Y-105840000D01*
X233190000Y-109585000D02*
X233190000Y-109110000D01*
X236935000Y-105365000D02*
X237410000Y-105365000D01*
X236935000Y-109585000D02*
X237410000Y-109585000D01*
%TO.C,D5*%
X224380000Y-94262500D02*
X224380000Y-91402500D01*
X224380000Y-91402500D02*
X222460000Y-91402500D01*
X222460000Y-91402500D02*
X222460000Y-94262500D01*
%TO.C,R41*%
X213452742Y-99742500D02*
X213927258Y-99742500D01*
X213452742Y-98697500D02*
X213927258Y-98697500D01*
%TO.C,J1*%
X241140000Y-102235000D02*
X241140000Y-101855000D01*
X245190000Y-94615000D02*
X245450000Y-94615000D01*
X242910000Y-102235000D02*
X241140000Y-102235000D01*
X245450000Y-102235000D02*
X245190000Y-102235000D01*
X241140000Y-94615000D02*
X242910000Y-94615000D01*
X241140000Y-94615000D02*
X241140000Y-94995000D01*
%TO.C,C4*%
X226770000Y-112619420D02*
X226770000Y-112900580D01*
X225750000Y-112619420D02*
X225750000Y-112900580D01*
%TO.C,Y1*%
X194550464Y-112150273D02*
X192750464Y-112150273D01*
X192700464Y-113550273D02*
X192700464Y-114650273D01*
X194600464Y-113550273D02*
X194600464Y-114650273D01*
D14*
%TO.C,J2*%
X224970000Y-91660000D02*
X230770000Y-91660000D01*
X224970000Y-96160000D02*
X224970000Y-91660000D01*
X230770000Y-96160000D02*
X224970000Y-96160000D01*
X230770000Y-91660000D02*
X230770000Y-96160000D01*
D13*
%TO.C,R10*%
X193337742Y-92827500D02*
X193812258Y-92827500D01*
X193337742Y-93872500D02*
X193812258Y-93872500D01*
%TO.C,C13*%
X197010000Y-97440580D02*
X197010000Y-97159420D01*
X195990000Y-97440580D02*
X195990000Y-97159420D01*
%TO.C,TP13*%
X206090000Y-111060000D02*
G75*
G03*
X206090000Y-111060000I-700000J0D01*
G01*
D14*
%TO.C,F1*%
X234220000Y-98850000D02*
X230960000Y-98850000D01*
X234220000Y-96670000D02*
X230960000Y-96670000D01*
%TO.C,U5*%
X200870464Y-115798773D02*
X200158964Y-115798773D01*
X200870464Y-110421773D02*
X200158964Y-110421773D01*
X197070464Y-115798773D02*
X197781964Y-115798773D01*
X197070464Y-110421773D02*
X197781964Y-110421773D01*
D12*
X196570464Y-115910273D02*
G75*
G03*
X196570464Y-115910273I-100000J0D01*
G01*
D13*
%TO.C,TP6*%
X227360000Y-117790000D02*
G75*
G03*
X227360000Y-117790000I-700000J0D01*
G01*
%TO.C,C14*%
X202659420Y-103860000D02*
X202940580Y-103860000D01*
X202659420Y-102840000D02*
X202940580Y-102840000D01*
%TO.C,D8*%
X216150000Y-94220000D02*
X213290000Y-94220000D01*
X213290000Y-96140000D02*
X216150000Y-96140000D01*
X216150000Y-96140000D02*
X216150000Y-94220000D01*
%TO.C,SW4*%
X231684900Y-95215401D02*
X232721659Y-95215401D01*
X231684900Y-94677540D02*
X231684900Y-95215401D01*
X238598341Y-95215401D02*
X239635100Y-95215401D01*
X239635100Y-93199260D02*
X239635100Y-92577541D01*
X239635100Y-95215401D02*
X239635100Y-94677540D01*
X235598339Y-95215401D02*
X237221661Y-95215401D01*
X231684900Y-92577541D02*
X231684900Y-93199260D01*
%TO.C,TP5*%
X242540000Y-111730000D02*
G75*
G03*
X242540000Y-111730000I-700000J0D01*
G01*
%TO.C,R19*%
X223207258Y-96562500D02*
X222732742Y-96562500D01*
X223207258Y-95517500D02*
X222732742Y-95517500D01*
%TO.C,Y2*%
X217005000Y-99870000D02*
X217005000Y-101670000D01*
X218405000Y-99820000D02*
X219505000Y-99820000D01*
X218405000Y-101720000D02*
X219505000Y-101720000D01*
%TO.C,C12*%
X204038748Y-93810000D02*
X205461252Y-93810000D01*
X204038748Y-91990000D02*
X205461252Y-91990000D01*
%TO.C,D7*%
X216150000Y-96270000D02*
X213290000Y-96270000D01*
X213290000Y-98190000D02*
X216150000Y-98190000D01*
X216150000Y-98190000D02*
X216150000Y-96270000D01*
%TO.C,TP14*%
X206600000Y-108750000D02*
G75*
G03*
X206600000Y-108750000I-700000J0D01*
G01*
%TO.C,C15*%
X193511734Y-111780131D02*
X193230574Y-111780131D01*
X193511734Y-110760131D02*
X193230574Y-110760131D01*
%TO.C,D1*%
X237350000Y-103035000D02*
X239350000Y-103035000D01*
X238650000Y-99915000D02*
X237350000Y-99915000D01*
%TO.C,TP15*%
X199965000Y-119020000D02*
G75*
G03*
X199965000Y-119020000I-700000J0D01*
G01*
D14*
%TO.C,U1*%
X221190000Y-114472500D02*
X221190000Y-119872500D01*
X221190000Y-119872500D02*
X207990000Y-119872500D01*
X207990000Y-119872500D02*
X207990000Y-114472500D01*
D15*
X222190000Y-112972500D02*
G75*
G03*
X222190000Y-112972500I-100000J0D01*
G01*
D13*
%TO.C,TP11*%
X225210000Y-117770000D02*
G75*
G03*
X225210000Y-117770000I-700000J0D01*
G01*
%TO.C,TP3*%
X224490000Y-97830000D02*
G75*
G03*
X224490000Y-97830000I-700000J0D01*
G01*
%TO.C,C18*%
X216540000Y-100135580D02*
X216540000Y-99854420D01*
X215520000Y-100135580D02*
X215520000Y-99854420D01*
%TO.C,R9*%
X194397500Y-101287258D02*
X194397500Y-100812742D01*
X193352500Y-101287258D02*
X193352500Y-100812742D01*
%TO.C,R40*%
X213452742Y-101272500D02*
X213927258Y-101272500D01*
X213452742Y-100227500D02*
X213927258Y-100227500D01*
D14*
%TO.C,U4*%
X201826250Y-99273750D02*
X201746250Y-99273750D01*
X199406250Y-99273750D02*
X199326250Y-99273750D01*
X201826250Y-98768750D02*
X201826250Y-99273750D01*
X199406250Y-96273750D02*
X199326250Y-96273750D01*
X199326250Y-99273750D02*
X199326250Y-98968750D01*
X201746250Y-96273750D02*
X201826250Y-96273750D01*
X201826250Y-96273750D02*
X201826250Y-96778750D01*
X199326250Y-96273750D02*
X199326250Y-96578750D01*
D15*
X198745850Y-96706950D02*
G75*
G03*
X198745850Y-96706950I-100000J0D01*
G01*
D13*
%TO.C,R22*%
X210652742Y-97532500D02*
X211127258Y-97532500D01*
X210652742Y-96487500D02*
X211127258Y-96487500D01*
%TO.C,C19*%
X222390000Y-100135580D02*
X222390000Y-99854420D01*
X221370000Y-100135580D02*
X221370000Y-99854420D01*
%TO.C,R29*%
X225102742Y-116432500D02*
X225577258Y-116432500D01*
X225102742Y-115387500D02*
X225577258Y-115387500D01*
%TO.C,Q3*%
X236980000Y-99080000D02*
X236330000Y-99080000D01*
X236980000Y-95960000D02*
X237630000Y-95960000D01*
X236980000Y-99080000D02*
X238655000Y-99080000D01*
X236980000Y-95960000D02*
X236330000Y-95960000D01*
%TO.C,R30*%
X228112742Y-101922500D02*
X228587258Y-101922500D01*
X228112742Y-100877500D02*
X228587258Y-100877500D01*
%TO.C,C5*%
X222600000Y-112619420D02*
X222600000Y-112900580D01*
X223620000Y-112619420D02*
X223620000Y-112900580D01*
%TO.C,R36*%
X205637258Y-112967500D02*
X205162742Y-112967500D01*
X205637258Y-114012500D02*
X205162742Y-114012500D01*
%TO.C,L1*%
X208447200Y-95905300D02*
X207408340Y-95905300D01*
X206031660Y-95905300D02*
X204992800Y-95905300D01*
X208447200Y-99766100D02*
X208447200Y-95905300D01*
X204992800Y-95905300D02*
X204992800Y-99766100D01*
X207408340Y-99766100D02*
X208447200Y-99766100D01*
X204992800Y-99766100D02*
X206031660Y-99766100D01*
X206796200Y-95395700D02*
G75*
G03*
X206796200Y-95395700I-76200J0D01*
G01*
%TO.C,D2*%
X240415000Y-91335000D02*
X240415000Y-93605000D01*
X244300000Y-91335000D02*
X240415000Y-91335000D01*
X240415000Y-93605000D02*
X244300000Y-93605000D01*
%TO.C,TP8*%
X245210000Y-109040000D02*
G75*
G03*
X245210000Y-109040000I-700000J0D01*
G01*
%TO.C,C16*%
X193521734Y-116420131D02*
X193240574Y-116420131D01*
X193521734Y-117440131D02*
X193240574Y-117440131D01*
%TO.C,C17*%
X202638748Y-104440000D02*
X204061252Y-104440000D01*
X202638748Y-106260000D02*
X204061252Y-106260000D01*
%TO.C,R23*%
X210642742Y-95922500D02*
X211117258Y-95922500D01*
X210642742Y-94877500D02*
X211117258Y-94877500D01*
%TO.C,SW2*%
X225685000Y-106011263D02*
X230085000Y-106011263D01*
X230085000Y-104211263D02*
X230085000Y-104311263D01*
X230085000Y-102511263D02*
X225685000Y-102511263D01*
X225685000Y-104211263D02*
X225685000Y-104311263D01*
%TO.C,SW1*%
X225660000Y-108105000D02*
X225660000Y-108005000D01*
X230060000Y-108105000D02*
X230060000Y-108005000D01*
X230060000Y-106305000D02*
X225660000Y-106305000D01*
X225660000Y-109805000D02*
X230060000Y-109805000D01*
%TO.C,C6*%
X224175000Y-112619420D02*
X224175000Y-112900580D01*
X225195000Y-112619420D02*
X225195000Y-112900580D01*
%TO.C,R33*%
X228972500Y-116867258D02*
X228972500Y-116392742D01*
X227927500Y-116867258D02*
X227927500Y-116392742D01*
%TO.C,TP12*%
X226410000Y-101355000D02*
G75*
G03*
X226410000Y-101355000I-700000J0D01*
G01*
%TO.C,TP4*%
X242490000Y-109130000D02*
G75*
G03*
X242490000Y-109130000I-700000J0D01*
G01*
%TO.C,C27*%
X202659420Y-102310000D02*
X202940580Y-102310000D01*
X202659420Y-101290000D02*
X202940580Y-101290000D01*
%TD*%
M02*
