%TF.GenerationSoftware,KiCad,Pcbnew,(6.0.7)*%
%TF.CreationDate,2022-10-18T16:36:34-04:00*%
%TF.ProjectId,PCB,5043422e-6b69-4636-9164-5f7063625858,rev?*%
%TF.SameCoordinates,Original*%
%TF.FileFunction,Paste,Bot*%
%TF.FilePolarity,Positive*%
%FSLAX46Y46*%
G04 Gerber Fmt 4.6, Leading zero omitted, Abs format (unit mm)*
G04 Created by KiCad (PCBNEW (6.0.7)) date 2022-10-18 16:36:34*
%MOMM*%
%LPD*%
G01*
G04 APERTURE LIST*
G04 Aperture macros list*
%AMRoundRect*
0 Rectangle with rounded corners*
0 $1 Rounding radius*
0 $2 $3 $4 $5 $6 $7 $8 $9 X,Y pos of 4 corners*
0 Add a 4 corners polygon primitive as box body*
4,1,4,$2,$3,$4,$5,$6,$7,$8,$9,$2,$3,0*
0 Add four circle primitives for the rounded corners*
1,1,$1+$1,$2,$3*
1,1,$1+$1,$4,$5*
1,1,$1+$1,$6,$7*
1,1,$1+$1,$8,$9*
0 Add four rect primitives between the rounded corners*
20,1,$1+$1,$2,$3,$4,$5,0*
20,1,$1+$1,$4,$5,$6,$7,0*
20,1,$1+$1,$6,$7,$8,$9,0*
20,1,$1+$1,$8,$9,$2,$3,0*%
G04 Aperture macros list end*
%ADD10C,0.010000*%
%ADD11RoundRect,0.042000X-0.943000X-0.258000X0.943000X-0.258000X0.943000X0.258000X-0.943000X0.258000X0*%
%ADD12RoundRect,0.225000X-0.250000X0.225000X-0.250000X-0.225000X0.250000X-0.225000X0.250000X0.225000X0*%
%ADD13RoundRect,0.200000X0.200000X0.275000X-0.200000X0.275000X-0.200000X-0.275000X0.200000X-0.275000X0*%
%ADD14RoundRect,0.225000X0.225000X0.250000X-0.225000X0.250000X-0.225000X-0.250000X0.225000X-0.250000X0*%
%ADD15R,1.500000X0.400000*%
%ADD16R,1.500000X0.500000*%
%ADD17RoundRect,0.200000X-0.275000X0.200000X-0.275000X-0.200000X0.275000X-0.200000X0.275000X0.200000X0*%
%ADD18RoundRect,0.200000X-0.200000X-0.275000X0.200000X-0.275000X0.200000X0.275000X-0.200000X0.275000X0*%
%ADD19RoundRect,0.200000X0.275000X-0.200000X0.275000X0.200000X-0.275000X0.200000X-0.275000X-0.200000X0*%
%ADD20RoundRect,0.250000X-0.325000X-0.650000X0.325000X-0.650000X0.325000X0.650000X-0.325000X0.650000X0*%
%ADD21RoundRect,0.225000X-0.225000X-0.250000X0.225000X-0.250000X0.225000X0.250000X-0.225000X0.250000X0*%
%ADD22RoundRect,0.225000X0.250000X-0.225000X0.250000X0.225000X-0.250000X0.225000X-0.250000X-0.225000X0*%
G04 APERTURE END LIST*
%TO.C,U3*%
G36*
X213070000Y-95495000D02*
G01*
X211780000Y-95495000D01*
X211780000Y-93855000D01*
X213070000Y-93855000D01*
X213070000Y-95495000D01*
G37*
D10*
X213070000Y-95495000D02*
X211780000Y-95495000D01*
X211780000Y-93855000D01*
X213070000Y-93855000D01*
X213070000Y-95495000D01*
%TD*%
D11*
%TO.C,U3*%
X209950000Y-96580000D03*
X209950000Y-95310000D03*
X209950000Y-94040000D03*
X209950000Y-92770000D03*
X214900000Y-92770000D03*
X214900000Y-94040000D03*
X214900000Y-95310000D03*
X214900000Y-96580000D03*
%TD*%
D12*
%TO.C,C3*%
X224590000Y-112835000D03*
X224590000Y-114385000D03*
%TD*%
D13*
%TO.C,R6*%
X240515000Y-102430000D03*
X238865000Y-102430000D03*
%TD*%
D14*
%TO.C,C28*%
X240705000Y-115450000D03*
X239155000Y-115450000D03*
%TD*%
D15*
%TO.C,Q2*%
X228485000Y-107805000D03*
D16*
X228485000Y-109105000D03*
D15*
X226085000Y-109105000D03*
X226085000Y-107805000D03*
%TD*%
D14*
%TO.C,C23*%
X200125464Y-115400273D03*
X198575464Y-115400273D03*
%TD*%
D17*
%TO.C,R25*%
X207980000Y-103995000D03*
X207980000Y-105645000D03*
%TD*%
D18*
%TO.C,R27*%
X231075000Y-95775000D03*
X232725000Y-95775000D03*
%TD*%
D17*
%TO.C,R5*%
X241960000Y-100840000D03*
X241960000Y-102490000D03*
%TD*%
D18*
%TO.C,R3*%
X209465000Y-103322500D03*
X211115000Y-103322500D03*
%TD*%
D17*
%TO.C,R24*%
X207960000Y-110325000D03*
X207960000Y-111975000D03*
%TD*%
D12*
%TO.C,C9*%
X237260000Y-106715000D03*
X237260000Y-108265000D03*
%TD*%
D18*
%TO.C,R42*%
X212895000Y-102180000D03*
X214545000Y-102180000D03*
%TD*%
D19*
%TO.C,R20*%
X207830000Y-96765000D03*
X207830000Y-95115000D03*
%TD*%
%TO.C,R18*%
X231945000Y-115135000D03*
X231945000Y-113485000D03*
%TD*%
D18*
%TO.C,R26*%
X228025000Y-95775000D03*
X229675000Y-95775000D03*
%TD*%
D19*
%TO.C,R2*%
X230280000Y-106895000D03*
X230280000Y-105245000D03*
%TD*%
D20*
%TO.C,C22*%
X209975000Y-98660000D03*
X212925000Y-98660000D03*
%TD*%
D13*
%TO.C,R32*%
X239365000Y-112880000D03*
X237715000Y-112880000D03*
%TD*%
D21*
%TO.C,C25*%
X231125000Y-97350000D03*
X232675000Y-97350000D03*
%TD*%
D12*
%TO.C,C24*%
X197060464Y-113275273D03*
X197060464Y-114825273D03*
%TD*%
D18*
%TO.C,R8*%
X194645000Y-118910000D03*
X196295000Y-118910000D03*
%TD*%
D17*
%TO.C,R15*%
X201015000Y-108865000D03*
X201015000Y-107215000D03*
%TD*%
D22*
%TO.C,C2*%
X223960000Y-106030000D03*
X223960000Y-104480000D03*
%TD*%
D19*
%TO.C,R4*%
X223960000Y-109175000D03*
X223960000Y-107525000D03*
%TD*%
D13*
%TO.C,R35*%
X242625000Y-108960000D03*
X240975000Y-108960000D03*
%TD*%
D17*
%TO.C,R21*%
X242240000Y-113895000D03*
X242240000Y-115545000D03*
%TD*%
D15*
%TO.C,Q1*%
X228450000Y-103190000D03*
D16*
X228450000Y-104490000D03*
D15*
X226050000Y-104490000D03*
X226050000Y-103190000D03*
%TD*%
D19*
%TO.C,R11*%
X206540000Y-115475000D03*
X206540000Y-113825000D03*
%TD*%
D13*
%TO.C,R31*%
X239365000Y-111340000D03*
X237715000Y-111340000D03*
%TD*%
D12*
%TO.C,C10*%
X235710000Y-106715000D03*
X235710000Y-108265000D03*
%TD*%
%TO.C,C11*%
X203450000Y-113885000D03*
X203450000Y-115435000D03*
%TD*%
D17*
%TO.C,R37*%
X208000000Y-107100000D03*
X208000000Y-108750000D03*
%TD*%
D18*
%TO.C,R39*%
X212895000Y-100630000D03*
X214545000Y-100630000D03*
%TD*%
D22*
%TO.C,C20*%
X223960000Y-102930000D03*
X223960000Y-101380000D03*
%TD*%
D17*
%TO.C,R7*%
X197925000Y-108855000D03*
X197925000Y-107205000D03*
%TD*%
D13*
%TO.C,R38*%
X199360000Y-118920000D03*
X197710000Y-118920000D03*
%TD*%
D19*
%TO.C,R17*%
X230370000Y-115135000D03*
X230370000Y-113485000D03*
%TD*%
D17*
%TO.C,R34*%
X232550000Y-103015000D03*
X232550000Y-104665000D03*
%TD*%
%TO.C,R16*%
X199475000Y-108870000D03*
X199475000Y-107220000D03*
%TD*%
D18*
%TO.C,R1*%
X227135000Y-106130000D03*
X228785000Y-106130000D03*
%TD*%
D19*
%TO.C,R28*%
X233520000Y-115135000D03*
X233520000Y-113485000D03*
%TD*%
D12*
%TO.C,C1*%
X226170000Y-112835000D03*
X226170000Y-114385000D03*
%TD*%
M02*
