M48
; DRILL file {KiCad (6.0.7)} date Tue Oct 18 16:36:31 2022
; FORMAT={-:-/ absolute / metric / decimal}
; #@! TF.CreationDate,2022-10-18T16:36:31-04:00
; #@! TF.GenerationSoftware,Kicad,Pcbnew,(6.0.7)
; #@! TF.FileFunction,MixedPlating,1,4
FMAT,2
METRIC
; #@! TA.AperFunction,Plated,PTH,ViaDrill
T1C0.250
; #@! TA.AperFunction,Plated,PTH,ViaDrill
T2C0.300
; #@! TA.AperFunction,Plated,PTH,ViaDrill
T3C0.400
; #@! TA.AperFunction,Plated,PTH,ComponentDrill
T4C0.400
; #@! TA.AperFunction,Plated,PTH,ViaDrill
T5C0.600
; #@! TA.AperFunction,Plated,PTH,ComponentDrill
T6C0.900
; #@! TA.AperFunction,Plated,PTH,ComponentDrill
T7C0.990
; #@! TA.AperFunction,Plated,PTH,ComponentDrill
T8C1.000
; #@! TA.AperFunction,Plated,PTH,ComponentDrill
T9C1.300
; #@! TA.AperFunction,Plated,PTH,ComponentDrill
T10C2.200
%
G90
G05
T1
X202.19Y-97.08
X202.2Y-98.49
X202.7Y-97.09
X202.71Y-98.49
X203.21Y-97.08
X203.21Y-98.47
X205.74Y-98.36
X205.74Y-98.88
X205.74Y-99.4
X205.76Y-96.13
X205.76Y-97.16
X205.77Y-96.65
T2
X193.31Y-96.32
X193.83Y-95.78
X193.84Y-96.8
X198.624Y-96.36
X199.37Y-95.624
X200.171Y-100.472
X200.95Y-104.25
X201.11Y-100.35
X201.11Y-100.97
X201.11Y-101.59
X201.29Y-93.21
X201.29Y-93.83
X201.29Y-94.45
X201.29Y-95.08
X205.53Y-100.95
X205.53Y-101.56
X205.53Y-102.17
X205.53Y-102.79
X205.53Y-103.41
X205.98Y-94.34
X205.98Y-94.94
T3
X192.61Y-110.08
X192.61Y-118.06
X193.57Y-118.91
X195.771Y-112.92
X195.801Y-115.047
X196.3Y-117.98
X196.87Y-109.2
X197.05Y-110.2
X197.39Y-116.95
X197.93Y-108.154
X197.935Y-98.865
X198.43Y-111.72
X198.455Y-119.45
X198.46Y-93.34
X198.521Y-117.16
X199.45Y-112.04
X199.51Y-108.169
X200.47Y-116.75
X200.99Y-108.164
X202.12Y-111.36
X202.13Y-112.87
X202.15Y-113.86
X202.15Y-115.36
X202.155Y-107.255
X202.97Y-110.4
X202.97Y-112.277
X205.0Y-109.6
X205.35Y-107.2
X206.255Y-112.226
X206.52Y-103.96
X206.63Y-110.2
X206.75Y-108.75
X206.82Y-105.66
X206.84Y-111.26
X206.89Y-116.48
X208.18Y-103.045
X208.48Y-93.44
X208.55Y-92.443
X209.63Y-109.93
X209.75Y-112.52
X210.29Y-104.84
X210.399Y-110.605
X210.966Y-98.661
X211.251Y-104.768
X211.496Y-92.292
X211.84Y-98.084
X212.2Y-104.79
X213.175Y-105.009
X213.8Y-92.19
X215.038Y-105.206
X216.026Y-105.059
X216.478Y-97.106
X217.02Y-104.95
X217.077Y-112.101
X217.15Y-99.02
X217.316Y-96.561
X218.03Y-111.8
X218.163Y-106.465
X218.77Y-105.672
X218.791Y-111.013
X219.49Y-104.972
X219.49Y-112.773
X220.72Y-99.05
X220.98Y-102.97
X221.21Y-96.8
X221.51Y-92.264
X222.31Y-107.28
X222.8Y-109.206
X222.948Y-98.895
X223.3Y-114.74
X223.32Y-119.66
X223.96Y-100.22
X224.722Y-104.848
X224.85Y-92.814
X224.967Y-102.491
X227.331Y-113.239
X227.372Y-114.238
X227.892Y-92.418
X228.099Y-111.004
X229.34Y-91.66
X231.07Y-108.95
X231.1Y-103.26
X231.769Y-104.89
X232.022Y-111.167
X232.7Y-98.5
X233.23Y-109.65
X234.01Y-110.674
X234.05Y-112.074
X234.1Y-101.97
X234.851Y-104.158
X234.883Y-111.162
X235.85Y-104.164
X236.05Y-110.84
X236.09Y-93.91
X236.63Y-98.5
X237.08Y-101.65
X237.91Y-102.94
X238.511Y-106.525
X238.683Y-108.485
X239.51Y-107.924
X239.51Y-106.5
X239.897Y-99.802
X241.18Y-113.88
X241.78Y-109.93
X241.81Y-112.65
X242.9Y-91.94
X243.6Y-108.94
X244.88Y-98.05
T4
X192.85Y-105.7
X193.333Y-104.533
X193.333Y-106.867
X194.5Y-104.05
X194.5Y-107.35
X195.667Y-104.533
X195.667Y-106.867
X196.15Y-105.7
X217.0Y-94.1
X217.483Y-92.933
X217.483Y-95.267
X218.65Y-92.45
X218.65Y-95.75
X219.817Y-92.933
X219.817Y-95.267
X220.3Y-94.1
X241.15Y-105.7
X241.633Y-104.533
X241.633Y-106.867
X242.8Y-104.05
X242.8Y-107.35
X243.967Y-104.533
X243.967Y-106.867
X244.45Y-105.7
T5
X210.57Y-101.67
X210.58Y-100.521
X211.729Y-100.511
X211.74Y-101.66
T6
X230.6Y-117.07
X231.87Y-117.07
X233.14Y-117.07
X234.41Y-117.07
T7
X238.37Y-117.4
X242.87Y-117.4
T8
X226.87Y-93.91
X228.87Y-93.91
T9
X237.11Y-114.91
X244.12Y-114.91
T10
X194.5Y-105.7
X218.65Y-94.1
X242.8Y-105.7
T0
M30
